<mxfile host="Electron" modified="2023-07-10T03:34:31.751Z" agent="Mozilla/5.0 (Macintosh; Intel Mac OS X 10_15_7) AppleWebKit/537.36 (KHTML, like Gecko) draw.io/21.5.1 Chrome/112.0.5615.204 Electron/24.6.0 Safari/537.36" etag="Srnm8L8e1HyLxIrQWJ70" version="21.5.1" type="device">
  <diagram name="第 1 页" id="kL6ouIeIhQxrdk8Bzcih">
    <mxGraphModel dx="1908" dy="1733" grid="0" gridSize="10" guides="1" tooltips="1" connect="1" arrows="1" fold="1" page="0" pageScale="1" pageWidth="827" pageHeight="1169" math="0" shadow="0">
      <root>
        <mxCell id="0" />
        <mxCell id="1" parent="0" />
        <mxCell id="jq3bAAN9FsQ__k8qv7md-1" value="" style="rounded=0;whiteSpace=wrap;html=1;fillColor=#dae8fc;strokeWidth=1;dashed=1;strokeColor=#6c8ebf;gradientColor=none;opacity=50;" vertex="1" parent="1">
          <mxGeometry x="446" y="-215" width="434" height="197" as="geometry" />
        </mxCell>
        <mxCell id="jq3bAAN9FsQ__k8qv7md-2" value="" style="rounded=0;whiteSpace=wrap;html=1;fillColor=#dae8fc;strokeWidth=1;dashed=1;strokeColor=#6c8ebf;opacity=50;" vertex="1" parent="1">
          <mxGeometry x="446" y="-584" width="433" height="265" as="geometry" />
        </mxCell>
        <mxCell id="CLw23MSYpjSKy58oMHuV-534" value="" style="swimlane;fontStyle=1;align=right;verticalAlign=top;childLayout=stackLayout;horizontal=1;startSize=101;horizontalStack=0;resizeParent=1;resizeParentMax=0;resizeLast=0;collapsible=1;marginBottom=0;whiteSpace=wrap;html=1;fillColor=#ffcccc;strokeColor=#36393d;fontSize=13;" parent="1" vertex="1" collapsed="1">
          <mxGeometry x="696" y="-302" width="172.5" height="72" as="geometry">
            <mxRectangle x="390" y="220" width="160" height="56" as="alternateBounds" />
          </mxGeometry>
        </mxCell>
        <mxCell id="CLw23MSYpjSKy58oMHuV-535" value="+&amp;nbsp;&amp;nbsp;initAsmInfo()" style="text;strokeColor=none;fillColor=none;align=left;verticalAlign=top;spacingLeft=4;spacingRight=4;overflow=hidden;rotatable=0;points=[[0,0.5],[1,0.5]];portConstraint=eastwest;whiteSpace=wrap;html=1;" parent="CLw23MSYpjSKy58oMHuV-534" vertex="1">
          <mxGeometry y="30" width="160" height="26" as="geometry" />
        </mxCell>
        <mxCell id="CLw23MSYpjSKy58oMHuV-402" value="" style="endArrow=open;html=1;endSize=12;startArrow=diamondThin;startSize=14;startFill=1;align=left;verticalAlign=bottom;rounded=0;entryX=0;entryY=0.5;entryDx=0;entryDy=0;fontSize=13;edgeStyle=orthogonalEdgeStyle;exitX=1;exitY=0.43;exitDx=0;exitDy=0;exitPerimeter=0;" parent="1" source="CLw23MSYpjSKy58oMHuV-131" target="CLw23MSYpjSKy58oMHuV-387" edge="1">
          <mxGeometry relative="1" as="geometry">
            <mxPoint x="24" y="-241" as="sourcePoint" />
            <mxPoint x="171" y="-413" as="targetPoint" />
            <Array as="points">
              <mxPoint x="104" y="-363" />
              <mxPoint x="104" y="-394" />
            </Array>
          </mxGeometry>
        </mxCell>
        <mxCell id="CLw23MSYpjSKy58oMHuV-404" value="TPC-&amp;gt;addMPasses" style="text;html=1;strokeColor=none;fillColor=none;align=center;verticalAlign=middle;whiteSpace=wrap;rounded=0;fontSize=13;" parent="1" vertex="1">
          <mxGeometry x="103" y="-312" width="151.5" height="23" as="geometry" />
        </mxCell>
        <mxCell id="R7ZZSEsE3QXJH_9ho_os-1" value="&lt;span style=&quot;background-color: initial; font-size: 13px;&quot;&gt;X+TargetObjectFile&lt;/span&gt;" style="swimlane;fontStyle=1;align=center;verticalAlign=middle;childLayout=stackLayout;horizontal=1;startSize=30;horizontalStack=0;resizeParent=1;resizeParentMax=0;resizeLast=0;collapsible=1;marginBottom=0;whiteSpace=wrap;html=1;fillColor=#f8cecc;strokeColor=#b85450;fontSize=13;" parent="1" vertex="1" collapsed="1">
          <mxGeometry x="98" y="451" width="160" height="30" as="geometry">
            <mxRectangle x="121" y="260" width="160" height="90" as="alternateBounds" />
          </mxGeometry>
        </mxCell>
        <mxCell id="R7ZZSEsE3QXJH_9ho_os-2" value="+&amp;nbsp;" style="text;strokeColor=none;fillColor=none;align=left;verticalAlign=top;spacingLeft=4;spacingRight=4;overflow=hidden;rotatable=0;points=[[0,0.5],[1,0.5]];portConstraint=eastwest;whiteSpace=wrap;html=1;" parent="R7ZZSEsE3QXJH_9ho_os-1" vertex="1">
          <mxGeometry y="30" width="160" height="26" as="geometry" />
        </mxCell>
        <mxCell id="R7ZZSEsE3QXJH_9ho_os-3" value="" style="line;strokeWidth=1;fillColor=none;align=left;verticalAlign=middle;spacingTop=-1;spacingLeft=3;spacingRight=3;rotatable=0;labelPosition=right;points=[];portConstraint=eastwest;strokeColor=inherit;" parent="R7ZZSEsE3QXJH_9ho_os-1" vertex="1">
          <mxGeometry y="56" width="160" height="8" as="geometry" />
        </mxCell>
        <mxCell id="R7ZZSEsE3QXJH_9ho_os-4" value="+ Initialize(MCContext, TM)" style="text;strokeColor=none;fillColor=none;align=left;verticalAlign=top;spacingLeft=4;spacingRight=4;overflow=hidden;rotatable=0;points=[[0,0.5],[1,0.5]];portConstraint=eastwest;whiteSpace=wrap;html=1;" parent="R7ZZSEsE3QXJH_9ho_os-1" vertex="1">
          <mxGeometry y="64" width="160" height="26" as="geometry" />
        </mxCell>
        <mxCell id="GQpjQsAJnYNblnqLEnHx-1" value="TargetLoweringObjectFileELF" style="swimlane;fontStyle=1;align=right;verticalAlign=middle;childLayout=stackLayout;horizontal=1;startSize=30;horizontalStack=0;resizeParent=1;resizeParentMax=0;resizeLast=0;collapsible=1;marginBottom=0;whiteSpace=wrap;html=1;fillColor=#d5e8d4;strokeColor=#82b366;fontSize=13;" parent="1" vertex="1" collapsed="1">
          <mxGeometry x="78" y="501" width="207" height="30" as="geometry">
            <mxRectangle x="81" y="190" width="200" height="90" as="alternateBounds" />
          </mxGeometry>
        </mxCell>
        <mxCell id="GQpjQsAJnYNblnqLEnHx-2" value="+&amp;nbsp;&lt;br&gt;&lt;br&gt;&lt;br&gt;" style="text;strokeColor=none;fillColor=none;align=left;verticalAlign=top;spacingLeft=4;spacingRight=4;overflow=hidden;rotatable=0;points=[[0,0.5],[1,0.5]];portConstraint=eastwest;whiteSpace=wrap;html=1;" parent="GQpjQsAJnYNblnqLEnHx-1" vertex="1">
          <mxGeometry y="30" width="200" height="26" as="geometry" />
        </mxCell>
        <mxCell id="GQpjQsAJnYNblnqLEnHx-3" value="" style="line;strokeWidth=1;fillColor=none;align=left;verticalAlign=middle;spacingTop=-1;spacingLeft=3;spacingRight=3;rotatable=0;labelPosition=right;points=[];portConstraint=eastwest;strokeColor=inherit;" parent="GQpjQsAJnYNblnqLEnHx-1" vertex="1">
          <mxGeometry y="56" width="200" height="8" as="geometry" />
        </mxCell>
        <mxCell id="GQpjQsAJnYNblnqLEnHx-4" value="+ method(type): type" style="text;strokeColor=none;fillColor=none;align=left;verticalAlign=top;spacingLeft=4;spacingRight=4;overflow=hidden;rotatable=0;points=[[0,0.5],[1,0.5]];portConstraint=eastwest;whiteSpace=wrap;html=1;" parent="GQpjQsAJnYNblnqLEnHx-1" vertex="1">
          <mxGeometry y="64" width="200" height="26" as="geometry" />
        </mxCell>
        <mxCell id="CLw23MSYpjSKy58oMHuV-1" value="TargetLoweringObjectFile" style="swimlane;fontStyle=1;align=right;verticalAlign=middle;childLayout=stackLayout;horizontal=1;startSize=30;horizontalStack=0;resizeParent=1;resizeParentMax=0;resizeLast=0;collapsible=1;marginBottom=0;whiteSpace=wrap;html=1;fillColor=#d5e8d4;strokeColor=#82b366;fontSize=13;" parent="1" vertex="1" collapsed="1">
          <mxGeometry x="88" y="553" width="180" height="30" as="geometry">
            <mxRectangle x="70" y="120" width="200" height="90" as="alternateBounds" />
          </mxGeometry>
        </mxCell>
        <mxCell id="CLw23MSYpjSKy58oMHuV-2" value="+&amp;nbsp;" style="text;strokeColor=none;fillColor=none;align=left;verticalAlign=top;spacingLeft=4;spacingRight=4;overflow=hidden;rotatable=0;points=[[0,0.5],[1,0.5]];portConstraint=eastwest;whiteSpace=wrap;html=1;" parent="CLw23MSYpjSKy58oMHuV-1" vertex="1">
          <mxGeometry y="30" width="200" height="26" as="geometry" />
        </mxCell>
        <mxCell id="CLw23MSYpjSKy58oMHuV-3" value="" style="line;strokeWidth=1;fillColor=none;align=left;verticalAlign=middle;spacingTop=-1;spacingLeft=3;spacingRight=3;rotatable=0;labelPosition=right;points=[];portConstraint=eastwest;strokeColor=inherit;" parent="CLw23MSYpjSKy58oMHuV-1" vertex="1">
          <mxGeometry y="56" width="200" height="8" as="geometry" />
        </mxCell>
        <mxCell id="CLw23MSYpjSKy58oMHuV-4" value="+&amp;nbsp;&amp;nbsp;" style="text;strokeColor=none;fillColor=none;align=left;verticalAlign=top;spacingLeft=4;spacingRight=4;overflow=hidden;rotatable=0;points=[[0,0.5],[1,0.5]];portConstraint=eastwest;whiteSpace=wrap;html=1;" parent="CLw23MSYpjSKy58oMHuV-1" vertex="1">
          <mxGeometry y="64" width="200" height="26" as="geometry" />
        </mxCell>
        <mxCell id="CLw23MSYpjSKy58oMHuV-9" value="" style="endArrow=block;endSize=12;endFill=0;html=1;rounded=0;fontSize=13;exitX=0.5;exitY=1;exitDx=0;exitDy=0;entryX=0.5;entryY=0;entryDx=0;entryDy=0;" parent="1" source="CLw23MSYpjSKy58oMHuV-1" target="CLw23MSYpjSKy58oMHuV-173" edge="1">
          <mxGeometry width="160" relative="1" as="geometry">
            <mxPoint x="394" y="798.5" as="sourcePoint" />
            <mxPoint x="126.97674418604652" y="611" as="targetPoint" />
          </mxGeometry>
        </mxCell>
        <mxCell id="CLw23MSYpjSKy58oMHuV-10" value="" style="endArrow=block;endSize=12;endFill=0;html=1;rounded=0;entryX=0.5;entryY=0;entryDx=0;entryDy=0;exitX=0.5;exitY=1;exitDx=0;exitDy=0;fontSize=13;" parent="1" target="CLw23MSYpjSKy58oMHuV-1" edge="1">
          <mxGeometry width="160" relative="1" as="geometry">
            <mxPoint x="178" y="532" as="sourcePoint" />
            <mxPoint x="244" y="538.5" as="targetPoint" />
          </mxGeometry>
        </mxCell>
        <mxCell id="CLw23MSYpjSKy58oMHuV-16" value="" style="endArrow=block;endSize=12;endFill=0;html=1;rounded=0;fontSize=13;exitX=0.5;exitY=1;exitDx=0;exitDy=0;" parent="1" source="R7ZZSEsE3QXJH_9ho_os-1" edge="1">
          <mxGeometry width="160" relative="1" as="geometry">
            <mxPoint x="263" y="483" as="sourcePoint" />
            <mxPoint x="178" y="502" as="targetPoint" />
          </mxGeometry>
        </mxCell>
        <mxCell id="CLw23MSYpjSKy58oMHuV-17" value="X+TargetMachine" style="swimlane;fontStyle=1;align=center;verticalAlign=middle;childLayout=stackLayout;horizontal=1;startSize=40;horizontalStack=0;resizeParent=1;resizeParentMax=0;resizeLast=0;collapsible=1;marginBottom=0;whiteSpace=wrap;html=1;fillColor=#f8cecc;strokeColor=#b85450;fontSize=13;" parent="1" vertex="1" collapsed="1">
          <mxGeometry x="400" y="410" width="160" height="40" as="geometry">
            <mxRectangle x="410" y="310" width="160" height="90" as="alternateBounds" />
          </mxGeometry>
        </mxCell>
        <mxCell id="CLw23MSYpjSKy58oMHuV-18" value="+&amp;nbsp;" style="text;strokeColor=none;fillColor=none;align=left;verticalAlign=top;spacingLeft=4;spacingRight=4;overflow=hidden;rotatable=0;points=[[0,0.5],[1,0.5]];portConstraint=eastwest;whiteSpace=wrap;html=1;" parent="CLw23MSYpjSKy58oMHuV-17" vertex="1">
          <mxGeometry y="30" width="160" height="26" as="geometry" />
        </mxCell>
        <mxCell id="CLw23MSYpjSKy58oMHuV-19" value="" style="line;strokeWidth=1;fillColor=none;align=left;verticalAlign=middle;spacingTop=-1;spacingLeft=3;spacingRight=3;rotatable=0;labelPosition=right;points=[];portConstraint=eastwest;strokeColor=inherit;" parent="CLw23MSYpjSKy58oMHuV-17" vertex="1">
          <mxGeometry y="56" width="160" height="8" as="geometry" />
        </mxCell>
        <mxCell id="CLw23MSYpjSKy58oMHuV-20" value="+" style="text;strokeColor=none;fillColor=none;align=left;verticalAlign=top;spacingLeft=4;spacingRight=4;overflow=hidden;rotatable=0;points=[[0,0.5],[1,0.5]];portConstraint=eastwest;whiteSpace=wrap;html=1;" parent="CLw23MSYpjSKy58oMHuV-17" vertex="1">
          <mxGeometry y="64" width="160" height="26" as="geometry" />
        </mxCell>
        <mxCell id="CLw23MSYpjSKy58oMHuV-25" value="1" style="endArrow=openThin;html=1;endSize=12;startArrow=diamondThin;startSize=14;startFill=1;edgeStyle=orthogonalEdgeStyle;align=left;verticalAlign=bottom;rounded=0;endFill=0;entryX=0.5;entryY=0;entryDx=0;entryDy=0;exitX=0;exitY=0.75;exitDx=0;exitDy=0;fontSize=13;" parent="1" target="R7ZZSEsE3QXJH_9ho_os-1" edge="1">
          <mxGeometry x="-0.84" y="22" relative="1" as="geometry">
            <mxPoint x="400" y="435" as="sourcePoint" />
            <mxPoint x="101" y="456" as="targetPoint" />
            <mxPoint as="offset" />
          </mxGeometry>
        </mxCell>
        <mxCell id="CLw23MSYpjSKy58oMHuV-31" value="TLOF" style="edgeLabel;html=1;align=center;verticalAlign=middle;resizable=0;points=[];fontSize=13;" parent="CLw23MSYpjSKy58oMHuV-25" vertex="1" connectable="0">
          <mxGeometry x="-0.1844" y="-1" relative="1" as="geometry">
            <mxPoint x="-2" y="-1" as="offset" />
          </mxGeometry>
        </mxCell>
        <mxCell id="CLw23MSYpjSKy58oMHuV-32" value="X+ABIInfo" style="swimlane;fontStyle=1;align=center;verticalAlign=middle;childLayout=stackLayout;horizontal=1;startSize=30;horizontalStack=0;resizeParent=1;resizeParentMax=0;resizeLast=0;collapsible=1;marginBottom=0;whiteSpace=wrap;html=1;fillColor=#f8cecc;strokeColor=#b85450;fontSize=13;" parent="1" vertex="1" collapsed="1">
          <mxGeometry x="98" y="365" width="160" height="30" as="geometry">
            <mxRectangle x="240" y="400" width="160" height="90" as="alternateBounds" />
          </mxGeometry>
        </mxCell>
        <mxCell id="CLw23MSYpjSKy58oMHuV-33" value="+&amp;nbsp;" style="text;strokeColor=none;fillColor=none;align=left;verticalAlign=top;spacingLeft=4;spacingRight=4;overflow=hidden;rotatable=0;points=[[0,0.5],[1,0.5]];portConstraint=eastwest;whiteSpace=wrap;html=1;" parent="CLw23MSYpjSKy58oMHuV-32" vertex="1">
          <mxGeometry y="30" width="160" height="26" as="geometry" />
        </mxCell>
        <mxCell id="CLw23MSYpjSKy58oMHuV-34" value="" style="line;strokeWidth=1;fillColor=none;align=left;verticalAlign=middle;spacingTop=-1;spacingLeft=3;spacingRight=3;rotatable=0;labelPosition=right;points=[];portConstraint=eastwest;strokeColor=inherit;" parent="CLw23MSYpjSKy58oMHuV-32" vertex="1">
          <mxGeometry y="56" width="160" height="8" as="geometry" />
        </mxCell>
        <mxCell id="CLw23MSYpjSKy58oMHuV-35" value="+&amp;nbsp;" style="text;strokeColor=none;fillColor=none;align=left;verticalAlign=top;spacingLeft=4;spacingRight=4;overflow=hidden;rotatable=0;points=[[0,0.5],[1,0.5]];portConstraint=eastwest;whiteSpace=wrap;html=1;" parent="CLw23MSYpjSKy58oMHuV-32" vertex="1">
          <mxGeometry y="64" width="160" height="26" as="geometry" />
        </mxCell>
        <mxCell id="CLw23MSYpjSKy58oMHuV-36" value="1" style="endArrow=openThin;html=1;endSize=12;startArrow=diamondThin;startSize=14;startFill=1;edgeStyle=orthogonalEdgeStyle;align=left;verticalAlign=bottom;rounded=0;endFill=0;entryX=0.5;entryY=1;entryDx=0;entryDy=0;fontSize=13;exitX=0;exitY=0.25;exitDx=0;exitDy=0;" parent="1" source="CLw23MSYpjSKy58oMHuV-17" target="CLw23MSYpjSKy58oMHuV-32" edge="1">
          <mxGeometry x="-0.8462" y="-4" relative="1" as="geometry">
            <mxPoint x="410" y="350" as="sourcePoint" />
            <mxPoint x="221" y="310" as="targetPoint" />
            <Array as="points">
              <mxPoint x="178" y="420" />
            </Array>
            <mxPoint as="offset" />
          </mxGeometry>
        </mxCell>
        <mxCell id="CLw23MSYpjSKy58oMHuV-37" value="ABI" style="edgeLabel;html=1;align=center;verticalAlign=middle;resizable=0;points=[];fontSize=13;" parent="CLw23MSYpjSKy58oMHuV-36" vertex="1" connectable="0">
          <mxGeometry x="-0.1844" y="-1" relative="1" as="geometry">
            <mxPoint x="-32" y="1" as="offset" />
          </mxGeometry>
        </mxCell>
        <mxCell id="CLw23MSYpjSKy58oMHuV-38" value="X+Subtarget" style="swimlane;fontStyle=1;align=center;verticalAlign=middle;childLayout=stackLayout;horizontal=1;startSize=30;horizontalStack=0;resizeParent=1;resizeParentMax=0;resizeLast=0;collapsible=1;marginBottom=0;whiteSpace=wrap;html=1;fillColor=#f8cecc;strokeColor=#b85450;fontSize=13;" parent="1" vertex="1" collapsed="1">
          <mxGeometry x="465" y="539" width="160" height="30" as="geometry">
            <mxRectangle x="240" y="400" width="160" height="90" as="alternateBounds" />
          </mxGeometry>
        </mxCell>
        <mxCell id="CLw23MSYpjSKy58oMHuV-39" value="+&amp;nbsp;" style="text;strokeColor=none;fillColor=none;align=left;verticalAlign=top;spacingLeft=4;spacingRight=4;overflow=hidden;rotatable=0;points=[[0,0.5],[1,0.5]];portConstraint=eastwest;whiteSpace=wrap;html=1;" parent="CLw23MSYpjSKy58oMHuV-38" vertex="1">
          <mxGeometry y="30" width="160" height="26" as="geometry" />
        </mxCell>
        <mxCell id="CLw23MSYpjSKy58oMHuV-40" value="" style="line;strokeWidth=1;fillColor=none;align=left;verticalAlign=middle;spacingTop=-1;spacingLeft=3;spacingRight=3;rotatable=0;labelPosition=right;points=[];portConstraint=eastwest;strokeColor=inherit;" parent="CLw23MSYpjSKy58oMHuV-38" vertex="1">
          <mxGeometry y="56" width="160" height="8" as="geometry" />
        </mxCell>
        <mxCell id="CLw23MSYpjSKy58oMHuV-41" value="+&amp;nbsp;" style="text;strokeColor=none;fillColor=none;align=left;verticalAlign=top;spacingLeft=4;spacingRight=4;overflow=hidden;rotatable=0;points=[[0,0.5],[1,0.5]];portConstraint=eastwest;whiteSpace=wrap;html=1;" parent="CLw23MSYpjSKy58oMHuV-38" vertex="1">
          <mxGeometry y="64" width="160" height="26" as="geometry" />
        </mxCell>
        <mxCell id="CLw23MSYpjSKy58oMHuV-42" value="N" style="endArrow=openThin;html=1;endSize=12;startArrow=diamondThin;startSize=14;startFill=1;edgeStyle=orthogonalEdgeStyle;align=left;verticalAlign=bottom;rounded=0;endFill=0;entryX=0.5;entryY=0;entryDx=0;entryDy=0;fontSize=13;exitX=0.5;exitY=1;exitDx=0;exitDy=0;" parent="1" source="CLw23MSYpjSKy58oMHuV-17" target="CLw23MSYpjSKy58oMHuV-38" edge="1">
          <mxGeometry x="-0.3333" y="10" relative="1" as="geometry">
            <mxPoint x="480" y="460" as="sourcePoint" />
            <mxPoint x="520" y="500" as="targetPoint" />
            <Array as="points" />
            <mxPoint as="offset" />
          </mxGeometry>
        </mxCell>
        <mxCell id="CLw23MSYpjSKy58oMHuV-43" value="SubtargetMap" style="edgeLabel;html=1;align=center;verticalAlign=middle;resizable=0;points=[];fontSize=13;" parent="CLw23MSYpjSKy58oMHuV-42" vertex="1" connectable="0">
          <mxGeometry x="-0.1844" y="-1" relative="1" as="geometry">
            <mxPoint x="11" y="11" as="offset" />
          </mxGeometry>
        </mxCell>
        <mxCell id="CLw23MSYpjSKy58oMHuV-45" value="LLVMTargetMachine" style="swimlane;fontStyle=1;align=center;verticalAlign=middle;childLayout=stackLayout;horizontal=1;startSize=44;horizontalStack=0;resizeParent=1;resizeParentMax=0;resizeLast=0;collapsible=1;marginBottom=0;whiteSpace=wrap;html=1;fillColor=#d5e8d4;strokeColor=#82b366;fontSize=13;gradientColor=#97d077;" parent="1" vertex="1" collapsed="1">
          <mxGeometry x="400" y="278" width="160" height="44" as="geometry">
            <mxRectangle x="390" y="220" width="160" height="56" as="alternateBounds" />
          </mxGeometry>
        </mxCell>
        <mxCell id="CLw23MSYpjSKy58oMHuV-46" value="+&amp;nbsp;&amp;nbsp;initAsmInfo()" style="text;strokeColor=none;fillColor=none;align=left;verticalAlign=top;spacingLeft=4;spacingRight=4;overflow=hidden;rotatable=0;points=[[0,0.5],[1,0.5]];portConstraint=eastwest;whiteSpace=wrap;html=1;" parent="CLw23MSYpjSKy58oMHuV-45" vertex="1">
          <mxGeometry y="30" width="160" height="26" as="geometry" />
        </mxCell>
        <mxCell id="CLw23MSYpjSKy58oMHuV-50" value="" style="endArrow=block;endSize=12;endFill=0;html=1;rounded=0;entryX=0.5;entryY=1;entryDx=0;entryDy=0;fontSize=13;exitX=0.5;exitY=0;exitDx=0;exitDy=0;" parent="1" source="CLw23MSYpjSKy58oMHuV-17" target="CLw23MSYpjSKy58oMHuV-45" edge="1">
          <mxGeometry width="160" relative="1" as="geometry">
            <mxPoint x="480" y="380" as="sourcePoint" />
            <mxPoint x="500" y="340" as="targetPoint" />
          </mxGeometry>
        </mxCell>
        <mxCell id="CLw23MSYpjSKy58oMHuV-51" value="TargetMachine" style="swimlane;fontStyle=1;align=center;verticalAlign=middle;childLayout=stackLayout;horizontal=1;startSize=30;horizontalStack=0;resizeParent=1;resizeParentMax=0;resizeLast=0;collapsible=1;marginBottom=0;whiteSpace=wrap;html=1;fillColor=#d5e8d4;strokeColor=#82b366;gradientColor=#97d077;fontSize=13;" parent="1" vertex="1">
          <mxGeometry x="755" y="272.5" width="160" height="56" as="geometry">
            <mxRectangle x="600" y="180" width="160" height="30" as="alternateBounds" />
          </mxGeometry>
        </mxCell>
        <mxCell id="CLw23MSYpjSKy58oMHuV-52" value="&lt;font color=&quot;#ff0000&quot; style=&quot;font-size: 13px;&quot;&gt;+&amp;nbsp;&amp;nbsp;initAsmInfo()&lt;/font&gt;" style="text;strokeColor=#82b366;fillColor=#d5e8d4;align=center;verticalAlign=top;spacingLeft=4;spacingRight=4;overflow=hidden;rotatable=0;points=[[0,0.5],[1,0.5]];portConstraint=eastwest;whiteSpace=wrap;html=1;gradientColor=#97d077;fontSize=13;" parent="CLw23MSYpjSKy58oMHuV-51" vertex="1">
          <mxGeometry y="30" width="160" height="26" as="geometry" />
        </mxCell>
        <mxCell id="CLw23MSYpjSKy58oMHuV-53" value="" style="endArrow=block;endSize=12;endFill=0;html=1;rounded=0;fontSize=13;exitX=1;exitY=0.5;exitDx=0;exitDy=0;entryX=0;entryY=0.5;entryDx=0;entryDy=0;edgeStyle=elbowEdgeStyle;" parent="1" source="CLw23MSYpjSKy58oMHuV-45" target="CLw23MSYpjSKy58oMHuV-51" edge="1">
          <mxGeometry width="160" relative="1" as="geometry">
            <mxPoint x="667" y="301" as="sourcePoint" />
            <mxPoint x="597" y="372" as="targetPoint" />
          </mxGeometry>
        </mxCell>
        <mxCell id="CLw23MSYpjSKy58oMHuV-54" value="Target" style="swimlane;fontStyle=1;align=center;verticalAlign=middle;childLayout=stackLayout;horizontal=1;startSize=50;horizontalStack=0;resizeParent=1;resizeParentMax=0;resizeLast=0;collapsible=1;marginBottom=0;whiteSpace=wrap;html=1;fillColor=#d5e8d4;strokeColor=#82b366;gradientColor=#97d077;fontSize=13;" parent="1" vertex="1" collapsed="1">
          <mxGeometry x="106" y="279" width="160" height="42.5" as="geometry">
            <mxRectangle x="320" y="50" width="160" height="56" as="alternateBounds" />
          </mxGeometry>
        </mxCell>
        <mxCell id="CLw23MSYpjSKy58oMHuV-55" value="+&amp;nbsp;&amp;nbsp;" style="text;strokeColor=none;fillColor=none;align=left;verticalAlign=top;spacingLeft=4;spacingRight=4;overflow=hidden;rotatable=0;points=[[0,0.5],[1,0.5]];portConstraint=eastwest;whiteSpace=wrap;html=1;" parent="CLw23MSYpjSKy58oMHuV-54" vertex="1">
          <mxGeometry y="30" width="160" height="26" as="geometry" />
        </mxCell>
        <mxCell id="CLw23MSYpjSKy58oMHuV-56" value="MCAsmInfo" style="swimlane;fontStyle=1;align=center;verticalAlign=middle;childLayout=stackLayout;horizontal=1;startSize=30;horizontalStack=0;resizeParent=1;resizeParentMax=0;resizeLast=0;collapsible=1;marginBottom=0;whiteSpace=wrap;html=1;fillColor=#d5e8d4;strokeColor=#82b366;fontSize=13;" parent="1" vertex="1" collapsed="1">
          <mxGeometry x="694" y="198" width="160" height="30" as="geometry">
            <mxRectangle x="390" y="220" width="160" height="56" as="alternateBounds" />
          </mxGeometry>
        </mxCell>
        <mxCell id="CLw23MSYpjSKy58oMHuV-57" value="+&amp;nbsp;&amp;nbsp;initAsmInfo()" style="text;strokeColor=none;fillColor=none;align=left;verticalAlign=top;spacingLeft=4;spacingRight=4;overflow=hidden;rotatable=0;points=[[0,0.5],[1,0.5]];portConstraint=eastwest;whiteSpace=wrap;html=1;" parent="CLw23MSYpjSKy58oMHuV-56" vertex="1">
          <mxGeometry y="30" width="160" height="26" as="geometry" />
        </mxCell>
        <mxCell id="CLw23MSYpjSKy58oMHuV-61" value="MCRegisterInfo" style="swimlane;fontStyle=1;align=center;verticalAlign=middle;childLayout=stackLayout;horizontal=1;startSize=30;horizontalStack=0;resizeParent=1;resizeParentMax=0;resizeLast=0;collapsible=1;marginBottom=0;whiteSpace=wrap;html=1;fillColor=#d5e8d4;strokeColor=#82b366;fontSize=13;" parent="1" vertex="1" collapsed="1">
          <mxGeometry x="683" y="380.25" width="160" height="30" as="geometry">
            <mxRectangle x="390" y="220" width="160" height="56" as="alternateBounds" />
          </mxGeometry>
        </mxCell>
        <mxCell id="CLw23MSYpjSKy58oMHuV-62" value="+&amp;nbsp;&amp;nbsp;initAsmInfo()" style="text;strokeColor=none;fillColor=none;align=left;verticalAlign=top;spacingLeft=4;spacingRight=4;overflow=hidden;rotatable=0;points=[[0,0.5],[1,0.5]];portConstraint=eastwest;whiteSpace=wrap;html=1;" parent="CLw23MSYpjSKy58oMHuV-61" vertex="1">
          <mxGeometry y="30" width="160" height="26" as="geometry" />
        </mxCell>
        <mxCell id="CLw23MSYpjSKy58oMHuV-63" value="MCInstrInfo" style="swimlane;fontStyle=1;align=center;verticalAlign=middle;childLayout=stackLayout;horizontal=1;startSize=30;horizontalStack=0;resizeParent=1;resizeParentMax=0;resizeLast=0;collapsible=1;marginBottom=0;whiteSpace=wrap;html=1;fillColor=#d5e8d4;strokeColor=#82b366;fontSize=13;" parent="1" vertex="1" collapsed="1">
          <mxGeometry x="829" y="750" width="160" height="30" as="geometry">
            <mxRectangle x="390" y="220" width="160" height="56" as="alternateBounds" />
          </mxGeometry>
        </mxCell>
        <mxCell id="CLw23MSYpjSKy58oMHuV-64" value="+&amp;nbsp;&amp;nbsp;initAsmInfo()" style="text;strokeColor=none;fillColor=none;align=left;verticalAlign=top;spacingLeft=4;spacingRight=4;overflow=hidden;rotatable=0;points=[[0,0.5],[1,0.5]];portConstraint=eastwest;whiteSpace=wrap;html=1;" parent="CLw23MSYpjSKy58oMHuV-63" vertex="1">
          <mxGeometry y="30" width="160" height="26" as="geometry" />
        </mxCell>
        <mxCell id="CLw23MSYpjSKy58oMHuV-65" value="MCSubtargetInfo" style="swimlane;fontStyle=1;align=center;verticalAlign=middle;childLayout=stackLayout;horizontal=1;startSize=30;horizontalStack=0;resizeParent=1;resizeParentMax=0;resizeLast=0;collapsible=1;marginBottom=0;whiteSpace=wrap;html=1;fillColor=#d5e8d4;strokeColor=#82b366;fontSize=13;" parent="1" vertex="1" collapsed="1">
          <mxGeometry x="896" y="192" width="160" height="30" as="geometry">
            <mxRectangle x="390" y="220" width="160" height="56" as="alternateBounds" />
          </mxGeometry>
        </mxCell>
        <mxCell id="CLw23MSYpjSKy58oMHuV-66" value="+&amp;nbsp;&amp;nbsp;initAsmInfo()" style="text;strokeColor=none;fillColor=none;align=left;verticalAlign=top;spacingLeft=4;spacingRight=4;overflow=hidden;rotatable=0;points=[[0,0.5],[1,0.5]];portConstraint=eastwest;whiteSpace=wrap;html=1;" parent="CLw23MSYpjSKy58oMHuV-65" vertex="1">
          <mxGeometry y="30" width="160" height="26" as="geometry" />
        </mxCell>
        <mxCell id="CLw23MSYpjSKy58oMHuV-68" value="1" style="endArrow=openThin;html=1;endSize=12;startArrow=diamondThin;startSize=14;startFill=1;edgeStyle=orthogonalEdgeStyle;align=left;verticalAlign=bottom;rounded=0;endFill=0;entryX=0.5;entryY=1;entryDx=0;entryDy=0;exitX=0.25;exitY=0;exitDx=0;exitDy=0;fontSize=13;" parent="1" source="CLw23MSYpjSKy58oMHuV-51" target="CLw23MSYpjSKy58oMHuV-56" edge="1">
          <mxGeometry x="-0.8361" y="-5" relative="1" as="geometry">
            <mxPoint x="916" y="250" as="sourcePoint" />
            <mxPoint x="717" y="212" as="targetPoint" />
            <mxPoint as="offset" />
          </mxGeometry>
        </mxCell>
        <mxCell id="CLw23MSYpjSKy58oMHuV-69" value="AsmInfo" style="edgeLabel;html=1;align=center;verticalAlign=middle;resizable=0;points=[];fontSize=13;fontColor=#FF0000;" parent="CLw23MSYpjSKy58oMHuV-68" vertex="1" connectable="0">
          <mxGeometry x="-0.1844" y="-1" relative="1" as="geometry">
            <mxPoint x="-31" y="12" as="offset" />
          </mxGeometry>
        </mxCell>
        <mxCell id="CLw23MSYpjSKy58oMHuV-70" value="1" style="endArrow=openThin;html=1;endSize=12;startArrow=diamondThin;startSize=14;startFill=1;edgeStyle=elbowEdgeStyle;align=left;verticalAlign=bottom;rounded=0;endFill=0;entryX=0.5;entryY=0;entryDx=0;entryDy=0;fontSize=13;elbow=vertical;exitX=0.25;exitY=1;exitDx=0;exitDy=0;" parent="1" source="CLw23MSYpjSKy58oMHuV-51" target="CLw23MSYpjSKy58oMHuV-61" edge="1">
          <mxGeometry x="-0.4866" y="9" relative="1" as="geometry">
            <mxPoint x="807" y="328" as="sourcePoint" />
            <mxPoint x="746" y="371" as="targetPoint" />
            <mxPoint y="1" as="offset" />
          </mxGeometry>
        </mxCell>
        <mxCell id="CLw23MSYpjSKy58oMHuV-71" value="MRI" style="edgeLabel;html=1;align=center;verticalAlign=middle;resizable=0;points=[];fontSize=13;fontColor=#FF0000;" parent="CLw23MSYpjSKy58oMHuV-70" vertex="1" connectable="0">
          <mxGeometry x="-0.1844" y="-1" relative="1" as="geometry">
            <mxPoint x="-13" y="-12" as="offset" />
          </mxGeometry>
        </mxCell>
        <mxCell id="CLw23MSYpjSKy58oMHuV-72" value="1" style="endArrow=openThin;html=1;endSize=12;startArrow=diamondThin;startSize=14;startFill=1;edgeStyle=orthogonalEdgeStyle;align=left;verticalAlign=bottom;rounded=0;endFill=0;exitX=0.75;exitY=1;exitDx=0;exitDy=0;fontSize=13;entryX=0.438;entryY=0.033;entryDx=0;entryDy=0;entryPerimeter=0;" parent="1" source="CLw23MSYpjSKy58oMHuV-51" target="CLw23MSYpjSKy58oMHuV-201" edge="1">
          <mxGeometry relative="1" as="geometry">
            <mxPoint x="857" y="282" as="sourcePoint" />
            <mxPoint x="1085" y="338" as="targetPoint" />
          </mxGeometry>
        </mxCell>
        <mxCell id="CLw23MSYpjSKy58oMHuV-73" value="MII" style="edgeLabel;html=1;align=center;verticalAlign=middle;resizable=0;points=[];fontSize=13;fontColor=#FF0000;" parent="CLw23MSYpjSKy58oMHuV-72" vertex="1" connectable="0">
          <mxGeometry x="-0.1844" y="-1" relative="1" as="geometry">
            <mxPoint x="-3" y="-2" as="offset" />
          </mxGeometry>
        </mxCell>
        <mxCell id="CLw23MSYpjSKy58oMHuV-76" value="TargetRegistry" style="swimlane;fontStyle=1;align=center;verticalAlign=middle;childLayout=stackLayout;horizontal=1;startSize=39;horizontalStack=0;resizeParent=1;resizeParentMax=0;resizeLast=0;collapsible=1;marginBottom=0;whiteSpace=wrap;html=1;fillColor=#e1d5e7;strokeColor=#9673a6;fontSize=13;" parent="1" vertex="1" collapsed="1">
          <mxGeometry x="-74" y="338" width="133" height="39" as="geometry">
            <mxRectangle x="390" y="220" width="160" height="56" as="alternateBounds" />
          </mxGeometry>
        </mxCell>
        <mxCell id="CLw23MSYpjSKy58oMHuV-77" value="+&amp;nbsp;&amp;nbsp;initAsmInfo()" style="text;strokeColor=none;fillColor=none;align=left;verticalAlign=top;spacingLeft=4;spacingRight=4;overflow=hidden;rotatable=0;points=[[0,0.5],[1,0.5]];portConstraint=eastwest;whiteSpace=wrap;html=1;" parent="CLw23MSYpjSKy58oMHuV-76" vertex="1">
          <mxGeometry y="30" width="160" height="26" as="geometry" />
        </mxCell>
        <mxCell id="CLw23MSYpjSKy58oMHuV-80" value="RegisterTarget()" style="html=1;verticalAlign=bottom;endArrow=block;edgeStyle=elbowEdgeStyle;elbow=vertical;curved=0;rounded=0;fontSize=13;entryX=0.25;entryY=0;entryDx=0;entryDy=0;exitX=0;exitY=0.25;exitDx=0;exitDy=0;" parent="1" source="CLw23MSYpjSKy58oMHuV-54" target="CLw23MSYpjSKy58oMHuV-76" edge="1">
          <mxGeometry x="0.0168" y="-6" width="80" relative="1" as="geometry">
            <mxPoint x="139" y="287" as="sourcePoint" />
            <mxPoint x="520" y="120" as="targetPoint" />
            <Array as="points">
              <mxPoint x="30" y="287" />
            </Array>
            <mxPoint as="offset" />
          </mxGeometry>
        </mxCell>
        <mxCell id="CLw23MSYpjSKy58oMHuV-81" value="MCAsmInfoELF" style="swimlane;fontStyle=1;align=center;verticalAlign=middle;childLayout=stackLayout;horizontal=1;startSize=30;horizontalStack=0;resizeParent=1;resizeParentMax=0;resizeLast=0;collapsible=1;marginBottom=0;whiteSpace=wrap;html=1;fillColor=#d5e8d4;strokeColor=#82b366;fontSize=13;" parent="1" vertex="1" collapsed="1">
          <mxGeometry x="694" y="143" width="160" height="30" as="geometry">
            <mxRectangle x="390" y="220" width="160" height="56" as="alternateBounds" />
          </mxGeometry>
        </mxCell>
        <mxCell id="CLw23MSYpjSKy58oMHuV-82" value="+&amp;nbsp;&amp;nbsp;initAsmInfo()" style="text;strokeColor=none;fillColor=none;align=left;verticalAlign=top;spacingLeft=4;spacingRight=4;overflow=hidden;rotatable=0;points=[[0,0.5],[1,0.5]];portConstraint=eastwest;whiteSpace=wrap;html=1;" parent="CLw23MSYpjSKy58oMHuV-81" vertex="1">
          <mxGeometry y="30" width="160" height="26" as="geometry" />
        </mxCell>
        <mxCell id="CLw23MSYpjSKy58oMHuV-84" value="X+MCAsmInfo" style="swimlane;fontStyle=1;align=center;verticalAlign=middle;childLayout=stackLayout;horizontal=1;startSize=30;horizontalStack=0;resizeParent=1;resizeParentMax=0;resizeLast=0;collapsible=1;marginBottom=0;whiteSpace=wrap;html=1;fillColor=#ffcccc;strokeColor=#36393d;fontSize=13;" parent="1" vertex="1" collapsed="1">
          <mxGeometry x="694" y="88" width="160" height="30" as="geometry">
            <mxRectangle x="390" y="220" width="160" height="56" as="alternateBounds" />
          </mxGeometry>
        </mxCell>
        <mxCell id="CLw23MSYpjSKy58oMHuV-85" value="+&amp;nbsp;&amp;nbsp;initAsmInfo()" style="text;strokeColor=none;fillColor=none;align=left;verticalAlign=top;spacingLeft=4;spacingRight=4;overflow=hidden;rotatable=0;points=[[0,0.5],[1,0.5]];portConstraint=eastwest;whiteSpace=wrap;html=1;" parent="CLw23MSYpjSKy58oMHuV-84" vertex="1">
          <mxGeometry y="30" width="160" height="26" as="geometry" />
        </mxCell>
        <mxCell id="CLw23MSYpjSKy58oMHuV-86" value="" style="endArrow=block;endSize=12;endFill=0;html=1;rounded=0;entryX=0.5;entryY=0;entryDx=0;entryDy=0;fontSize=13;exitX=0.5;exitY=1;exitDx=0;exitDy=0;" parent="1" source="CLw23MSYpjSKy58oMHuV-84" target="CLw23MSYpjSKy58oMHuV-81" edge="1">
          <mxGeometry width="160" relative="1" as="geometry">
            <mxPoint x="544" y="478" as="sourcePoint" />
            <mxPoint x="544" y="438" as="targetPoint" />
          </mxGeometry>
        </mxCell>
        <mxCell id="CLw23MSYpjSKy58oMHuV-87" value="" style="endArrow=block;endSize=12;endFill=0;html=1;rounded=0;entryX=0.5;entryY=0;entryDx=0;entryDy=0;fontSize=13;exitX=0.5;exitY=1;exitDx=0;exitDy=0;" parent="1" source="CLw23MSYpjSKy58oMHuV-81" target="CLw23MSYpjSKy58oMHuV-56" edge="1">
          <mxGeometry width="160" relative="1" as="geometry">
            <mxPoint x="784" y="108" as="sourcePoint" />
            <mxPoint x="784" y="148" as="targetPoint" />
          </mxGeometry>
        </mxCell>
        <mxCell id="CLw23MSYpjSKy58oMHuV-88" value="TargetRegisterInfo" style="swimlane;fontStyle=1;align=center;verticalAlign=middle;childLayout=stackLayout;horizontal=1;startSize=30;horizontalStack=0;resizeParent=1;resizeParentMax=0;resizeLast=0;collapsible=1;marginBottom=0;whiteSpace=wrap;html=1;fillColor=#d5e8d4;strokeColor=#82b366;fontSize=13;" parent="1" vertex="1" collapsed="1">
          <mxGeometry x="1048" y="693" width="160" height="30" as="geometry">
            <mxRectangle x="390" y="220" width="160" height="56" as="alternateBounds" />
          </mxGeometry>
        </mxCell>
        <mxCell id="CLw23MSYpjSKy58oMHuV-89" value="+&amp;nbsp;&amp;nbsp;initAsmInfo()" style="text;strokeColor=none;fillColor=none;align=left;verticalAlign=top;spacingLeft=4;spacingRight=4;overflow=hidden;rotatable=0;points=[[0,0.5],[1,0.5]];portConstraint=eastwest;whiteSpace=wrap;html=1;" parent="CLw23MSYpjSKy58oMHuV-88" vertex="1">
          <mxGeometry y="30" width="160" height="26" as="geometry" />
        </mxCell>
        <mxCell id="CLw23MSYpjSKy58oMHuV-90" value="" style="endArrow=block;endSize=12;endFill=0;html=1;rounded=0;fontSize=13;entryX=0.5;entryY=0;entryDx=0;entryDy=0;" parent="1" source="CLw23MSYpjSKy58oMHuV-88" target="CLw23MSYpjSKy58oMHuV-203" edge="1">
          <mxGeometry width="160" relative="1" as="geometry">
            <mxPoint x="492" y="406" as="sourcePoint" />
            <mxPoint x="1119" y="753" as="targetPoint" />
          </mxGeometry>
        </mxCell>
        <mxCell id="CLw23MSYpjSKy58oMHuV-91" value="TargetInstrInfo" style="swimlane;fontStyle=1;align=center;verticalAlign=middle;childLayout=stackLayout;horizontal=1;startSize=30;horizontalStack=0;resizeParent=1;resizeParentMax=0;resizeLast=0;collapsible=1;marginBottom=0;whiteSpace=wrap;html=1;fillColor=#d5e8d4;strokeColor=#82b366;fontSize=13;" parent="1" vertex="1" collapsed="1">
          <mxGeometry x="829" y="693" width="160" height="30" as="geometry">
            <mxRectangle x="390" y="220" width="160" height="56" as="alternateBounds" />
          </mxGeometry>
        </mxCell>
        <mxCell id="CLw23MSYpjSKy58oMHuV-92" value="+&amp;nbsp;&amp;nbsp;initAsmInfo()" style="text;strokeColor=none;fillColor=none;align=left;verticalAlign=top;spacingLeft=4;spacingRight=4;overflow=hidden;rotatable=0;points=[[0,0.5],[1,0.5]];portConstraint=eastwest;whiteSpace=wrap;html=1;" parent="CLw23MSYpjSKy58oMHuV-91" vertex="1">
          <mxGeometry y="30" width="160" height="26" as="geometry" />
        </mxCell>
        <mxCell id="CLw23MSYpjSKy58oMHuV-95" value="X+GenRegisterInfo" style="swimlane;fontStyle=1;align=center;verticalAlign=middle;childLayout=stackLayout;horizontal=1;startSize=30;horizontalStack=0;resizeParent=1;resizeParentMax=0;resizeLast=0;collapsible=1;marginBottom=0;whiteSpace=wrap;html=1;fillColor=#fff2cc;strokeColor=#d6b656;fontSize=13;" parent="1" vertex="1" collapsed="1">
          <mxGeometry x="1048" y="636" width="160" height="30" as="geometry">
            <mxRectangle x="390" y="220" width="160" height="56" as="alternateBounds" />
          </mxGeometry>
        </mxCell>
        <mxCell id="CLw23MSYpjSKy58oMHuV-96" value="+&amp;nbsp;&amp;nbsp;initAsmInfo()" style="text;strokeColor=none;fillColor=none;align=left;verticalAlign=top;spacingLeft=4;spacingRight=4;overflow=hidden;rotatable=0;points=[[0,0.5],[1,0.5]];portConstraint=eastwest;whiteSpace=wrap;html=1;" parent="CLw23MSYpjSKy58oMHuV-95" vertex="1">
          <mxGeometry y="30" width="160" height="26" as="geometry" />
        </mxCell>
        <mxCell id="CLw23MSYpjSKy58oMHuV-97" value="" style="endArrow=block;endSize=12;endFill=0;html=1;rounded=0;fontSize=13;" parent="1" source="CLw23MSYpjSKy58oMHuV-95" target="CLw23MSYpjSKy58oMHuV-88" edge="1">
          <mxGeometry width="160" relative="1" as="geometry">
            <mxPoint x="492" y="336" as="sourcePoint" />
            <mxPoint x="722" y="373" as="targetPoint" />
          </mxGeometry>
        </mxCell>
        <mxCell id="CLw23MSYpjSKy58oMHuV-98" value="" style="endArrow=block;endSize=12;endFill=0;html=1;rounded=0;fontSize=13;exitX=0.5;exitY=1;exitDx=0;exitDy=0;" parent="1" source="CLw23MSYpjSKy58oMHuV-91" target="CLw23MSYpjSKy58oMHuV-63" edge="1">
          <mxGeometry width="160" relative="1" as="geometry">
            <mxPoint x="889" y="143" as="sourcePoint" />
            <mxPoint x="889" y="183" as="targetPoint" />
          </mxGeometry>
        </mxCell>
        <mxCell id="CLw23MSYpjSKy58oMHuV-99" value="X+GenInstrInfo" style="swimlane;fontStyle=1;align=center;verticalAlign=middle;childLayout=stackLayout;horizontal=1;startSize=30;horizontalStack=0;resizeParent=1;resizeParentMax=0;resizeLast=0;collapsible=1;marginBottom=0;whiteSpace=wrap;html=1;fillColor=#fff2cc;strokeColor=#d6b656;fontSize=13;" parent="1" vertex="1" collapsed="1">
          <mxGeometry x="829" y="636" width="160" height="30" as="geometry">
            <mxRectangle x="390" y="220" width="160" height="56" as="alternateBounds" />
          </mxGeometry>
        </mxCell>
        <mxCell id="CLw23MSYpjSKy58oMHuV-100" value="+&amp;nbsp;&amp;nbsp;initAsmInfo()" style="text;strokeColor=none;fillColor=none;align=left;verticalAlign=top;spacingLeft=4;spacingRight=4;overflow=hidden;rotatable=0;points=[[0,0.5],[1,0.5]];portConstraint=eastwest;whiteSpace=wrap;html=1;" parent="CLw23MSYpjSKy58oMHuV-99" vertex="1">
          <mxGeometry y="30" width="160" height="26" as="geometry" />
        </mxCell>
        <mxCell id="CLw23MSYpjSKy58oMHuV-101" value="" style="endArrow=block;endSize=12;endFill=0;html=1;rounded=0;fontSize=13;entryX=0.5;entryY=0;entryDx=0;entryDy=0;exitX=0.5;exitY=1;exitDx=0;exitDy=0;" parent="1" source="CLw23MSYpjSKy58oMHuV-99" target="CLw23MSYpjSKy58oMHuV-91" edge="1">
          <mxGeometry width="160" relative="1" as="geometry">
            <mxPoint x="909" y="686" as="sourcePoint" />
            <mxPoint x="871" y="450" as="targetPoint" />
          </mxGeometry>
        </mxCell>
        <mxCell id="CLw23MSYpjSKy58oMHuV-102" value="X+RegisterInfo" style="swimlane;fontStyle=1;align=center;verticalAlign=middle;childLayout=stackLayout;horizontal=1;startSize=30;horizontalStack=0;resizeParent=1;resizeParentMax=0;resizeLast=0;collapsible=1;marginBottom=0;whiteSpace=wrap;html=1;fillColor=#ffcccc;strokeColor=#36393d;fontSize=13;" parent="1" vertex="1" collapsed="1">
          <mxGeometry x="1048" y="579" width="160" height="30" as="geometry">
            <mxRectangle x="390" y="220" width="160" height="56" as="alternateBounds" />
          </mxGeometry>
        </mxCell>
        <mxCell id="CLw23MSYpjSKy58oMHuV-103" value="+&amp;nbsp;&amp;nbsp;initAsmInfo()" style="text;strokeColor=none;fillColor=none;align=left;verticalAlign=top;spacingLeft=4;spacingRight=4;overflow=hidden;rotatable=0;points=[[0,0.5],[1,0.5]];portConstraint=eastwest;whiteSpace=wrap;html=1;" parent="CLw23MSYpjSKy58oMHuV-102" vertex="1">
          <mxGeometry y="30" width="160" height="26" as="geometry" />
        </mxCell>
        <mxCell id="CLw23MSYpjSKy58oMHuV-104" value="X+InstrInfo" style="swimlane;fontStyle=1;align=center;verticalAlign=middle;childLayout=stackLayout;horizontal=1;startSize=30;horizontalStack=0;resizeParent=1;resizeParentMax=0;resizeLast=0;collapsible=1;marginBottom=0;whiteSpace=wrap;html=1;fillColor=#ffcccc;strokeColor=#36393d;fontSize=13;" parent="1" vertex="1" collapsed="1">
          <mxGeometry x="829" y="579" width="160" height="30" as="geometry">
            <mxRectangle x="390" y="220" width="160" height="56" as="alternateBounds" />
          </mxGeometry>
        </mxCell>
        <mxCell id="CLw23MSYpjSKy58oMHuV-105" value="+&amp;nbsp;&amp;nbsp;initAsmInfo()" style="text;strokeColor=none;fillColor=none;align=left;verticalAlign=top;spacingLeft=4;spacingRight=4;overflow=hidden;rotatable=0;points=[[0,0.5],[1,0.5]];portConstraint=eastwest;whiteSpace=wrap;html=1;" parent="CLw23MSYpjSKy58oMHuV-104" vertex="1">
          <mxGeometry y="30" width="160" height="26" as="geometry" />
        </mxCell>
        <mxCell id="CLw23MSYpjSKy58oMHuV-106" value="" style="endArrow=block;endSize=12;endFill=0;html=1;rounded=0;fontSize=13;exitX=0.5;exitY=1;exitDx=0;exitDy=0;" parent="1" source="CLw23MSYpjSKy58oMHuV-104" target="CLw23MSYpjSKy58oMHuV-99" edge="1">
          <mxGeometry width="160" relative="1" as="geometry">
            <mxPoint x="881" y="473" as="sourcePoint" />
            <mxPoint x="905" y="667" as="targetPoint" />
          </mxGeometry>
        </mxCell>
        <mxCell id="CLw23MSYpjSKy58oMHuV-107" value="" style="endArrow=block;endSize=12;endFill=0;html=1;rounded=0;fontSize=13;" parent="1" source="CLw23MSYpjSKy58oMHuV-102" target="CLw23MSYpjSKy58oMHuV-95" edge="1">
          <mxGeometry width="160" relative="1" as="geometry">
            <mxPoint x="721.5" y="406" as="sourcePoint" />
            <mxPoint x="721.5" y="436" as="targetPoint" />
          </mxGeometry>
        </mxCell>
        <mxCell id="CLw23MSYpjSKy58oMHuV-111" value="X+GenMCSubtargetInfo" style="swimlane;fontStyle=1;align=center;verticalAlign=middle;childLayout=stackLayout;horizontal=1;startSize=30;horizontalStack=0;resizeParent=1;resizeParentMax=0;resizeLast=0;collapsible=1;marginBottom=0;whiteSpace=wrap;html=1;fillColor=#fff2cc;strokeColor=#d6b656;fontSize=13;" parent="1" vertex="1" collapsed="1">
          <mxGeometry x="886" y="131" width="179" height="30" as="geometry">
            <mxRectangle x="390" y="220" width="160" height="56" as="alternateBounds" />
          </mxGeometry>
        </mxCell>
        <mxCell id="CLw23MSYpjSKy58oMHuV-112" value="+&amp;nbsp;&amp;nbsp;initAsmInfo()" style="text;strokeColor=none;fillColor=none;align=left;verticalAlign=top;spacingLeft=4;spacingRight=4;overflow=hidden;rotatable=0;points=[[0,0.5],[1,0.5]];portConstraint=eastwest;whiteSpace=wrap;html=1;" parent="CLw23MSYpjSKy58oMHuV-111" vertex="1">
          <mxGeometry y="30" width="160" height="26" as="geometry" />
        </mxCell>
        <mxCell id="CLw23MSYpjSKy58oMHuV-114" value="X+PassConfig" style="swimlane;fontStyle=1;align=center;verticalAlign=middle;childLayout=stackLayout;horizontal=1;startSize=30;horizontalStack=0;resizeParent=1;resizeParentMax=0;resizeLast=0;collapsible=1;marginBottom=0;whiteSpace=wrap;html=1;fillColor=#ffcccc;strokeColor=#36393d;fontSize=13;" parent="1" vertex="1" collapsed="1">
          <mxGeometry x="245" y="-566" width="160" height="30" as="geometry">
            <mxRectangle x="390" y="220" width="160" height="56" as="alternateBounds" />
          </mxGeometry>
        </mxCell>
        <mxCell id="CLw23MSYpjSKy58oMHuV-115" value="+&amp;nbsp;&amp;nbsp;initAsmInfo()" style="text;strokeColor=none;fillColor=none;align=left;verticalAlign=top;spacingLeft=4;spacingRight=4;overflow=hidden;rotatable=0;points=[[0,0.5],[1,0.5]];portConstraint=eastwest;whiteSpace=wrap;html=1;" parent="CLw23MSYpjSKy58oMHuV-114" vertex="1">
          <mxGeometry y="30" width="160" height="26" as="geometry" />
        </mxCell>
        <mxCell id="CLw23MSYpjSKy58oMHuV-129" value="1" style="endArrow=open;html=1;endSize=12;startArrow=diamondThin;startSize=14;startFill=0;edgeStyle=orthogonalEdgeStyle;align=left;verticalAlign=bottom;rounded=0;exitX=1;exitY=0.75;exitDx=0;exitDy=0;entryX=0;entryY=0.75;entryDx=0;entryDy=0;fontSize=13;" parent="1" source="CLw23MSYpjSKy58oMHuV-54" target="CLw23MSYpjSKy58oMHuV-45" edge="1">
          <mxGeometry x="-1" y="-27" relative="1" as="geometry">
            <mxPoint x="538" y="365" as="sourcePoint" />
            <mxPoint x="698" y="365" as="targetPoint" />
            <mxPoint x="-2" as="offset" />
          </mxGeometry>
        </mxCell>
        <mxCell id="CLw23MSYpjSKy58oMHuV-130" value="TargetMachineCtorFn" style="edgeLabel;html=1;align=center;verticalAlign=middle;resizable=0;points=[];fontSize=13;" parent="CLw23MSYpjSKy58oMHuV-129" vertex="1" connectable="0">
          <mxGeometry x="-0.0523" y="2" relative="1" as="geometry">
            <mxPoint x="7" y="17" as="offset" />
          </mxGeometry>
        </mxCell>
        <mxCell id="CLw23MSYpjSKy58oMHuV-131" value="legacy::PassManager" style="swimlane;fontStyle=1;align=center;verticalAlign=middle;childLayout=stackLayout;horizontal=1;startSize=54;horizontalStack=0;resizeParent=1;resizeParentMax=0;resizeLast=0;collapsible=1;marginBottom=0;whiteSpace=wrap;html=1;fillColor=#d5e8d4;strokeColor=#82b366;fontSize=13;points=[[0,0,0,0,0],[0,0.25,0,0,0],[0,0.5,0,0,0],[0,0.75,0,0,0],[0,1,0,0,0],[0.25,0,0,0,0],[0.25,1,0,0,0],[0.5,0,0,0,0],[0.5,1,0,0,0],[0.75,0,0,0,0],[0.75,1,0,0,0],[1,0,0,0,0],[1,0.25,0,0,0],[1,0.43,0,0,0],[1,0.59,0,0,0],[1,0.75,0,0,0],[1,1,0,0,0]];" parent="1" vertex="1" collapsed="1">
          <mxGeometry x="-101" y="-386" width="160" height="54" as="geometry">
            <mxRectangle x="390" y="220" width="160" height="56" as="alternateBounds" />
          </mxGeometry>
        </mxCell>
        <mxCell id="CLw23MSYpjSKy58oMHuV-132" value="+&amp;nbsp;&amp;nbsp;initAsmInfo()" style="text;strokeColor=none;fillColor=none;align=left;verticalAlign=top;spacingLeft=4;spacingRight=4;overflow=hidden;rotatable=0;points=[[0,0.5],[1,0.5]];portConstraint=eastwest;whiteSpace=wrap;html=1;" parent="CLw23MSYpjSKy58oMHuV-131" vertex="1">
          <mxGeometry y="30" width="160" height="26" as="geometry" />
        </mxCell>
        <mxCell id="CLw23MSYpjSKy58oMHuV-133" value="1" style="endArrow=open;html=1;endSize=12;startArrow=diamondThin;startSize=14;startFill=0;edgeStyle=orthogonalEdgeStyle;align=left;verticalAlign=bottom;rounded=0;entryX=1;entryY=0.25;entryDx=0;entryDy=0;exitX=0;exitY=0.25;exitDx=0;exitDy=0;fontSize=13;" parent="1" source="CLw23MSYpjSKy58oMHuV-45" target="CLw23MSYpjSKy58oMHuV-54" edge="1">
          <mxGeometry x="-0.7325" y="-7" relative="1" as="geometry">
            <mxPoint x="459" y="402" as="sourcePoint" />
            <mxPoint x="619" y="402" as="targetPoint" />
            <mxPoint as="offset" />
          </mxGeometry>
        </mxCell>
        <mxCell id="CLw23MSYpjSKy58oMHuV-134" value="TheTarget" style="edgeLabel;html=1;align=center;verticalAlign=middle;resizable=0;points=[];fontSize=13;" parent="CLw23MSYpjSKy58oMHuV-133" vertex="1" connectable="0">
          <mxGeometry x="0.1976" y="-2" relative="1" as="geometry">
            <mxPoint x="10" y="-9" as="offset" />
          </mxGeometry>
        </mxCell>
        <mxCell id="CLw23MSYpjSKy58oMHuV-136" value="N" style="endArrow=openThin;html=1;endSize=12;startArrow=diamondThin;startSize=14;startFill=1;edgeStyle=orthogonalEdgeStyle;align=left;verticalAlign=bottom;rounded=0;endFill=0;exitX=0.75;exitY=0;exitDx=0;exitDy=0;fontSize=13;entryX=0;entryY=0.75;entryDx=0;entryDy=0;" parent="1" source="CLw23MSYpjSKy58oMHuV-76" target="CLw23MSYpjSKy58oMHuV-54" edge="1">
          <mxGeometry x="-1" y="20" relative="1" as="geometry">
            <mxPoint x="25.75" y="369" as="sourcePoint" />
            <mxPoint x="162" y="515" as="targetPoint" />
            <mxPoint as="offset" />
          </mxGeometry>
        </mxCell>
        <mxCell id="CLw23MSYpjSKy58oMHuV-138" value="Targets" style="edgeLabel;html=1;align=center;verticalAlign=middle;resizable=0;points=[];fontSize=13;" parent="CLw23MSYpjSKy58oMHuV-136" vertex="1" connectable="0">
          <mxGeometry x="0.0184" y="-1" relative="1" as="geometry">
            <mxPoint y="10" as="offset" />
          </mxGeometry>
        </mxCell>
        <mxCell id="CLw23MSYpjSKy58oMHuV-144" value="MCSubtargetInfo" style="swimlane;fontStyle=1;align=center;verticalAlign=middle;childLayout=stackLayout;horizontal=1;startSize=30;horizontalStack=0;resizeParent=1;resizeParentMax=0;resizeLast=0;collapsible=1;marginBottom=0;whiteSpace=wrap;html=1;fillColor=#d5e8d4;strokeColor=#82b366;fontSize=13;" parent="1" vertex="1" collapsed="1">
          <mxGeometry x="465" y="728" width="160" height="30" as="geometry">
            <mxRectangle x="390" y="220" width="160" height="56" as="alternateBounds" />
          </mxGeometry>
        </mxCell>
        <mxCell id="CLw23MSYpjSKy58oMHuV-145" value="+&amp;nbsp;&amp;nbsp;initAsmInfo()" style="text;strokeColor=none;fillColor=none;align=left;verticalAlign=top;spacingLeft=4;spacingRight=4;overflow=hidden;rotatable=0;points=[[0,0.5],[1,0.5]];portConstraint=eastwest;whiteSpace=wrap;html=1;" parent="CLw23MSYpjSKy58oMHuV-144" vertex="1">
          <mxGeometry y="30" width="160" height="26" as="geometry" />
        </mxCell>
        <mxCell id="CLw23MSYpjSKy58oMHuV-146" value="TargetSubtargetInfo" style="swimlane;fontStyle=1;align=center;verticalAlign=middle;childLayout=stackLayout;horizontal=1;startSize=30;horizontalStack=0;resizeParent=1;resizeParentMax=0;resizeLast=0;collapsible=1;marginBottom=0;whiteSpace=wrap;html=1;fillColor=#d5e8d4;strokeColor=#82b366;fontSize=13;" parent="1" vertex="1" collapsed="1">
          <mxGeometry x="465" y="665" width="160" height="30" as="geometry">
            <mxRectangle x="390" y="220" width="160" height="56" as="alternateBounds" />
          </mxGeometry>
        </mxCell>
        <mxCell id="CLw23MSYpjSKy58oMHuV-147" value="+&amp;nbsp;&amp;nbsp;initAsmInfo()" style="text;strokeColor=none;fillColor=none;align=left;verticalAlign=top;spacingLeft=4;spacingRight=4;overflow=hidden;rotatable=0;points=[[0,0.5],[1,0.5]];portConstraint=eastwest;whiteSpace=wrap;html=1;" parent="CLw23MSYpjSKy58oMHuV-146" vertex="1">
          <mxGeometry y="30" width="160" height="26" as="geometry" />
        </mxCell>
        <mxCell id="CLw23MSYpjSKy58oMHuV-148" value="" style="endArrow=block;endSize=12;endFill=0;html=1;rounded=0;fontSize=13;exitX=0.5;exitY=1;exitDx=0;exitDy=0;entryX=0.5;entryY=0;entryDx=0;entryDy=0;" parent="1" source="CLw23MSYpjSKy58oMHuV-146" target="CLw23MSYpjSKy58oMHuV-144" edge="1">
          <mxGeometry width="160" relative="1" as="geometry">
            <mxPoint x="535" y="385" as="sourcePoint" />
            <mxPoint x="545" y="545" as="targetPoint" />
          </mxGeometry>
        </mxCell>
        <mxCell id="CLw23MSYpjSKy58oMHuV-149" value="X+GenSubtargetInfo" style="swimlane;fontStyle=1;align=center;verticalAlign=middle;childLayout=stackLayout;horizontal=1;startSize=30;horizontalStack=0;resizeParent=1;resizeParentMax=0;resizeLast=0;collapsible=1;marginBottom=0;whiteSpace=wrap;html=1;fillColor=#fff2cc;strokeColor=#d6b656;fontSize=13;" parent="1" vertex="1" collapsed="1">
          <mxGeometry x="465" y="607" width="160" height="30" as="geometry">
            <mxRectangle x="390" y="220" width="160" height="56" as="alternateBounds" />
          </mxGeometry>
        </mxCell>
        <mxCell id="CLw23MSYpjSKy58oMHuV-150" value="+&amp;nbsp;&amp;nbsp;initAsmInfo()" style="text;strokeColor=none;fillColor=none;align=left;verticalAlign=top;spacingLeft=4;spacingRight=4;overflow=hidden;rotatable=0;points=[[0,0.5],[1,0.5]];portConstraint=eastwest;whiteSpace=wrap;html=1;" parent="CLw23MSYpjSKy58oMHuV-149" vertex="1">
          <mxGeometry y="30" width="160" height="26" as="geometry" />
        </mxCell>
        <mxCell id="CLw23MSYpjSKy58oMHuV-151" value="" style="endArrow=block;endSize=12;endFill=0;html=1;rounded=0;fontSize=13;entryX=0.5;entryY=0;entryDx=0;entryDy=0;exitX=0.5;exitY=1;exitDx=0;exitDy=0;" parent="1" source="CLw23MSYpjSKy58oMHuV-149" target="CLw23MSYpjSKy58oMHuV-146" edge="1">
          <mxGeometry width="160" relative="1" as="geometry">
            <mxPoint x="535" y="455" as="sourcePoint" />
            <mxPoint x="545" y="615" as="targetPoint" />
          </mxGeometry>
        </mxCell>
        <mxCell id="CLw23MSYpjSKy58oMHuV-154" value="" style="endArrow=block;endSize=12;endFill=0;html=1;rounded=0;fontSize=13;exitX=0.5;exitY=1;exitDx=0;exitDy=0;entryX=0.5;entryY=0;entryDx=0;entryDy=0;" parent="1" source="CLw23MSYpjSKy58oMHuV-38" target="CLw23MSYpjSKy58oMHuV-149" edge="1">
          <mxGeometry width="160" relative="1" as="geometry">
            <mxPoint x="545" y="685" as="sourcePoint" />
            <mxPoint x="545" y="635" as="targetPoint" />
          </mxGeometry>
        </mxCell>
        <mxCell id="CLw23MSYpjSKy58oMHuV-167" value="X+TargetLowering" style="swimlane;fontStyle=1;align=center;verticalAlign=middle;childLayout=stackLayout;horizontal=1;startSize=30;horizontalStack=0;resizeParent=1;resizeParentMax=0;resizeLast=0;collapsible=1;marginBottom=0;whiteSpace=wrap;html=1;fillColor=#f8cecc;strokeColor=#b85450;fontSize=13;" parent="1" vertex="1" collapsed="1">
          <mxGeometry x="284" y="585" width="160" height="30" as="geometry">
            <mxRectangle x="240" y="400" width="160" height="90" as="alternateBounds" />
          </mxGeometry>
        </mxCell>
        <mxCell id="CLw23MSYpjSKy58oMHuV-168" value="+&amp;nbsp;" style="text;strokeColor=none;fillColor=none;align=left;verticalAlign=top;spacingLeft=4;spacingRight=4;overflow=hidden;rotatable=0;points=[[0,0.5],[1,0.5]];portConstraint=eastwest;whiteSpace=wrap;html=1;" parent="CLw23MSYpjSKy58oMHuV-167" vertex="1">
          <mxGeometry y="30" width="160" height="26" as="geometry" />
        </mxCell>
        <mxCell id="CLw23MSYpjSKy58oMHuV-169" value="" style="line;strokeWidth=1;fillColor=none;align=left;verticalAlign=middle;spacingTop=-1;spacingLeft=3;spacingRight=3;rotatable=0;labelPosition=right;points=[];portConstraint=eastwest;strokeColor=inherit;" parent="CLw23MSYpjSKy58oMHuV-167" vertex="1">
          <mxGeometry y="56" width="160" height="8" as="geometry" />
        </mxCell>
        <mxCell id="CLw23MSYpjSKy58oMHuV-170" value="+&amp;nbsp;" style="text;strokeColor=none;fillColor=none;align=left;verticalAlign=top;spacingLeft=4;spacingRight=4;overflow=hidden;rotatable=0;points=[[0,0.5],[1,0.5]];portConstraint=eastwest;whiteSpace=wrap;html=1;" parent="CLw23MSYpjSKy58oMHuV-167" vertex="1">
          <mxGeometry y="64" width="160" height="26" as="geometry" />
        </mxCell>
        <mxCell id="CLw23MSYpjSKy58oMHuV-171" value="1" style="endArrow=openThin;html=1;endSize=12;startArrow=diamondThin;startSize=14;startFill=1;edgeStyle=orthogonalEdgeStyle;align=left;verticalAlign=bottom;rounded=0;endFill=0;entryX=0.5;entryY=0;entryDx=0;entryDy=0;exitX=0;exitY=0.75;exitDx=0;exitDy=0;fontSize=13;" parent="1" target="CLw23MSYpjSKy58oMHuV-167" edge="1">
          <mxGeometry x="-0.7282" relative="1" as="geometry">
            <mxPoint x="465" y="553" as="sourcePoint" />
            <mxPoint x="305" y="573" as="targetPoint" />
            <mxPoint as="offset" />
          </mxGeometry>
        </mxCell>
        <mxCell id="CLw23MSYpjSKy58oMHuV-172" value="TLInfo" style="edgeLabel;html=1;align=center;verticalAlign=middle;resizable=0;points=[];fontSize=13;" parent="CLw23MSYpjSKy58oMHuV-171" vertex="1" connectable="0">
          <mxGeometry x="-0.1844" y="-1" relative="1" as="geometry">
            <mxPoint x="-2" y="-1" as="offset" />
          </mxGeometry>
        </mxCell>
        <mxCell id="CLw23MSYpjSKy58oMHuV-173" value="MCObjectFileInfo" style="swimlane;fontStyle=1;align=center;verticalAlign=middle;childLayout=stackLayout;horizontal=1;startSize=40;horizontalStack=0;resizeParent=1;resizeParentMax=0;resizeLast=0;collapsible=1;marginBottom=0;whiteSpace=wrap;html=1;fillColor=#d5e8d4;strokeColor=#82b366;fontSize=13;" parent="1" vertex="1" collapsed="1">
          <mxGeometry x="98" y="599" width="160" height="30" as="geometry">
            <mxRectangle x="50" y="60" width="200" height="100" as="alternateBounds" />
          </mxGeometry>
        </mxCell>
        <mxCell id="CLw23MSYpjSKy58oMHuV-174" value="+&amp;nbsp;" style="text;strokeColor=none;fillColor=none;align=left;verticalAlign=top;spacingLeft=4;spacingRight=4;overflow=hidden;rotatable=0;points=[[0,0.5],[1,0.5]];portConstraint=eastwest;whiteSpace=wrap;html=1;" parent="CLw23MSYpjSKy58oMHuV-173" vertex="1">
          <mxGeometry y="40" width="200" height="26" as="geometry" />
        </mxCell>
        <mxCell id="CLw23MSYpjSKy58oMHuV-175" value="" style="line;strokeWidth=1;fillColor=none;align=left;verticalAlign=middle;spacingTop=-1;spacingLeft=3;spacingRight=3;rotatable=0;labelPosition=right;points=[];portConstraint=eastwest;strokeColor=inherit;" parent="CLw23MSYpjSKy58oMHuV-173" vertex="1">
          <mxGeometry y="66" width="200" height="8" as="geometry" />
        </mxCell>
        <mxCell id="CLw23MSYpjSKy58oMHuV-176" value="+&amp;nbsp;" style="text;strokeColor=none;fillColor=none;align=left;verticalAlign=top;spacingLeft=4;spacingRight=4;overflow=hidden;rotatable=0;points=[[0,0.5],[1,0.5]];portConstraint=eastwest;whiteSpace=wrap;html=1;" parent="CLw23MSYpjSKy58oMHuV-173" vertex="1">
          <mxGeometry y="74" width="200" height="26" as="geometry" />
        </mxCell>
        <mxCell id="CLw23MSYpjSKy58oMHuV-177" value="TargetLowering" style="swimlane;fontStyle=1;align=center;verticalAlign=middle;childLayout=stackLayout;horizontal=1;startSize=40;horizontalStack=0;resizeParent=1;resizeParentMax=0;resizeLast=0;collapsible=1;marginBottom=0;whiteSpace=wrap;html=1;fillColor=#d5e8d4;strokeColor=#82b366;fontSize=13;" parent="1" vertex="1" collapsed="1">
          <mxGeometry x="284" y="650" width="160" height="30" as="geometry">
            <mxRectangle x="50" y="60" width="200" height="100" as="alternateBounds" />
          </mxGeometry>
        </mxCell>
        <mxCell id="CLw23MSYpjSKy58oMHuV-178" value="+&amp;nbsp;" style="text;strokeColor=none;fillColor=none;align=left;verticalAlign=top;spacingLeft=4;spacingRight=4;overflow=hidden;rotatable=0;points=[[0,0.5],[1,0.5]];portConstraint=eastwest;whiteSpace=wrap;html=1;" parent="CLw23MSYpjSKy58oMHuV-177" vertex="1">
          <mxGeometry y="40" width="200" height="26" as="geometry" />
        </mxCell>
        <mxCell id="CLw23MSYpjSKy58oMHuV-179" value="" style="line;strokeWidth=1;fillColor=none;align=left;verticalAlign=middle;spacingTop=-1;spacingLeft=3;spacingRight=3;rotatable=0;labelPosition=right;points=[];portConstraint=eastwest;strokeColor=inherit;" parent="CLw23MSYpjSKy58oMHuV-177" vertex="1">
          <mxGeometry y="66" width="200" height="8" as="geometry" />
        </mxCell>
        <mxCell id="CLw23MSYpjSKy58oMHuV-180" value="+&amp;nbsp;" style="text;strokeColor=none;fillColor=none;align=left;verticalAlign=top;spacingLeft=4;spacingRight=4;overflow=hidden;rotatable=0;points=[[0,0.5],[1,0.5]];portConstraint=eastwest;whiteSpace=wrap;html=1;" parent="CLw23MSYpjSKy58oMHuV-177" vertex="1">
          <mxGeometry y="74" width="200" height="26" as="geometry" />
        </mxCell>
        <mxCell id="CLw23MSYpjSKy58oMHuV-181" value="" style="endArrow=block;endSize=12;endFill=0;html=1;rounded=0;fontSize=13;exitX=0.5;exitY=1;exitDx=0;exitDy=0;entryX=0.5;entryY=0;entryDx=0;entryDy=0;" parent="1" source="CLw23MSYpjSKy58oMHuV-167" target="CLw23MSYpjSKy58oMHuV-177" edge="1">
          <mxGeometry width="160" relative="1" as="geometry">
            <mxPoint x="566" y="579" as="sourcePoint" />
            <mxPoint x="566" y="617" as="targetPoint" />
          </mxGeometry>
        </mxCell>
        <mxCell id="CLw23MSYpjSKy58oMHuV-182" value="X+FrameLowering" style="swimlane;fontStyle=1;align=center;verticalAlign=middle;childLayout=stackLayout;horizontal=1;startSize=30;horizontalStack=0;resizeParent=1;resizeParentMax=0;resizeLast=0;collapsible=1;marginBottom=0;whiteSpace=wrap;html=1;fillColor=#f8cecc;strokeColor=#b85450;fontSize=13;" parent="1" vertex="1" collapsed="1">
          <mxGeometry x="641" y="584" width="160" height="30" as="geometry">
            <mxRectangle x="240" y="400" width="160" height="90" as="alternateBounds" />
          </mxGeometry>
        </mxCell>
        <mxCell id="CLw23MSYpjSKy58oMHuV-183" value="+&amp;nbsp;" style="text;strokeColor=none;fillColor=none;align=left;verticalAlign=top;spacingLeft=4;spacingRight=4;overflow=hidden;rotatable=0;points=[[0,0.5],[1,0.5]];portConstraint=eastwest;whiteSpace=wrap;html=1;" parent="CLw23MSYpjSKy58oMHuV-182" vertex="1">
          <mxGeometry y="30" width="160" height="26" as="geometry" />
        </mxCell>
        <mxCell id="CLw23MSYpjSKy58oMHuV-184" value="" style="line;strokeWidth=1;fillColor=none;align=left;verticalAlign=middle;spacingTop=-1;spacingLeft=3;spacingRight=3;rotatable=0;labelPosition=right;points=[];portConstraint=eastwest;strokeColor=inherit;" parent="CLw23MSYpjSKy58oMHuV-182" vertex="1">
          <mxGeometry y="56" width="160" height="8" as="geometry" />
        </mxCell>
        <mxCell id="CLw23MSYpjSKy58oMHuV-185" value="+&amp;nbsp;" style="text;strokeColor=none;fillColor=none;align=left;verticalAlign=top;spacingLeft=4;spacingRight=4;overflow=hidden;rotatable=0;points=[[0,0.5],[1,0.5]];portConstraint=eastwest;whiteSpace=wrap;html=1;" parent="CLw23MSYpjSKy58oMHuV-182" vertex="1">
          <mxGeometry y="64" width="160" height="26" as="geometry" />
        </mxCell>
        <mxCell id="CLw23MSYpjSKy58oMHuV-186" value="1" style="endArrow=openThin;html=1;endSize=12;startArrow=diamondThin;startSize=14;startFill=1;edgeStyle=orthogonalEdgeStyle;align=left;verticalAlign=bottom;rounded=0;endFill=0;entryX=0.5;entryY=0;entryDx=0;entryDy=0;fontSize=13;" parent="1" source="CLw23MSYpjSKy58oMHuV-38" target="CLw23MSYpjSKy58oMHuV-182" edge="1">
          <mxGeometry x="-0.8413" relative="1" as="geometry">
            <mxPoint x="854" y="547" as="sourcePoint" />
            <mxPoint x="742" y="579" as="targetPoint" />
            <mxPoint as="offset" />
          </mxGeometry>
        </mxCell>
        <mxCell id="CLw23MSYpjSKy58oMHuV-187" value="FLInfo" style="edgeLabel;html=1;align=center;verticalAlign=middle;resizable=0;points=[];fontSize=13;" parent="CLw23MSYpjSKy58oMHuV-186" vertex="1" connectable="0">
          <mxGeometry x="-0.1844" y="-1" relative="1" as="geometry">
            <mxPoint x="18" y="17" as="offset" />
          </mxGeometry>
        </mxCell>
        <mxCell id="CLw23MSYpjSKy58oMHuV-188" value="TargetFrameLowering" style="swimlane;fontStyle=1;align=center;verticalAlign=middle;childLayout=stackLayout;horizontal=1;startSize=40;horizontalStack=0;resizeParent=1;resizeParentMax=0;resizeLast=0;collapsible=1;marginBottom=0;whiteSpace=wrap;html=1;fillColor=#d5e8d4;strokeColor=#82b366;fontSize=13;" parent="1" vertex="1" collapsed="1">
          <mxGeometry x="641" y="648" width="160" height="30" as="geometry">
            <mxRectangle x="50" y="60" width="200" height="100" as="alternateBounds" />
          </mxGeometry>
        </mxCell>
        <mxCell id="CLw23MSYpjSKy58oMHuV-189" value="+&amp;nbsp;" style="text;strokeColor=none;fillColor=none;align=left;verticalAlign=top;spacingLeft=4;spacingRight=4;overflow=hidden;rotatable=0;points=[[0,0.5],[1,0.5]];portConstraint=eastwest;whiteSpace=wrap;html=1;" parent="CLw23MSYpjSKy58oMHuV-188" vertex="1">
          <mxGeometry y="40" width="200" height="26" as="geometry" />
        </mxCell>
        <mxCell id="CLw23MSYpjSKy58oMHuV-190" value="" style="line;strokeWidth=1;fillColor=none;align=left;verticalAlign=middle;spacingTop=-1;spacingLeft=3;spacingRight=3;rotatable=0;labelPosition=right;points=[];portConstraint=eastwest;strokeColor=inherit;" parent="CLw23MSYpjSKy58oMHuV-188" vertex="1">
          <mxGeometry y="66" width="200" height="8" as="geometry" />
        </mxCell>
        <mxCell id="CLw23MSYpjSKy58oMHuV-191" value="+&amp;nbsp;" style="text;strokeColor=none;fillColor=none;align=left;verticalAlign=top;spacingLeft=4;spacingRight=4;overflow=hidden;rotatable=0;points=[[0,0.5],[1,0.5]];portConstraint=eastwest;whiteSpace=wrap;html=1;" parent="CLw23MSYpjSKy58oMHuV-188" vertex="1">
          <mxGeometry y="74" width="200" height="26" as="geometry" />
        </mxCell>
        <mxCell id="CLw23MSYpjSKy58oMHuV-192" value="" style="endArrow=block;endSize=12;endFill=0;html=1;rounded=0;fontSize=13;exitX=0.5;exitY=1;exitDx=0;exitDy=0;" parent="1" source="CLw23MSYpjSKy58oMHuV-182" target="CLw23MSYpjSKy58oMHuV-188" edge="1">
          <mxGeometry width="160" relative="1" as="geometry">
            <mxPoint x="343" y="630" as="sourcePoint" />
            <mxPoint x="343" y="665" as="targetPoint" />
          </mxGeometry>
        </mxCell>
        <mxCell id="CLw23MSYpjSKy58oMHuV-193" value="" style="endArrow=openThin;html=1;endSize=12;startArrow=diamondThin;startSize=14;startFill=1;edgeStyle=orthogonalEdgeStyle;align=left;verticalAlign=bottom;rounded=0;endFill=0;fontSize=13;exitX=1;exitY=0.5;exitDx=0;exitDy=0;entryX=0.5;entryY=0;entryDx=0;entryDy=0;" parent="1" source="CLw23MSYpjSKy58oMHuV-38" target="CLw23MSYpjSKy58oMHuV-104" edge="1">
          <mxGeometry x="-0.8807" y="14" relative="1" as="geometry">
            <mxPoint x="628" y="502" as="sourcePoint" />
            <mxPoint x="902" y="559" as="targetPoint" />
            <mxPoint as="offset" />
          </mxGeometry>
        </mxCell>
        <mxCell id="CLw23MSYpjSKy58oMHuV-194" value="InstrInfo" style="edgeLabel;html=1;align=center;verticalAlign=middle;resizable=0;points=[];fontSize=13;" parent="CLw23MSYpjSKy58oMHuV-193" vertex="1" connectable="0">
          <mxGeometry x="-0.1844" y="-1" relative="1" as="geometry">
            <mxPoint x="112" y="11" as="offset" />
          </mxGeometry>
        </mxCell>
        <mxCell id="CLw23MSYpjSKy58oMHuV-196" value="" style="endArrow=openThin;html=1;endSize=12;startArrow=diamondThin;startSize=14;startFill=1;edgeStyle=elbowEdgeStyle;align=left;verticalAlign=bottom;rounded=0;endFill=0;fontSize=13;exitX=1;exitY=0.5;exitDx=0;exitDy=0;entryX=0;entryY=0.5;entryDx=0;entryDy=0;" parent="1" source="CLw23MSYpjSKy58oMHuV-104" target="CLw23MSYpjSKy58oMHuV-102" edge="1">
          <mxGeometry x="-0.8807" y="14" relative="1" as="geometry">
            <mxPoint x="983" y="557" as="sourcePoint" />
            <mxPoint x="1101" y="77" as="targetPoint" />
            <mxPoint as="offset" />
            <Array as="points" />
          </mxGeometry>
        </mxCell>
        <mxCell id="CLw23MSYpjSKy58oMHuV-197" value="RI" style="edgeLabel;html=1;align=center;verticalAlign=middle;resizable=0;points=[];fontSize=13;" parent="CLw23MSYpjSKy58oMHuV-196" vertex="1" connectable="0">
          <mxGeometry x="-0.1844" y="-1" relative="1" as="geometry">
            <mxPoint x="1" y="-13" as="offset" />
          </mxGeometry>
        </mxCell>
        <mxCell id="CLw23MSYpjSKy58oMHuV-199" value="1" style="endArrow=openThin;html=1;endSize=12;startArrow=diamondThin;startSize=14;startFill=1;edgeStyle=orthogonalEdgeStyle;align=left;verticalAlign=bottom;rounded=0;endFill=0;entryX=0.5;entryY=1;entryDx=0;entryDy=0;exitX=0.75;exitY=0;exitDx=0;exitDy=0;fontSize=13;" parent="1" source="CLw23MSYpjSKy58oMHuV-51" target="CLw23MSYpjSKy58oMHuV-65" edge="1">
          <mxGeometry relative="1" as="geometry">
            <mxPoint x="857" y="338" as="sourcePoint" />
            <mxPoint x="1053" y="396" as="targetPoint" />
          </mxGeometry>
        </mxCell>
        <mxCell id="CLw23MSYpjSKy58oMHuV-200" value="STI" style="edgeLabel;html=1;align=center;verticalAlign=middle;resizable=0;points=[];fontSize=13;fontColor=#FF0000;" parent="CLw23MSYpjSKy58oMHuV-199" vertex="1" connectable="0">
          <mxGeometry x="-0.1844" y="-1" relative="1" as="geometry">
            <mxPoint x="-18" y="11" as="offset" />
          </mxGeometry>
        </mxCell>
        <mxCell id="CLw23MSYpjSKy58oMHuV-201" value="MCInstrInfo" style="swimlane;fontStyle=1;align=center;verticalAlign=middle;childLayout=stackLayout;horizontal=1;startSize=30;horizontalStack=0;resizeParent=1;resizeParentMax=0;resizeLast=0;collapsible=1;marginBottom=0;whiteSpace=wrap;html=1;fillColor=#d5e8d4;strokeColor=#82b366;fontSize=13;" parent="1" vertex="1" collapsed="1">
          <mxGeometry x="891" y="377" width="160" height="30" as="geometry">
            <mxRectangle x="390" y="220" width="160" height="56" as="alternateBounds" />
          </mxGeometry>
        </mxCell>
        <mxCell id="CLw23MSYpjSKy58oMHuV-202" value="+&amp;nbsp;&amp;nbsp;initAsmInfo()" style="text;strokeColor=none;fillColor=none;align=left;verticalAlign=top;spacingLeft=4;spacingRight=4;overflow=hidden;rotatable=0;points=[[0,0.5],[1,0.5]];portConstraint=eastwest;whiteSpace=wrap;html=1;" parent="CLw23MSYpjSKy58oMHuV-201" vertex="1">
          <mxGeometry y="30" width="160" height="26" as="geometry" />
        </mxCell>
        <mxCell id="CLw23MSYpjSKy58oMHuV-203" value="MCRegisterInfo" style="swimlane;fontStyle=1;align=center;verticalAlign=middle;childLayout=stackLayout;horizontal=1;startSize=30;horizontalStack=0;resizeParent=1;resizeParentMax=0;resizeLast=0;collapsible=1;marginBottom=0;whiteSpace=wrap;html=1;fillColor=#d5e8d4;strokeColor=#82b366;fontSize=13;" parent="1" vertex="1" collapsed="1">
          <mxGeometry x="1048" y="750" width="160" height="30" as="geometry">
            <mxRectangle x="390" y="220" width="160" height="56" as="alternateBounds" />
          </mxGeometry>
        </mxCell>
        <mxCell id="CLw23MSYpjSKy58oMHuV-204" value="+&amp;nbsp;&amp;nbsp;initAsmInfo()" style="text;strokeColor=none;fillColor=none;align=left;verticalAlign=top;spacingLeft=4;spacingRight=4;overflow=hidden;rotatable=0;points=[[0,0.5],[1,0.5]];portConstraint=eastwest;whiteSpace=wrap;html=1;" parent="CLw23MSYpjSKy58oMHuV-203" vertex="1">
          <mxGeometry y="30" width="160" height="26" as="geometry" />
        </mxCell>
        <mxCell id="CLw23MSYpjSKy58oMHuV-205" value="InitX+MCRegisterInfo" style="swimlane;fontStyle=1;align=center;verticalAlign=middle;childLayout=stackLayout;horizontal=1;startSize=30;horizontalStack=0;resizeParent=1;resizeParentMax=0;resizeLast=0;collapsible=1;marginBottom=0;whiteSpace=wrap;html=1;fillColor=#fff2cc;strokeColor=#d6b656;fontSize=13;" parent="1" vertex="1" collapsed="1">
          <mxGeometry x="683" y="437.25" width="160" height="30" as="geometry">
            <mxRectangle x="390" y="220" width="160" height="56" as="alternateBounds" />
          </mxGeometry>
        </mxCell>
        <mxCell id="CLw23MSYpjSKy58oMHuV-206" value="+&amp;nbsp;&amp;nbsp;initAsmInfo()" style="text;strokeColor=none;fillColor=none;align=left;verticalAlign=top;spacingLeft=4;spacingRight=4;overflow=hidden;rotatable=0;points=[[0,0.5],[1,0.5]];portConstraint=eastwest;whiteSpace=wrap;html=1;" parent="CLw23MSYpjSKy58oMHuV-205" vertex="1">
          <mxGeometry y="30" width="160" height="26" as="geometry" />
        </mxCell>
        <mxCell id="CLw23MSYpjSKy58oMHuV-207" value="invoke" style="html=1;verticalAlign=bottom;endArrow=block;edgeStyle=elbowEdgeStyle;elbow=vertical;curved=0;rounded=0;exitX=0.5;exitY=1;exitDx=0;exitDy=0;fontSize=13;" parent="1" source="CLw23MSYpjSKy58oMHuV-61" target="CLw23MSYpjSKy58oMHuV-205" edge="1">
          <mxGeometry x="0.9259" y="25" width="80" relative="1" as="geometry">
            <mxPoint x="753" y="527.25" as="sourcePoint" />
            <mxPoint x="833" y="527.25" as="targetPoint" />
            <mxPoint as="offset" />
          </mxGeometry>
        </mxCell>
        <mxCell id="CLw23MSYpjSKy58oMHuV-208" value="InitX+MCInstrInfo" style="swimlane;fontStyle=1;align=center;verticalAlign=middle;childLayout=stackLayout;horizontal=1;startSize=30;horizontalStack=0;resizeParent=1;resizeParentMax=0;resizeLast=0;collapsible=1;marginBottom=0;whiteSpace=wrap;html=1;fillColor=#fff2cc;strokeColor=#d6b656;fontSize=13;" parent="1" vertex="1" collapsed="1">
          <mxGeometry x="891" y="434" width="160" height="30" as="geometry">
            <mxRectangle x="390" y="220" width="160" height="56" as="alternateBounds" />
          </mxGeometry>
        </mxCell>
        <mxCell id="CLw23MSYpjSKy58oMHuV-209" value="+&amp;nbsp;&amp;nbsp;initAsmInfo()" style="text;strokeColor=none;fillColor=none;align=left;verticalAlign=top;spacingLeft=4;spacingRight=4;overflow=hidden;rotatable=0;points=[[0,0.5],[1,0.5]];portConstraint=eastwest;whiteSpace=wrap;html=1;" parent="CLw23MSYpjSKy58oMHuV-208" vertex="1">
          <mxGeometry y="30" width="160" height="26" as="geometry" />
        </mxCell>
        <mxCell id="CLw23MSYpjSKy58oMHuV-210" value="invoke" style="html=1;verticalAlign=bottom;endArrow=block;edgeStyle=elbowEdgeStyle;elbow=vertical;curved=0;rounded=0;exitX=0.5;exitY=1;exitDx=0;exitDy=0;fontSize=13;entryX=0.5;entryY=0;entryDx=0;entryDy=0;" parent="1" source="CLw23MSYpjSKy58oMHuV-201" target="CLw23MSYpjSKy58oMHuV-208" edge="1">
          <mxGeometry x="0.7778" y="29" width="80" relative="1" as="geometry">
            <mxPoint x="773" y="417" as="sourcePoint" />
            <mxPoint x="773" y="444" as="targetPoint" />
            <mxPoint as="offset" />
          </mxGeometry>
        </mxCell>
        <mxCell id="CLw23MSYpjSKy58oMHuV-211" value="" style="endArrow=block;endSize=12;endFill=0;html=1;rounded=0;entryX=0.5;entryY=0;entryDx=0;entryDy=0;fontSize=13;exitX=0.5;exitY=1;exitDx=0;exitDy=0;" parent="1" source="CLw23MSYpjSKy58oMHuV-111" target="CLw23MSYpjSKy58oMHuV-65" edge="1">
          <mxGeometry width="160" relative="1" as="geometry">
            <mxPoint x="765" y="165" as="sourcePoint" />
            <mxPoint x="765" y="190" as="targetPoint" />
          </mxGeometry>
        </mxCell>
        <mxCell id="CLw23MSYpjSKy58oMHuV-212" value="&lt;span style=&quot;background-color: initial; font-size: 13px;&quot;&gt;X+TargetObjectFile&lt;/span&gt;" style="swimlane;fontStyle=1;align=center;verticalAlign=middle;childLayout=stackLayout;horizontal=1;startSize=30;horizontalStack=0;resizeParent=1;resizeParentMax=0;resizeLast=0;collapsible=1;marginBottom=0;whiteSpace=wrap;html=1;fillColor=#f8cecc;strokeColor=#b85450;fontSize=13;" parent="1" vertex="1" collapsed="1">
          <mxGeometry x="1598" y="535" width="160" height="30" as="geometry">
            <mxRectangle x="121" y="260" width="160" height="90" as="alternateBounds" />
          </mxGeometry>
        </mxCell>
        <mxCell id="CLw23MSYpjSKy58oMHuV-213" value="+&amp;nbsp;" style="text;strokeColor=none;fillColor=none;align=left;verticalAlign=top;spacingLeft=4;spacingRight=4;overflow=hidden;rotatable=0;points=[[0,0.5],[1,0.5]];portConstraint=eastwest;whiteSpace=wrap;html=1;" parent="CLw23MSYpjSKy58oMHuV-212" vertex="1">
          <mxGeometry y="30" width="160" height="26" as="geometry" />
        </mxCell>
        <mxCell id="CLw23MSYpjSKy58oMHuV-214" value="" style="line;strokeWidth=1;fillColor=none;align=left;verticalAlign=middle;spacingTop=-1;spacingLeft=3;spacingRight=3;rotatable=0;labelPosition=right;points=[];portConstraint=eastwest;strokeColor=inherit;" parent="CLw23MSYpjSKy58oMHuV-212" vertex="1">
          <mxGeometry y="56" width="160" height="8" as="geometry" />
        </mxCell>
        <mxCell id="CLw23MSYpjSKy58oMHuV-215" value="+ Initialize(MCContext, TM)" style="text;strokeColor=none;fillColor=none;align=left;verticalAlign=top;spacingLeft=4;spacingRight=4;overflow=hidden;rotatable=0;points=[[0,0.5],[1,0.5]];portConstraint=eastwest;whiteSpace=wrap;html=1;" parent="CLw23MSYpjSKy58oMHuV-212" vertex="1">
          <mxGeometry y="64" width="160" height="26" as="geometry" />
        </mxCell>
        <mxCell id="CLw23MSYpjSKy58oMHuV-227" value="X+TargetMachine" style="swimlane;fontStyle=1;align=center;verticalAlign=middle;childLayout=stackLayout;horizontal=1;startSize=40;horizontalStack=0;resizeParent=1;resizeParentMax=0;resizeLast=0;collapsible=1;marginBottom=0;whiteSpace=wrap;html=1;fillColor=#f8cecc;strokeColor=#b85450;fontSize=13;" parent="1" vertex="1" collapsed="1">
          <mxGeometry x="1900" y="494" width="160" height="40" as="geometry">
            <mxRectangle x="410" y="310" width="160" height="90" as="alternateBounds" />
          </mxGeometry>
        </mxCell>
        <mxCell id="CLw23MSYpjSKy58oMHuV-228" value="+&amp;nbsp;" style="text;strokeColor=none;fillColor=none;align=left;verticalAlign=top;spacingLeft=4;spacingRight=4;overflow=hidden;rotatable=0;points=[[0,0.5],[1,0.5]];portConstraint=eastwest;whiteSpace=wrap;html=1;" parent="CLw23MSYpjSKy58oMHuV-227" vertex="1">
          <mxGeometry y="30" width="160" height="26" as="geometry" />
        </mxCell>
        <mxCell id="CLw23MSYpjSKy58oMHuV-229" value="" style="line;strokeWidth=1;fillColor=none;align=left;verticalAlign=middle;spacingTop=-1;spacingLeft=3;spacingRight=3;rotatable=0;labelPosition=right;points=[];portConstraint=eastwest;strokeColor=inherit;" parent="CLw23MSYpjSKy58oMHuV-227" vertex="1">
          <mxGeometry y="56" width="160" height="8" as="geometry" />
        </mxCell>
        <mxCell id="CLw23MSYpjSKy58oMHuV-230" value="+" style="text;strokeColor=none;fillColor=none;align=left;verticalAlign=top;spacingLeft=4;spacingRight=4;overflow=hidden;rotatable=0;points=[[0,0.5],[1,0.5]];portConstraint=eastwest;whiteSpace=wrap;html=1;" parent="CLw23MSYpjSKy58oMHuV-227" vertex="1">
          <mxGeometry y="64" width="160" height="26" as="geometry" />
        </mxCell>
        <mxCell id="CLw23MSYpjSKy58oMHuV-231" value="1" style="endArrow=openThin;html=1;endSize=12;startArrow=diamondThin;startSize=14;startFill=1;edgeStyle=orthogonalEdgeStyle;align=left;verticalAlign=bottom;rounded=0;endFill=0;entryX=0.5;entryY=0;entryDx=0;entryDy=0;exitX=0;exitY=0.75;exitDx=0;exitDy=0;fontSize=13;" parent="1" target="CLw23MSYpjSKy58oMHuV-212" edge="1">
          <mxGeometry x="-0.84" y="22" relative="1" as="geometry">
            <mxPoint x="1900" y="519" as="sourcePoint" />
            <mxPoint x="1601" y="540" as="targetPoint" />
            <mxPoint as="offset" />
          </mxGeometry>
        </mxCell>
        <mxCell id="CLw23MSYpjSKy58oMHuV-232" value="TLOF" style="edgeLabel;html=1;align=center;verticalAlign=middle;resizable=0;points=[];fontSize=13;" parent="CLw23MSYpjSKy58oMHuV-231" vertex="1" connectable="0">
          <mxGeometry x="-0.1844" y="-1" relative="1" as="geometry">
            <mxPoint x="-2" y="-1" as="offset" />
          </mxGeometry>
        </mxCell>
        <mxCell id="CLw23MSYpjSKy58oMHuV-233" value="X+ABIInfo" style="swimlane;fontStyle=1;align=center;verticalAlign=middle;childLayout=stackLayout;horizontal=1;startSize=30;horizontalStack=0;resizeParent=1;resizeParentMax=0;resizeLast=0;collapsible=1;marginBottom=0;whiteSpace=wrap;html=1;fillColor=#f8cecc;strokeColor=#b85450;fontSize=13;" parent="1" vertex="1" collapsed="1">
          <mxGeometry x="1598" y="449" width="160" height="30" as="geometry">
            <mxRectangle x="240" y="400" width="160" height="90" as="alternateBounds" />
          </mxGeometry>
        </mxCell>
        <mxCell id="CLw23MSYpjSKy58oMHuV-234" value="+&amp;nbsp;" style="text;strokeColor=none;fillColor=none;align=left;verticalAlign=top;spacingLeft=4;spacingRight=4;overflow=hidden;rotatable=0;points=[[0,0.5],[1,0.5]];portConstraint=eastwest;whiteSpace=wrap;html=1;" parent="CLw23MSYpjSKy58oMHuV-233" vertex="1">
          <mxGeometry y="30" width="160" height="26" as="geometry" />
        </mxCell>
        <mxCell id="CLw23MSYpjSKy58oMHuV-235" value="" style="line;strokeWidth=1;fillColor=none;align=left;verticalAlign=middle;spacingTop=-1;spacingLeft=3;spacingRight=3;rotatable=0;labelPosition=right;points=[];portConstraint=eastwest;strokeColor=inherit;" parent="CLw23MSYpjSKy58oMHuV-233" vertex="1">
          <mxGeometry y="56" width="160" height="8" as="geometry" />
        </mxCell>
        <mxCell id="CLw23MSYpjSKy58oMHuV-236" value="+&amp;nbsp;" style="text;strokeColor=none;fillColor=none;align=left;verticalAlign=top;spacingLeft=4;spacingRight=4;overflow=hidden;rotatable=0;points=[[0,0.5],[1,0.5]];portConstraint=eastwest;whiteSpace=wrap;html=1;" parent="CLw23MSYpjSKy58oMHuV-233" vertex="1">
          <mxGeometry y="64" width="160" height="26" as="geometry" />
        </mxCell>
        <mxCell id="CLw23MSYpjSKy58oMHuV-237" value="1" style="endArrow=openThin;html=1;endSize=12;startArrow=diamondThin;startSize=14;startFill=1;edgeStyle=orthogonalEdgeStyle;align=left;verticalAlign=bottom;rounded=0;endFill=0;entryX=0.5;entryY=1;entryDx=0;entryDy=0;fontSize=13;exitX=0;exitY=0.25;exitDx=0;exitDy=0;" parent="1" source="CLw23MSYpjSKy58oMHuV-227" target="CLw23MSYpjSKy58oMHuV-233" edge="1">
          <mxGeometry x="-0.7989" y="-4" relative="1" as="geometry">
            <mxPoint x="1910" y="434" as="sourcePoint" />
            <mxPoint x="1721" y="394" as="targetPoint" />
            <Array as="points">
              <mxPoint x="1678" y="504" />
            </Array>
            <mxPoint as="offset" />
          </mxGeometry>
        </mxCell>
        <mxCell id="CLw23MSYpjSKy58oMHuV-238" value="ABI" style="edgeLabel;html=1;align=center;verticalAlign=middle;resizable=0;points=[];fontSize=13;" parent="CLw23MSYpjSKy58oMHuV-237" vertex="1" connectable="0">
          <mxGeometry x="-0.1844" y="-1" relative="1" as="geometry">
            <mxPoint x="-32" y="1" as="offset" />
          </mxGeometry>
        </mxCell>
        <mxCell id="CLw23MSYpjSKy58oMHuV-239" value="X+Subtarget" style="swimlane;fontStyle=1;align=center;verticalAlign=middle;childLayout=stackLayout;horizontal=1;startSize=30;horizontalStack=0;resizeParent=1;resizeParentMax=0;resizeLast=0;collapsible=1;marginBottom=0;whiteSpace=wrap;html=1;fillColor=#f8cecc;strokeColor=#b85450;fontSize=13;" parent="1" vertex="1" collapsed="1">
          <mxGeometry x="1900" y="594" width="160" height="30" as="geometry">
            <mxRectangle x="240" y="400" width="160" height="90" as="alternateBounds" />
          </mxGeometry>
        </mxCell>
        <mxCell id="CLw23MSYpjSKy58oMHuV-240" value="+&amp;nbsp;" style="text;strokeColor=none;fillColor=none;align=left;verticalAlign=top;spacingLeft=4;spacingRight=4;overflow=hidden;rotatable=0;points=[[0,0.5],[1,0.5]];portConstraint=eastwest;whiteSpace=wrap;html=1;" parent="CLw23MSYpjSKy58oMHuV-239" vertex="1">
          <mxGeometry y="30" width="160" height="26" as="geometry" />
        </mxCell>
        <mxCell id="CLw23MSYpjSKy58oMHuV-241" value="" style="line;strokeWidth=1;fillColor=none;align=left;verticalAlign=middle;spacingTop=-1;spacingLeft=3;spacingRight=3;rotatable=0;labelPosition=right;points=[];portConstraint=eastwest;strokeColor=inherit;" parent="CLw23MSYpjSKy58oMHuV-239" vertex="1">
          <mxGeometry y="56" width="160" height="8" as="geometry" />
        </mxCell>
        <mxCell id="CLw23MSYpjSKy58oMHuV-242" value="+&amp;nbsp;" style="text;strokeColor=none;fillColor=none;align=left;verticalAlign=top;spacingLeft=4;spacingRight=4;overflow=hidden;rotatable=0;points=[[0,0.5],[1,0.5]];portConstraint=eastwest;whiteSpace=wrap;html=1;" parent="CLw23MSYpjSKy58oMHuV-239" vertex="1">
          <mxGeometry y="64" width="160" height="26" as="geometry" />
        </mxCell>
        <mxCell id="CLw23MSYpjSKy58oMHuV-243" value="N" style="endArrow=openThin;html=1;endSize=12;startArrow=diamondThin;startSize=14;startFill=1;edgeStyle=orthogonalEdgeStyle;align=left;verticalAlign=bottom;rounded=0;endFill=0;entryX=0.5;entryY=0;entryDx=0;entryDy=0;fontSize=13;exitX=0.5;exitY=1;exitDx=0;exitDy=0;" parent="1" source="CLw23MSYpjSKy58oMHuV-227" target="CLw23MSYpjSKy58oMHuV-239" edge="1">
          <mxGeometry x="-0.3333" y="10" relative="1" as="geometry">
            <mxPoint x="1980" y="544" as="sourcePoint" />
            <mxPoint x="2020" y="584" as="targetPoint" />
            <Array as="points" />
            <mxPoint as="offset" />
          </mxGeometry>
        </mxCell>
        <mxCell id="CLw23MSYpjSKy58oMHuV-244" value="SubtargetMap" style="edgeLabel;html=1;align=center;verticalAlign=middle;resizable=0;points=[];fontSize=13;" parent="CLw23MSYpjSKy58oMHuV-243" vertex="1" connectable="0">
          <mxGeometry x="-0.1844" y="-1" relative="1" as="geometry">
            <mxPoint x="54" y="1" as="offset" />
          </mxGeometry>
        </mxCell>
        <mxCell id="CLw23MSYpjSKy58oMHuV-245" value="LLVMTargetMachine" style="swimlane;fontStyle=1;align=center;verticalAlign=middle;childLayout=stackLayout;horizontal=1;startSize=44;horizontalStack=0;resizeParent=1;resizeParentMax=0;resizeLast=0;collapsible=1;marginBottom=0;whiteSpace=wrap;html=1;fillColor=#d5e8d4;strokeColor=#82b366;fontSize=13;" parent="1" vertex="1" collapsed="1">
          <mxGeometry x="1900" y="362" width="160" height="44" as="geometry">
            <mxRectangle x="390" y="220" width="160" height="56" as="alternateBounds" />
          </mxGeometry>
        </mxCell>
        <mxCell id="CLw23MSYpjSKy58oMHuV-246" value="+&amp;nbsp;&amp;nbsp;initAsmInfo()" style="text;strokeColor=none;fillColor=none;align=left;verticalAlign=top;spacingLeft=4;spacingRight=4;overflow=hidden;rotatable=0;points=[[0,0.5],[1,0.5]];portConstraint=eastwest;whiteSpace=wrap;html=1;" parent="CLw23MSYpjSKy58oMHuV-245" vertex="1">
          <mxGeometry y="30" width="160" height="26" as="geometry" />
        </mxCell>
        <mxCell id="CLw23MSYpjSKy58oMHuV-247" value="" style="endArrow=block;endSize=12;endFill=0;html=1;rounded=0;entryX=0.5;entryY=1;entryDx=0;entryDy=0;fontSize=13;exitX=0.5;exitY=0;exitDx=0;exitDy=0;" parent="1" source="CLw23MSYpjSKy58oMHuV-227" target="CLw23MSYpjSKy58oMHuV-245" edge="1">
          <mxGeometry width="160" relative="1" as="geometry">
            <mxPoint x="1980" y="464" as="sourcePoint" />
            <mxPoint x="2000" y="424" as="targetPoint" />
          </mxGeometry>
        </mxCell>
        <mxCell id="CLw23MSYpjSKy58oMHuV-248" value="TargetMachine" style="swimlane;fontStyle=1;align=center;verticalAlign=middle;childLayout=stackLayout;horizontal=1;startSize=30;horizontalStack=0;resizeParent=1;resizeParentMax=0;resizeLast=0;collapsible=1;marginBottom=0;whiteSpace=wrap;html=1;fillColor=#d5e8d4;strokeColor=#82b366;gradientColor=#97d077;fontSize=13;" parent="1" vertex="1">
          <mxGeometry x="2141" y="356.25" width="160" height="56" as="geometry">
            <mxRectangle x="600" y="180" width="160" height="30" as="alternateBounds" />
          </mxGeometry>
        </mxCell>
        <mxCell id="CLw23MSYpjSKy58oMHuV-249" value="&lt;font color=&quot;#ff0000&quot; style=&quot;font-size: 13px;&quot;&gt;+&amp;nbsp;&amp;nbsp;initAsmInfo()&lt;/font&gt;" style="text;strokeColor=#82b366;fillColor=#d5e8d4;align=center;verticalAlign=top;spacingLeft=4;spacingRight=4;overflow=hidden;rotatable=0;points=[[0,0.5],[1,0.5]];portConstraint=eastwest;whiteSpace=wrap;html=1;gradientColor=#97d077;fontSize=13;" parent="CLw23MSYpjSKy58oMHuV-248" vertex="1">
          <mxGeometry y="30" width="160" height="26" as="geometry" />
        </mxCell>
        <mxCell id="CLw23MSYpjSKy58oMHuV-250" value="" style="endArrow=block;endSize=12;endFill=0;html=1;rounded=0;fontSize=13;exitX=1;exitY=0.5;exitDx=0;exitDy=0;entryX=0;entryY=0.5;entryDx=0;entryDy=0;edgeStyle=elbowEdgeStyle;" parent="1" source="CLw23MSYpjSKy58oMHuV-245" target="CLw23MSYpjSKy58oMHuV-248" edge="1">
          <mxGeometry width="160" relative="1" as="geometry">
            <mxPoint x="2167" y="385" as="sourcePoint" />
            <mxPoint x="2097" y="456" as="targetPoint" />
          </mxGeometry>
        </mxCell>
        <mxCell id="CLw23MSYpjSKy58oMHuV-251" value="Target" style="swimlane;fontStyle=1;align=center;verticalAlign=middle;childLayout=stackLayout;horizontal=1;startSize=50;horizontalStack=0;resizeParent=1;resizeParentMax=0;resizeLast=0;collapsible=1;marginBottom=0;whiteSpace=wrap;html=1;fillColor=#d5e8d4;strokeColor=#82b366;gradientColor=#97d077;fontSize=13;" parent="1" vertex="1" collapsed="1">
          <mxGeometry x="1606" y="363" width="160" height="42.5" as="geometry">
            <mxRectangle x="320" y="50" width="160" height="56" as="alternateBounds" />
          </mxGeometry>
        </mxCell>
        <mxCell id="CLw23MSYpjSKy58oMHuV-252" value="+&amp;nbsp;&amp;nbsp;" style="text;strokeColor=none;fillColor=none;align=left;verticalAlign=top;spacingLeft=4;spacingRight=4;overflow=hidden;rotatable=0;points=[[0,0.5],[1,0.5]];portConstraint=eastwest;whiteSpace=wrap;html=1;" parent="CLw23MSYpjSKy58oMHuV-251" vertex="1">
          <mxGeometry y="30" width="160" height="26" as="geometry" />
        </mxCell>
        <mxCell id="CLw23MSYpjSKy58oMHuV-255" value="MCRegisterInfo" style="swimlane;fontStyle=1;align=center;verticalAlign=middle;childLayout=stackLayout;horizontal=1;startSize=30;horizontalStack=0;resizeParent=1;resizeParentMax=0;resizeLast=0;collapsible=1;marginBottom=0;whiteSpace=wrap;html=1;fillColor=#d5e8d4;strokeColor=#82b366;fontSize=13;" parent="1" vertex="1" collapsed="1">
          <mxGeometry x="2069" y="464" width="160" height="30" as="geometry">
            <mxRectangle x="390" y="220" width="160" height="56" as="alternateBounds" />
          </mxGeometry>
        </mxCell>
        <mxCell id="CLw23MSYpjSKy58oMHuV-256" value="+&amp;nbsp;&amp;nbsp;initAsmInfo()" style="text;strokeColor=none;fillColor=none;align=left;verticalAlign=top;spacingLeft=4;spacingRight=4;overflow=hidden;rotatable=0;points=[[0,0.5],[1,0.5]];portConstraint=eastwest;whiteSpace=wrap;html=1;" parent="CLw23MSYpjSKy58oMHuV-255" vertex="1">
          <mxGeometry y="30" width="160" height="26" as="geometry" />
        </mxCell>
        <mxCell id="CLw23MSYpjSKy58oMHuV-261" value="1" style="endArrow=openThin;html=1;endSize=12;startArrow=diamondThin;startSize=14;startFill=1;edgeStyle=orthogonalEdgeStyle;align=left;verticalAlign=bottom;rounded=0;endFill=0;entryX=0.5;entryY=1;entryDx=0;entryDy=0;exitX=0.25;exitY=0;exitDx=0;exitDy=0;fontSize=13;" parent="1" source="CLw23MSYpjSKy58oMHuV-248" target="CLw23MSYpjSKy58oMHuV-272" edge="1">
          <mxGeometry x="-0.8361" y="-5" relative="1" as="geometry">
            <mxPoint x="2302" y="333.75" as="sourcePoint" />
            <mxPoint x="2160" y="311.75" as="targetPoint" />
            <mxPoint as="offset" />
          </mxGeometry>
        </mxCell>
        <mxCell id="CLw23MSYpjSKy58oMHuV-262" value="AsmInfo" style="edgeLabel;html=1;align=center;verticalAlign=middle;resizable=0;points=[];fontSize=13;fontColor=#FF0000;" parent="CLw23MSYpjSKy58oMHuV-261" vertex="1" connectable="0">
          <mxGeometry x="-0.1844" y="-1" relative="1" as="geometry">
            <mxPoint x="-31" y="12" as="offset" />
          </mxGeometry>
        </mxCell>
        <mxCell id="CLw23MSYpjSKy58oMHuV-263" value="1" style="endArrow=openThin;html=1;endSize=12;startArrow=diamondThin;startSize=14;startFill=1;edgeStyle=elbowEdgeStyle;align=left;verticalAlign=bottom;rounded=0;endFill=0;entryX=0.5;entryY=0;entryDx=0;entryDy=0;fontSize=13;elbow=vertical;exitX=0.25;exitY=1;exitDx=0;exitDy=0;" parent="1" source="CLw23MSYpjSKy58oMHuV-248" target="CLw23MSYpjSKy58oMHuV-255" edge="1">
          <mxGeometry x="-0.4866" y="9" relative="1" as="geometry">
            <mxPoint x="2193" y="411.75" as="sourcePoint" />
            <mxPoint x="2132" y="454.75" as="targetPoint" />
            <mxPoint y="1" as="offset" />
          </mxGeometry>
        </mxCell>
        <mxCell id="CLw23MSYpjSKy58oMHuV-264" value="MRI" style="edgeLabel;html=1;align=center;verticalAlign=middle;resizable=0;points=[];fontSize=13;fontColor=#FF0000;" parent="CLw23MSYpjSKy58oMHuV-263" vertex="1" connectable="0">
          <mxGeometry x="-0.1844" y="-1" relative="1" as="geometry">
            <mxPoint x="-13" y="-12" as="offset" />
          </mxGeometry>
        </mxCell>
        <mxCell id="CLw23MSYpjSKy58oMHuV-265" value="1" style="endArrow=openThin;html=1;endSize=12;startArrow=diamondThin;startSize=14;startFill=1;edgeStyle=orthogonalEdgeStyle;align=left;verticalAlign=bottom;rounded=0;endFill=0;exitX=0.75;exitY=1;exitDx=0;exitDy=0;fontSize=13;entryX=0.438;entryY=0.033;entryDx=0;entryDy=0;entryPerimeter=0;" parent="1" source="CLw23MSYpjSKy58oMHuV-248" target="CLw23MSYpjSKy58oMHuV-350" edge="1">
          <mxGeometry relative="1" as="geometry">
            <mxPoint x="2243" y="365.75" as="sourcePoint" />
            <mxPoint x="2471" y="421.75" as="targetPoint" />
          </mxGeometry>
        </mxCell>
        <mxCell id="CLw23MSYpjSKy58oMHuV-266" value="MII" style="edgeLabel;html=1;align=center;verticalAlign=middle;resizable=0;points=[];fontSize=13;fontColor=#FF0000;" parent="CLw23MSYpjSKy58oMHuV-265" vertex="1" connectable="0">
          <mxGeometry x="-0.1844" y="-1" relative="1" as="geometry">
            <mxPoint x="-3" y="-2" as="offset" />
          </mxGeometry>
        </mxCell>
        <mxCell id="CLw23MSYpjSKy58oMHuV-267" value="TargetRegistry" style="swimlane;fontStyle=1;align=center;verticalAlign=middle;childLayout=stackLayout;horizontal=1;startSize=39;horizontalStack=0;resizeParent=1;resizeParentMax=0;resizeLast=0;collapsible=1;marginBottom=0;whiteSpace=wrap;html=1;fillColor=#e1d5e7;strokeColor=#9673a6;fontSize=13;" parent="1" vertex="1" collapsed="1">
          <mxGeometry x="1426" y="422" width="133" height="39" as="geometry">
            <mxRectangle x="390" y="220" width="160" height="56" as="alternateBounds" />
          </mxGeometry>
        </mxCell>
        <mxCell id="CLw23MSYpjSKy58oMHuV-268" value="+&amp;nbsp;&amp;nbsp;initAsmInfo()" style="text;strokeColor=none;fillColor=none;align=left;verticalAlign=top;spacingLeft=4;spacingRight=4;overflow=hidden;rotatable=0;points=[[0,0.5],[1,0.5]];portConstraint=eastwest;whiteSpace=wrap;html=1;" parent="CLw23MSYpjSKy58oMHuV-267" vertex="1">
          <mxGeometry y="30" width="160" height="26" as="geometry" />
        </mxCell>
        <mxCell id="CLw23MSYpjSKy58oMHuV-269" value="RegisterTarget()" style="html=1;verticalAlign=bottom;endArrow=block;edgeStyle=elbowEdgeStyle;elbow=vertical;curved=0;rounded=0;fontSize=13;entryX=0.25;entryY=0;entryDx=0;entryDy=0;exitX=0;exitY=0.25;exitDx=0;exitDy=0;" parent="1" source="CLw23MSYpjSKy58oMHuV-251" target="CLw23MSYpjSKy58oMHuV-267" edge="1">
          <mxGeometry x="0.0168" y="-6" width="80" relative="1" as="geometry">
            <mxPoint x="1639" y="371" as="sourcePoint" />
            <mxPoint x="2020" y="204" as="targetPoint" />
            <Array as="points">
              <mxPoint x="1530" y="371" />
            </Array>
            <mxPoint as="offset" />
          </mxGeometry>
        </mxCell>
        <mxCell id="CLw23MSYpjSKy58oMHuV-272" value="X+MCAsmInfo" style="swimlane;fontStyle=1;align=center;verticalAlign=middle;childLayout=stackLayout;horizontal=1;startSize=30;horizontalStack=0;resizeParent=1;resizeParentMax=0;resizeLast=0;collapsible=1;marginBottom=0;whiteSpace=wrap;html=1;fillColor=#ffcccc;strokeColor=#36393d;fontSize=13;" parent="1" vertex="1" collapsed="1">
          <mxGeometry x="2073" y="268.75" width="160" height="30" as="geometry">
            <mxRectangle x="390" y="220" width="160" height="56" as="alternateBounds" />
          </mxGeometry>
        </mxCell>
        <mxCell id="CLw23MSYpjSKy58oMHuV-273" value="+&amp;nbsp;&amp;nbsp;initAsmInfo()" style="text;strokeColor=none;fillColor=none;align=left;verticalAlign=top;spacingLeft=4;spacingRight=4;overflow=hidden;rotatable=0;points=[[0,0.5],[1,0.5]];portConstraint=eastwest;whiteSpace=wrap;html=1;" parent="CLw23MSYpjSKy58oMHuV-272" vertex="1">
          <mxGeometry y="30" width="160" height="26" as="geometry" />
        </mxCell>
        <mxCell id="CLw23MSYpjSKy58oMHuV-288" value="X+RegisterInfo" style="swimlane;fontStyle=1;align=center;verticalAlign=middle;childLayout=stackLayout;horizontal=1;startSize=30;horizontalStack=0;resizeParent=1;resizeParentMax=0;resizeLast=0;collapsible=1;marginBottom=0;whiteSpace=wrap;html=1;fillColor=#ffcccc;strokeColor=#36393d;fontSize=13;" parent="1" vertex="1" collapsed="1">
          <mxGeometry x="2119" y="734" width="160" height="30" as="geometry">
            <mxRectangle x="390" y="220" width="160" height="56" as="alternateBounds" />
          </mxGeometry>
        </mxCell>
        <mxCell id="CLw23MSYpjSKy58oMHuV-289" value="+&amp;nbsp;&amp;nbsp;initAsmInfo()" style="text;strokeColor=none;fillColor=none;align=left;verticalAlign=top;spacingLeft=4;spacingRight=4;overflow=hidden;rotatable=0;points=[[0,0.5],[1,0.5]];portConstraint=eastwest;whiteSpace=wrap;html=1;" parent="CLw23MSYpjSKy58oMHuV-288" vertex="1">
          <mxGeometry y="30" width="160" height="26" as="geometry" />
        </mxCell>
        <mxCell id="CLw23MSYpjSKy58oMHuV-290" value="X+InstrInfo" style="swimlane;fontStyle=1;align=center;verticalAlign=middle;childLayout=stackLayout;horizontal=1;startSize=30;horizontalStack=0;resizeParent=1;resizeParentMax=0;resizeLast=0;collapsible=1;marginBottom=0;whiteSpace=wrap;html=1;fillColor=#ffcccc;strokeColor=#36393d;fontSize=13;" parent="1" vertex="1" collapsed="1">
          <mxGeometry x="2114" y="654" width="160" height="30" as="geometry">
            <mxRectangle x="390" y="220" width="160" height="56" as="alternateBounds" />
          </mxGeometry>
        </mxCell>
        <mxCell id="CLw23MSYpjSKy58oMHuV-291" value="+&amp;nbsp;&amp;nbsp;initAsmInfo()" style="text;strokeColor=none;fillColor=none;align=left;verticalAlign=top;spacingLeft=4;spacingRight=4;overflow=hidden;rotatable=0;points=[[0,0.5],[1,0.5]];portConstraint=eastwest;whiteSpace=wrap;html=1;" parent="CLw23MSYpjSKy58oMHuV-290" vertex="1">
          <mxGeometry y="30" width="160" height="26" as="geometry" />
        </mxCell>
        <mxCell id="CLw23MSYpjSKy58oMHuV-297" value="X+GenMCSubtargetInfo" style="swimlane;fontStyle=1;align=center;verticalAlign=middle;childLayout=stackLayout;horizontal=1;startSize=30;horizontalStack=0;resizeParent=1;resizeParentMax=0;resizeLast=0;collapsible=1;marginBottom=0;whiteSpace=wrap;html=1;fillColor=#fff2cc;strokeColor=#d6b656;fontSize=13;" parent="1" vertex="1" collapsed="1">
          <mxGeometry x="2281" y="268.75" width="179" height="30" as="geometry">
            <mxRectangle x="2281" y="268.75" width="160" height="56" as="alternateBounds" />
          </mxGeometry>
        </mxCell>
        <mxCell id="CLw23MSYpjSKy58oMHuV-298" value="+&amp;nbsp;&amp;nbsp;initAsmInfo()" style="text;strokeColor=none;fillColor=none;align=left;verticalAlign=top;spacingLeft=4;spacingRight=4;overflow=hidden;rotatable=0;points=[[0,0.5],[1,0.5]];portConstraint=eastwest;whiteSpace=wrap;html=1;" parent="CLw23MSYpjSKy58oMHuV-297" vertex="1">
          <mxGeometry y="30" width="160" height="26" as="geometry" />
        </mxCell>
        <mxCell id="CLw23MSYpjSKy58oMHuV-301" value="1" style="endArrow=open;html=1;endSize=12;startArrow=diamondThin;startSize=14;startFill=0;edgeStyle=orthogonalEdgeStyle;align=left;verticalAlign=bottom;rounded=0;exitX=1;exitY=0.75;exitDx=0;exitDy=0;entryX=0;entryY=0.75;entryDx=0;entryDy=0;fontSize=13;" parent="1" source="CLw23MSYpjSKy58oMHuV-251" target="CLw23MSYpjSKy58oMHuV-245" edge="1">
          <mxGeometry x="-1" y="-27" relative="1" as="geometry">
            <mxPoint x="2038" y="449" as="sourcePoint" />
            <mxPoint x="2198" y="449" as="targetPoint" />
            <mxPoint x="-2" as="offset" />
          </mxGeometry>
        </mxCell>
        <mxCell id="CLw23MSYpjSKy58oMHuV-302" value="TargetMachineCtorFn" style="edgeLabel;html=1;align=center;verticalAlign=middle;resizable=0;points=[];fontSize=13;" parent="CLw23MSYpjSKy58oMHuV-301" vertex="1" connectable="0">
          <mxGeometry x="-0.0523" y="2" relative="1" as="geometry">
            <mxPoint x="7" y="17" as="offset" />
          </mxGeometry>
        </mxCell>
        <mxCell id="CLw23MSYpjSKy58oMHuV-305" value="1" style="endArrow=open;html=1;endSize=12;startArrow=diamondThin;startSize=14;startFill=0;edgeStyle=orthogonalEdgeStyle;align=left;verticalAlign=bottom;rounded=0;entryX=1;entryY=0.25;entryDx=0;entryDy=0;exitX=0;exitY=0.25;exitDx=0;exitDy=0;fontSize=13;" parent="1" source="CLw23MSYpjSKy58oMHuV-245" target="CLw23MSYpjSKy58oMHuV-251" edge="1">
          <mxGeometry x="-0.7325" y="-7" relative="1" as="geometry">
            <mxPoint x="1959" y="486" as="sourcePoint" />
            <mxPoint x="2119" y="486" as="targetPoint" />
            <mxPoint as="offset" />
          </mxGeometry>
        </mxCell>
        <mxCell id="CLw23MSYpjSKy58oMHuV-306" value="TheTarget" style="edgeLabel;html=1;align=center;verticalAlign=middle;resizable=0;points=[];fontSize=13;" parent="CLw23MSYpjSKy58oMHuV-305" vertex="1" connectable="0">
          <mxGeometry x="0.1976" y="-2" relative="1" as="geometry">
            <mxPoint x="10" y="-9" as="offset" />
          </mxGeometry>
        </mxCell>
        <mxCell id="CLw23MSYpjSKy58oMHuV-307" value="N" style="endArrow=openThin;html=1;endSize=12;startArrow=diamondThin;startSize=14;startFill=1;edgeStyle=orthogonalEdgeStyle;align=left;verticalAlign=bottom;rounded=0;endFill=0;exitX=0.75;exitY=0;exitDx=0;exitDy=0;fontSize=13;entryX=0;entryY=0.75;entryDx=0;entryDy=0;" parent="1" source="CLw23MSYpjSKy58oMHuV-267" target="CLw23MSYpjSKy58oMHuV-251" edge="1">
          <mxGeometry x="-1" y="20" relative="1" as="geometry">
            <mxPoint x="1525.75" y="453" as="sourcePoint" />
            <mxPoint x="1662" y="599" as="targetPoint" />
            <mxPoint as="offset" />
          </mxGeometry>
        </mxCell>
        <mxCell id="CLw23MSYpjSKy58oMHuV-308" value="Targets" style="edgeLabel;html=1;align=center;verticalAlign=middle;resizable=0;points=[];fontSize=13;" parent="CLw23MSYpjSKy58oMHuV-307" vertex="1" connectable="0">
          <mxGeometry x="0.0184" y="-1" relative="1" as="geometry">
            <mxPoint y="10" as="offset" />
          </mxGeometry>
        </mxCell>
        <mxCell id="CLw23MSYpjSKy58oMHuV-318" value="X+TargetLowering" style="swimlane;fontStyle=1;align=center;verticalAlign=middle;childLayout=stackLayout;horizontal=1;startSize=30;horizontalStack=0;resizeParent=1;resizeParentMax=0;resizeLast=0;collapsible=1;marginBottom=0;whiteSpace=wrap;html=1;fillColor=#f8cecc;strokeColor=#b85450;fontSize=13;" parent="1" vertex="1" collapsed="1">
          <mxGeometry x="1719" y="640.73" width="160" height="30" as="geometry">
            <mxRectangle x="240" y="400" width="160" height="90" as="alternateBounds" />
          </mxGeometry>
        </mxCell>
        <mxCell id="CLw23MSYpjSKy58oMHuV-319" value="+&amp;nbsp;" style="text;strokeColor=none;fillColor=none;align=left;verticalAlign=top;spacingLeft=4;spacingRight=4;overflow=hidden;rotatable=0;points=[[0,0.5],[1,0.5]];portConstraint=eastwest;whiteSpace=wrap;html=1;" parent="CLw23MSYpjSKy58oMHuV-318" vertex="1">
          <mxGeometry y="30" width="160" height="26" as="geometry" />
        </mxCell>
        <mxCell id="CLw23MSYpjSKy58oMHuV-320" value="" style="line;strokeWidth=1;fillColor=none;align=left;verticalAlign=middle;spacingTop=-1;spacingLeft=3;spacingRight=3;rotatable=0;labelPosition=right;points=[];portConstraint=eastwest;strokeColor=inherit;" parent="CLw23MSYpjSKy58oMHuV-318" vertex="1">
          <mxGeometry y="56" width="160" height="8" as="geometry" />
        </mxCell>
        <mxCell id="CLw23MSYpjSKy58oMHuV-321" value="+&amp;nbsp;" style="text;strokeColor=none;fillColor=none;align=left;verticalAlign=top;spacingLeft=4;spacingRight=4;overflow=hidden;rotatable=0;points=[[0,0.5],[1,0.5]];portConstraint=eastwest;whiteSpace=wrap;html=1;" parent="CLw23MSYpjSKy58oMHuV-318" vertex="1">
          <mxGeometry y="64" width="160" height="26" as="geometry" />
        </mxCell>
        <mxCell id="CLw23MSYpjSKy58oMHuV-322" value="1" style="endArrow=openThin;html=1;endSize=12;startArrow=diamondThin;startSize=14;startFill=1;edgeStyle=orthogonalEdgeStyle;align=left;verticalAlign=bottom;rounded=0;endFill=0;entryX=0.5;entryY=0;entryDx=0;entryDy=0;exitX=0;exitY=0.75;exitDx=0;exitDy=0;fontSize=13;" parent="1" target="CLw23MSYpjSKy58oMHuV-318" edge="1">
          <mxGeometry x="-0.6918" y="-9" relative="1" as="geometry">
            <mxPoint x="1900" y="608.73" as="sourcePoint" />
            <mxPoint x="1740" y="628.73" as="targetPoint" />
            <mxPoint as="offset" />
          </mxGeometry>
        </mxCell>
        <mxCell id="CLw23MSYpjSKy58oMHuV-323" value="TLInfo" style="edgeLabel;html=1;align=center;verticalAlign=middle;resizable=0;points=[];fontSize=13;" parent="CLw23MSYpjSKy58oMHuV-322" vertex="1" connectable="0">
          <mxGeometry x="-0.1844" y="-1" relative="1" as="geometry">
            <mxPoint x="-2" y="-1" as="offset" />
          </mxGeometry>
        </mxCell>
        <mxCell id="CLw23MSYpjSKy58oMHuV-333" value="X+FrameLowering" style="swimlane;fontStyle=1;align=center;verticalAlign=middle;childLayout=stackLayout;horizontal=1;startSize=30;horizontalStack=0;resizeParent=1;resizeParentMax=0;resizeLast=0;collapsible=1;marginBottom=0;whiteSpace=wrap;html=1;fillColor=#f8cecc;strokeColor=#b85450;fontSize=13;" parent="1" vertex="1" collapsed="1">
          <mxGeometry x="1900" y="678" width="160" height="30" as="geometry">
            <mxRectangle x="240" y="400" width="160" height="90" as="alternateBounds" />
          </mxGeometry>
        </mxCell>
        <mxCell id="CLw23MSYpjSKy58oMHuV-334" value="+&amp;nbsp;" style="text;strokeColor=none;fillColor=none;align=left;verticalAlign=top;spacingLeft=4;spacingRight=4;overflow=hidden;rotatable=0;points=[[0,0.5],[1,0.5]];portConstraint=eastwest;whiteSpace=wrap;html=1;" parent="CLw23MSYpjSKy58oMHuV-333" vertex="1">
          <mxGeometry y="30" width="160" height="26" as="geometry" />
        </mxCell>
        <mxCell id="CLw23MSYpjSKy58oMHuV-335" value="" style="line;strokeWidth=1;fillColor=none;align=left;verticalAlign=middle;spacingTop=-1;spacingLeft=3;spacingRight=3;rotatable=0;labelPosition=right;points=[];portConstraint=eastwest;strokeColor=inherit;" parent="CLw23MSYpjSKy58oMHuV-333" vertex="1">
          <mxGeometry y="56" width="160" height="8" as="geometry" />
        </mxCell>
        <mxCell id="CLw23MSYpjSKy58oMHuV-336" value="+&amp;nbsp;" style="text;strokeColor=none;fillColor=none;align=left;verticalAlign=top;spacingLeft=4;spacingRight=4;overflow=hidden;rotatable=0;points=[[0,0.5],[1,0.5]];portConstraint=eastwest;whiteSpace=wrap;html=1;" parent="CLw23MSYpjSKy58oMHuV-333" vertex="1">
          <mxGeometry y="64" width="160" height="26" as="geometry" />
        </mxCell>
        <mxCell id="CLw23MSYpjSKy58oMHuV-337" value="1" style="endArrow=openThin;html=1;endSize=12;startArrow=diamondThin;startSize=14;startFill=1;edgeStyle=orthogonalEdgeStyle;align=left;verticalAlign=bottom;rounded=0;endFill=0;entryX=0.5;entryY=0;entryDx=0;entryDy=0;fontSize=13;" parent="1" source="CLw23MSYpjSKy58oMHuV-239" target="CLw23MSYpjSKy58oMHuV-333" edge="1">
          <mxGeometry x="-0.1111" y="17" relative="1" as="geometry">
            <mxPoint x="2354" y="631" as="sourcePoint" />
            <mxPoint x="2242" y="663" as="targetPoint" />
            <mxPoint as="offset" />
          </mxGeometry>
        </mxCell>
        <mxCell id="CLw23MSYpjSKy58oMHuV-338" value="FLInfo" style="edgeLabel;html=1;align=center;verticalAlign=middle;resizable=0;points=[];fontSize=13;" parent="CLw23MSYpjSKy58oMHuV-337" vertex="1" connectable="0">
          <mxGeometry x="-0.1844" y="-1" relative="1" as="geometry">
            <mxPoint x="24" y="10" as="offset" />
          </mxGeometry>
        </mxCell>
        <mxCell id="CLw23MSYpjSKy58oMHuV-344" value="" style="endArrow=openThin;html=1;endSize=12;startArrow=diamondThin;startSize=14;startFill=1;edgeStyle=orthogonalEdgeStyle;align=left;verticalAlign=bottom;rounded=0;endFill=0;fontSize=13;exitX=1;exitY=0.5;exitDx=0;exitDy=0;entryX=0.5;entryY=0;entryDx=0;entryDy=0;" parent="1" source="CLw23MSYpjSKy58oMHuV-239" target="CLw23MSYpjSKy58oMHuV-290" edge="1">
          <mxGeometry x="-0.8807" y="14" relative="1" as="geometry">
            <mxPoint x="2128" y="586" as="sourcePoint" />
            <mxPoint x="2402" y="643" as="targetPoint" />
            <mxPoint as="offset" />
          </mxGeometry>
        </mxCell>
        <mxCell id="CLw23MSYpjSKy58oMHuV-345" value="InstrInfo" style="edgeLabel;html=1;align=center;verticalAlign=middle;resizable=0;points=[];fontSize=13;" parent="CLw23MSYpjSKy58oMHuV-344" vertex="1" connectable="0">
          <mxGeometry x="-0.1844" y="-1" relative="1" as="geometry">
            <mxPoint x="88" y="17" as="offset" />
          </mxGeometry>
        </mxCell>
        <mxCell id="CLw23MSYpjSKy58oMHuV-346" value="" style="endArrow=openThin;html=1;endSize=12;startArrow=diamondThin;startSize=14;startFill=1;edgeStyle=elbowEdgeStyle;align=left;verticalAlign=bottom;rounded=0;endFill=0;fontSize=13;" parent="1" source="CLw23MSYpjSKy58oMHuV-290" target="CLw23MSYpjSKy58oMHuV-288" edge="1">
          <mxGeometry x="-0.8807" y="14" relative="1" as="geometry">
            <mxPoint x="2197" y="683" as="sourcePoint" />
            <mxPoint x="2386" y="152" as="targetPoint" />
            <mxPoint as="offset" />
            <Array as="points" />
          </mxGeometry>
        </mxCell>
        <mxCell id="CLw23MSYpjSKy58oMHuV-347" value="RI" style="edgeLabel;html=1;align=center;verticalAlign=middle;resizable=0;points=[];fontSize=13;" parent="CLw23MSYpjSKy58oMHuV-346" vertex="1" connectable="0">
          <mxGeometry x="-0.1844" y="-1" relative="1" as="geometry">
            <mxPoint x="14" y="4" as="offset" />
          </mxGeometry>
        </mxCell>
        <mxCell id="CLw23MSYpjSKy58oMHuV-348" value="1" style="endArrow=openThin;html=1;endSize=12;startArrow=diamondThin;startSize=14;startFill=1;edgeStyle=orthogonalEdgeStyle;align=left;verticalAlign=bottom;rounded=0;endFill=0;entryX=0.5;entryY=1;entryDx=0;entryDy=0;exitX=0.75;exitY=0;exitDx=0;exitDy=0;fontSize=13;" parent="1" source="CLw23MSYpjSKy58oMHuV-248" target="CLw23MSYpjSKy58oMHuV-297" edge="1">
          <mxGeometry relative="1" as="geometry">
            <mxPoint x="2243" y="421.75" as="sourcePoint" />
            <mxPoint x="2362" y="305.75" as="targetPoint" />
          </mxGeometry>
        </mxCell>
        <mxCell id="CLw23MSYpjSKy58oMHuV-349" value="STI" style="edgeLabel;html=1;align=center;verticalAlign=middle;resizable=0;points=[];fontSize=13;fontColor=#FF0000;" parent="CLw23MSYpjSKy58oMHuV-348" vertex="1" connectable="0">
          <mxGeometry x="-0.1844" y="-1" relative="1" as="geometry">
            <mxPoint x="-18" y="11" as="offset" />
          </mxGeometry>
        </mxCell>
        <mxCell id="CLw23MSYpjSKy58oMHuV-350" value="MCInstrInfo" style="swimlane;fontStyle=1;align=center;verticalAlign=middle;childLayout=stackLayout;horizontal=1;startSize=30;horizontalStack=0;resizeParent=1;resizeParentMax=0;resizeLast=0;collapsible=1;marginBottom=0;whiteSpace=wrap;html=1;fillColor=#d5e8d4;strokeColor=#82b366;fontSize=13;" parent="1" vertex="1" collapsed="1">
          <mxGeometry x="2277" y="460.75" width="160" height="30" as="geometry">
            <mxRectangle x="390" y="220" width="160" height="56" as="alternateBounds" />
          </mxGeometry>
        </mxCell>
        <mxCell id="CLw23MSYpjSKy58oMHuV-351" value="+&amp;nbsp;&amp;nbsp;initAsmInfo()" style="text;strokeColor=none;fillColor=none;align=left;verticalAlign=top;spacingLeft=4;spacingRight=4;overflow=hidden;rotatable=0;points=[[0,0.5],[1,0.5]];portConstraint=eastwest;whiteSpace=wrap;html=1;" parent="CLw23MSYpjSKy58oMHuV-350" vertex="1">
          <mxGeometry y="30" width="160" height="26" as="geometry" />
        </mxCell>
        <mxCell id="CLw23MSYpjSKy58oMHuV-367" value="TargetPassConfig" style="swimlane;fontStyle=1;align=center;verticalAlign=middle;childLayout=stackLayout;horizontal=1;startSize=40;horizontalStack=0;resizeParent=1;resizeParentMax=0;resizeLast=0;collapsible=1;marginBottom=0;whiteSpace=wrap;html=1;fillColor=#d5e8d4;strokeColor=#82b366;fontSize=13;" parent="1" vertex="1" collapsed="1">
          <mxGeometry x="247" y="-491" width="160" height="30" as="geometry">
            <mxRectangle x="50" y="60" width="200" height="100" as="alternateBounds" />
          </mxGeometry>
        </mxCell>
        <mxCell id="CLw23MSYpjSKy58oMHuV-368" value="+&amp;nbsp;" style="text;strokeColor=none;fillColor=none;align=left;verticalAlign=top;spacingLeft=4;spacingRight=4;overflow=hidden;rotatable=0;points=[[0,0.5],[1,0.5]];portConstraint=eastwest;whiteSpace=wrap;html=1;" parent="CLw23MSYpjSKy58oMHuV-367" vertex="1">
          <mxGeometry y="40" width="200" height="26" as="geometry" />
        </mxCell>
        <mxCell id="CLw23MSYpjSKy58oMHuV-369" value="" style="line;strokeWidth=1;fillColor=none;align=left;verticalAlign=middle;spacingTop=-1;spacingLeft=3;spacingRight=3;rotatable=0;labelPosition=right;points=[];portConstraint=eastwest;strokeColor=inherit;" parent="CLw23MSYpjSKy58oMHuV-367" vertex="1">
          <mxGeometry y="66" width="200" height="8" as="geometry" />
        </mxCell>
        <mxCell id="CLw23MSYpjSKy58oMHuV-370" value="+&amp;nbsp;" style="text;strokeColor=none;fillColor=none;align=left;verticalAlign=top;spacingLeft=4;spacingRight=4;overflow=hidden;rotatable=0;points=[[0,0.5],[1,0.5]];portConstraint=eastwest;whiteSpace=wrap;html=1;" parent="CLw23MSYpjSKy58oMHuV-367" vertex="1">
          <mxGeometry y="74" width="200" height="26" as="geometry" />
        </mxCell>
        <mxCell id="CLw23MSYpjSKy58oMHuV-379" value="" style="endArrow=block;endSize=12;endFill=0;html=1;rounded=0;fontSize=13;" parent="1" source="CLw23MSYpjSKy58oMHuV-114" target="CLw23MSYpjSKy58oMHuV-367" edge="1">
          <mxGeometry width="160" relative="1" as="geometry">
            <mxPoint x="149" y="-486" as="sourcePoint" />
            <mxPoint x="149" y="-350" as="targetPoint" />
          </mxGeometry>
        </mxCell>
        <mxCell id="CLw23MSYpjSKy58oMHuV-386" value="" style="endArrow=open;html=1;endSize=12;startArrow=diamondThin;startSize=14;startFill=1;align=left;verticalAlign=bottom;rounded=0;entryX=0;entryY=0.5;entryDx=0;entryDy=0;fontSize=13;edgeStyle=orthogonalEdgeStyle;exitX=1;exitY=0.25;exitDx=0;exitDy=0;" parent="1" source="CLw23MSYpjSKy58oMHuV-131" target="CLw23MSYpjSKy58oMHuV-367" edge="1">
          <mxGeometry relative="1" as="geometry">
            <mxPoint x="60" y="-353" as="sourcePoint" />
            <mxPoint x="507" y="-170" as="targetPoint" />
            <Array as="points">
              <mxPoint x="84" y="-372" />
              <mxPoint x="84" y="-476" />
            </Array>
          </mxGeometry>
        </mxCell>
        <mxCell id="CLw23MSYpjSKy58oMHuV-387" value="ISelPasses" style="swimlane;fontStyle=1;align=center;verticalAlign=middle;childLayout=stackLayout;horizontal=1;startSize=40;horizontalStack=0;resizeParent=1;resizeParentMax=0;resizeLast=0;collapsible=1;marginBottom=0;whiteSpace=wrap;html=1;fillColor=#d5e8d4;strokeColor=#82b366;fontSize=13;" parent="1" vertex="1" collapsed="1">
          <mxGeometry x="243.5" y="-409" width="160" height="30" as="geometry">
            <mxRectangle x="50" y="60" width="200" height="100" as="alternateBounds" />
          </mxGeometry>
        </mxCell>
        <mxCell id="CLw23MSYpjSKy58oMHuV-388" value="+&amp;nbsp;" style="text;strokeColor=none;fillColor=none;align=left;verticalAlign=top;spacingLeft=4;spacingRight=4;overflow=hidden;rotatable=0;points=[[0,0.5],[1,0.5]];portConstraint=eastwest;whiteSpace=wrap;html=1;" parent="CLw23MSYpjSKy58oMHuV-387" vertex="1">
          <mxGeometry y="40" width="200" height="26" as="geometry" />
        </mxCell>
        <mxCell id="CLw23MSYpjSKy58oMHuV-389" value="" style="line;strokeWidth=1;fillColor=none;align=left;verticalAlign=middle;spacingTop=-1;spacingLeft=3;spacingRight=3;rotatable=0;labelPosition=right;points=[];portConstraint=eastwest;strokeColor=inherit;" parent="CLw23MSYpjSKy58oMHuV-387" vertex="1">
          <mxGeometry y="66" width="200" height="8" as="geometry" />
        </mxCell>
        <mxCell id="CLw23MSYpjSKy58oMHuV-390" value="+&amp;nbsp;" style="text;strokeColor=none;fillColor=none;align=left;verticalAlign=top;spacingLeft=4;spacingRight=4;overflow=hidden;rotatable=0;points=[[0,0.5],[1,0.5]];portConstraint=eastwest;whiteSpace=wrap;html=1;" parent="CLw23MSYpjSKy58oMHuV-387" vertex="1">
          <mxGeometry y="74" width="200" height="26" as="geometry" />
        </mxCell>
        <mxCell id="CLw23MSYpjSKy58oMHuV-391" value="MachinePassses" style="swimlane;fontStyle=1;align=center;verticalAlign=middle;childLayout=stackLayout;horizontal=1;startSize=40;horizontalStack=0;resizeParent=1;resizeParentMax=0;resizeLast=0;collapsible=1;marginBottom=0;whiteSpace=wrap;html=1;fillColor=#d5e8d4;strokeColor=#82b366;fontSize=13;" parent="1" vertex="1" collapsed="1">
          <mxGeometry x="243.5" y="-342" width="160" height="30" as="geometry">
            <mxRectangle x="50" y="60" width="200" height="100" as="alternateBounds" />
          </mxGeometry>
        </mxCell>
        <mxCell id="CLw23MSYpjSKy58oMHuV-392" value="+&amp;nbsp;" style="text;strokeColor=none;fillColor=none;align=left;verticalAlign=top;spacingLeft=4;spacingRight=4;overflow=hidden;rotatable=0;points=[[0,0.5],[1,0.5]];portConstraint=eastwest;whiteSpace=wrap;html=1;" parent="CLw23MSYpjSKy58oMHuV-391" vertex="1">
          <mxGeometry y="40" width="200" height="26" as="geometry" />
        </mxCell>
        <mxCell id="CLw23MSYpjSKy58oMHuV-393" value="" style="line;strokeWidth=1;fillColor=none;align=left;verticalAlign=middle;spacingTop=-1;spacingLeft=3;spacingRight=3;rotatable=0;labelPosition=right;points=[];portConstraint=eastwest;strokeColor=inherit;" parent="CLw23MSYpjSKy58oMHuV-391" vertex="1">
          <mxGeometry y="66" width="200" height="8" as="geometry" />
        </mxCell>
        <mxCell id="CLw23MSYpjSKy58oMHuV-394" value="+&amp;nbsp;" style="text;strokeColor=none;fillColor=none;align=left;verticalAlign=top;spacingLeft=4;spacingRight=4;overflow=hidden;rotatable=0;points=[[0,0.5],[1,0.5]];portConstraint=eastwest;whiteSpace=wrap;html=1;" parent="CLw23MSYpjSKy58oMHuV-391" vertex="1">
          <mxGeometry y="74" width="200" height="26" as="geometry" />
        </mxCell>
        <mxCell id="CLw23MSYpjSKy58oMHuV-403" value="" style="endArrow=open;html=1;endSize=12;startArrow=diamondThin;startSize=14;startFill=1;align=left;verticalAlign=bottom;rounded=0;fontSize=13;entryX=0;entryY=0.5;entryDx=0;entryDy=0;edgeStyle=orthogonalEdgeStyle;exitX=1;exitY=0.59;exitDx=0;exitDy=0;exitPerimeter=0;" parent="1" source="CLw23MSYpjSKy58oMHuV-131" target="CLw23MSYpjSKy58oMHuV-391" edge="1">
          <mxGeometry relative="1" as="geometry">
            <mxPoint x="61" y="-347" as="sourcePoint" />
            <mxPoint x="167" y="-339" as="targetPoint" />
            <Array as="points">
              <mxPoint x="105" y="-354" />
              <mxPoint x="105" y="-327" />
            </Array>
          </mxGeometry>
        </mxCell>
        <mxCell id="CLw23MSYpjSKy58oMHuV-407" value="AsmPrinter" style="swimlane;fontStyle=1;align=center;verticalAlign=middle;childLayout=stackLayout;horizontal=1;startSize=40;horizontalStack=0;resizeParent=1;resizeParentMax=0;resizeLast=0;collapsible=1;marginBottom=0;whiteSpace=wrap;html=1;fillColor=#d5e8d4;strokeColor=#82b366;fontSize=13;" parent="1" vertex="1" collapsed="1">
          <mxGeometry x="243.5" y="-281" width="160" height="30" as="geometry">
            <mxRectangle x="50" y="60" width="200" height="100" as="alternateBounds" />
          </mxGeometry>
        </mxCell>
        <mxCell id="CLw23MSYpjSKy58oMHuV-408" value="+&amp;nbsp;" style="text;strokeColor=none;fillColor=none;align=left;verticalAlign=top;spacingLeft=4;spacingRight=4;overflow=hidden;rotatable=0;points=[[0,0.5],[1,0.5]];portConstraint=eastwest;whiteSpace=wrap;html=1;" parent="CLw23MSYpjSKy58oMHuV-407" vertex="1">
          <mxGeometry y="40" width="200" height="26" as="geometry" />
        </mxCell>
        <mxCell id="CLw23MSYpjSKy58oMHuV-409" value="" style="line;strokeWidth=1;fillColor=none;align=left;verticalAlign=middle;spacingTop=-1;spacingLeft=3;spacingRight=3;rotatable=0;labelPosition=right;points=[];portConstraint=eastwest;strokeColor=inherit;" parent="CLw23MSYpjSKy58oMHuV-407" vertex="1">
          <mxGeometry y="66" width="200" height="8" as="geometry" />
        </mxCell>
        <mxCell id="CLw23MSYpjSKy58oMHuV-410" value="+&amp;nbsp;" style="text;strokeColor=none;fillColor=none;align=left;verticalAlign=top;spacingLeft=4;spacingRight=4;overflow=hidden;rotatable=0;points=[[0,0.5],[1,0.5]];portConstraint=eastwest;whiteSpace=wrap;html=1;" parent="CLw23MSYpjSKy58oMHuV-407" vertex="1">
          <mxGeometry y="74" width="200" height="26" as="geometry" />
        </mxCell>
        <mxCell id="CLw23MSYpjSKy58oMHuV-412" value="TPC-&amp;gt;addISelPasses" style="text;html=1;strokeColor=none;fillColor=none;align=center;verticalAlign=middle;whiteSpace=wrap;rounded=0;fontSize=13;" parent="1" vertex="1">
          <mxGeometry x="115.5" y="-392.5" width="129.5" height="23" as="geometry" />
        </mxCell>
        <mxCell id="CLw23MSYpjSKy58oMHuV-413" value="" style="endArrow=open;html=1;endSize=12;startArrow=diamondThin;startSize=14;startFill=1;align=left;verticalAlign=bottom;rounded=0;fontSize=13;entryX=0;entryY=0.5;entryDx=0;entryDy=0;edgeStyle=orthogonalEdgeStyle;exitX=1;exitY=0.75;exitDx=0;exitDy=0;" parent="1" source="CLw23MSYpjSKy58oMHuV-131" target="CLw23MSYpjSKy58oMHuV-407" edge="1">
          <mxGeometry relative="1" as="geometry">
            <mxPoint x="69" y="-313" as="sourcePoint" />
            <mxPoint x="255" y="-322" as="targetPoint" />
            <Array as="points">
              <mxPoint x="85" y="-345" />
              <mxPoint x="85" y="-266" />
            </Array>
          </mxGeometry>
        </mxCell>
        <mxCell id="CLw23MSYpjSKy58oMHuV-415" value="TM-&amp;gt;addAsmPrinter" style="text;html=1;strokeColor=none;fillColor=none;align=center;verticalAlign=middle;whiteSpace=wrap;rounded=0;fontSize=13;" parent="1" vertex="1">
          <mxGeometry x="99" y="-261" width="135.5" height="23" as="geometry" />
        </mxCell>
        <mxCell id="CLw23MSYpjSKy58oMHuV-416" value="PM-&amp;gt;add" style="text;html=1;strokeColor=none;fillColor=none;align=center;verticalAlign=middle;whiteSpace=wrap;rounded=0;fontSize=13;" parent="1" vertex="1">
          <mxGeometry x="99" y="-473.5" width="129.5" height="23" as="geometry" />
        </mxCell>
        <mxCell id="CLw23MSYpjSKy58oMHuV-417" value="MCStreamer" style="swimlane;fontStyle=1;align=center;verticalAlign=middle;childLayout=stackLayout;horizontal=1;startSize=40;horizontalStack=0;resizeParent=1;resizeParentMax=0;resizeLast=0;collapsible=1;marginBottom=0;whiteSpace=wrap;html=1;fillColor=#d5e8d4;strokeColor=#82b366;fontSize=13;" parent="1" vertex="1" collapsed="1">
          <mxGeometry x="459" y="-281" width="160" height="30" as="geometry">
            <mxRectangle x="50" y="60" width="200" height="100" as="alternateBounds" />
          </mxGeometry>
        </mxCell>
        <mxCell id="CLw23MSYpjSKy58oMHuV-418" value="+&amp;nbsp;" style="text;strokeColor=none;fillColor=none;align=left;verticalAlign=top;spacingLeft=4;spacingRight=4;overflow=hidden;rotatable=0;points=[[0,0.5],[1,0.5]];portConstraint=eastwest;whiteSpace=wrap;html=1;" parent="CLw23MSYpjSKy58oMHuV-417" vertex="1">
          <mxGeometry y="40" width="200" height="26" as="geometry" />
        </mxCell>
        <mxCell id="CLw23MSYpjSKy58oMHuV-419" value="" style="line;strokeWidth=1;fillColor=none;align=left;verticalAlign=middle;spacingTop=-1;spacingLeft=3;spacingRight=3;rotatable=0;labelPosition=right;points=[];portConstraint=eastwest;strokeColor=inherit;" parent="CLw23MSYpjSKy58oMHuV-417" vertex="1">
          <mxGeometry y="66" width="200" height="8" as="geometry" />
        </mxCell>
        <mxCell id="CLw23MSYpjSKy58oMHuV-420" value="+&amp;nbsp;" style="text;strokeColor=none;fillColor=none;align=left;verticalAlign=top;spacingLeft=4;spacingRight=4;overflow=hidden;rotatable=0;points=[[0,0.5],[1,0.5]];portConstraint=eastwest;whiteSpace=wrap;html=1;" parent="CLw23MSYpjSKy58oMHuV-417" vertex="1">
          <mxGeometry y="74" width="200" height="26" as="geometry" />
        </mxCell>
        <mxCell id="CLw23MSYpjSKy58oMHuV-421" value="" style="endArrow=open;html=1;endSize=12;startArrow=diamondThin;startSize=14;startFill=1;align=left;verticalAlign=bottom;rounded=0;fontSize=13;edgeStyle=orthogonalEdgeStyle;exitX=1;exitY=0.5;exitDx=0;exitDy=0;" parent="1" source="CLw23MSYpjSKy58oMHuV-407" target="CLw23MSYpjSKy58oMHuV-417" edge="1">
          <mxGeometry relative="1" as="geometry">
            <mxPoint x="386" y="-200" as="sourcePoint" />
            <mxPoint x="550" y="-169" as="targetPoint" />
          </mxGeometry>
        </mxCell>
        <mxCell id="CLw23MSYpjSKy58oMHuV-422" value="X+MCCodeEmitter" style="swimlane;fontStyle=1;align=center;verticalAlign=middle;childLayout=stackLayout;horizontal=1;startSize=30;horizontalStack=0;resizeParent=1;resizeParentMax=0;resizeLast=0;collapsible=1;marginBottom=0;whiteSpace=wrap;html=1;fillColor=#ffcccc;strokeColor=#36393d;fontSize=13;" parent="1" vertex="1" collapsed="1">
          <mxGeometry x="1236" y="-221.25" width="160" height="30" as="geometry">
            <mxRectangle x="390" y="220" width="160" height="56" as="alternateBounds" />
          </mxGeometry>
        </mxCell>
        <mxCell id="CLw23MSYpjSKy58oMHuV-423" value="+&amp;nbsp;&amp;nbsp;initAsmInfo()" style="text;strokeColor=none;fillColor=none;align=left;verticalAlign=top;spacingLeft=4;spacingRight=4;overflow=hidden;rotatable=0;points=[[0,0.5],[1,0.5]];portConstraint=eastwest;whiteSpace=wrap;html=1;" parent="CLw23MSYpjSKy58oMHuV-422" vertex="1">
          <mxGeometry y="30" width="160" height="26" as="geometry" />
        </mxCell>
        <mxCell id="CLw23MSYpjSKy58oMHuV-424" value="" style="endArrow=block;endSize=12;endFill=0;html=1;rounded=0;fontSize=13;" parent="1" source="CLw23MSYpjSKy58oMHuV-422" target="CLw23MSYpjSKy58oMHuV-427" edge="1">
          <mxGeometry width="160" relative="1" as="geometry">
            <mxPoint x="1052" y="-259.25" as="sourcePoint" />
            <mxPoint x="1011" y="-259.25" as="targetPoint" />
          </mxGeometry>
        </mxCell>
        <mxCell id="CLw23MSYpjSKy58oMHuV-425" value="&lt;h1&gt;&lt;font style=&quot;font-size: 16px;&quot;&gt;Primary&lt;/font&gt;&lt;/h1&gt;&lt;p&gt;&lt;font style=&quot;font-size: 13px;&quot;&gt;All the Target.createXX methods in pass pipeline are registered by TargetRegistry in &quot;LLVMInitializeX+TargetMC()&quot;&lt;/font&gt;&lt;/p&gt;" style="text;html=1;strokeColor=none;fillColor=none;spacing=5;spacingTop=-20;whiteSpace=wrap;overflow=hidden;rounded=0;" parent="1" vertex="1">
          <mxGeometry x="52" y="93" width="297" height="120" as="geometry" />
        </mxCell>
        <mxCell id="CLw23MSYpjSKy58oMHuV-427" value="MCCodeEmitter" style="swimlane;fontStyle=1;align=center;verticalAlign=middle;childLayout=stackLayout;horizontal=1;startSize=40;horizontalStack=0;resizeParent=1;resizeParentMax=0;resizeLast=0;collapsible=1;marginBottom=0;whiteSpace=wrap;html=1;fillColor=#d5e8d4;strokeColor=#82b366;fontSize=13;" parent="1" vertex="1" collapsed="1">
          <mxGeometry x="1236" y="-148.25" width="160" height="30" as="geometry">
            <mxRectangle x="50" y="60" width="200" height="100" as="alternateBounds" />
          </mxGeometry>
        </mxCell>
        <mxCell id="CLw23MSYpjSKy58oMHuV-428" value="+&amp;nbsp;" style="text;strokeColor=none;fillColor=none;align=left;verticalAlign=top;spacingLeft=4;spacingRight=4;overflow=hidden;rotatable=0;points=[[0,0.5],[1,0.5]];portConstraint=eastwest;whiteSpace=wrap;html=1;" parent="CLw23MSYpjSKy58oMHuV-427" vertex="1">
          <mxGeometry y="40" width="200" height="26" as="geometry" />
        </mxCell>
        <mxCell id="CLw23MSYpjSKy58oMHuV-429" value="" style="line;strokeWidth=1;fillColor=none;align=left;verticalAlign=middle;spacingTop=-1;spacingLeft=3;spacingRight=3;rotatable=0;labelPosition=right;points=[];portConstraint=eastwest;strokeColor=inherit;" parent="CLw23MSYpjSKy58oMHuV-427" vertex="1">
          <mxGeometry y="66" width="200" height="8" as="geometry" />
        </mxCell>
        <mxCell id="CLw23MSYpjSKy58oMHuV-430" value="+&amp;nbsp;" style="text;strokeColor=none;fillColor=none;align=left;verticalAlign=top;spacingLeft=4;spacingRight=4;overflow=hidden;rotatable=0;points=[[0,0.5],[1,0.5]];portConstraint=eastwest;whiteSpace=wrap;html=1;" parent="CLw23MSYpjSKy58oMHuV-427" vertex="1">
          <mxGeometry y="74" width="200" height="26" as="geometry" />
        </mxCell>
        <mxCell id="CLw23MSYpjSKy58oMHuV-435" value="MCTargetStreamer" style="swimlane;fontStyle=1;align=center;verticalAlign=middle;childLayout=stackLayout;horizontal=1;startSize=40;horizontalStack=0;resizeParent=1;resizeParentMax=0;resizeLast=0;collapsible=1;marginBottom=0;whiteSpace=wrap;html=1;fillColor=#d5e8d4;strokeColor=#82b366;fontSize=13;" parent="1" vertex="1" collapsed="1">
          <mxGeometry x="704" y="-281" width="148" height="30" as="geometry">
            <mxRectangle x="50" y="60" width="200" height="100" as="alternateBounds" />
          </mxGeometry>
        </mxCell>
        <mxCell id="CLw23MSYpjSKy58oMHuV-436" value="+&amp;nbsp;" style="text;strokeColor=none;fillColor=none;align=left;verticalAlign=top;spacingLeft=4;spacingRight=4;overflow=hidden;rotatable=0;points=[[0,0.5],[1,0.5]];portConstraint=eastwest;whiteSpace=wrap;html=1;" parent="CLw23MSYpjSKy58oMHuV-435" vertex="1">
          <mxGeometry y="40" width="200" height="26" as="geometry" />
        </mxCell>
        <mxCell id="CLw23MSYpjSKy58oMHuV-437" value="" style="line;strokeWidth=1;fillColor=none;align=left;verticalAlign=middle;spacingTop=-1;spacingLeft=3;spacingRight=3;rotatable=0;labelPosition=right;points=[];portConstraint=eastwest;strokeColor=inherit;" parent="CLw23MSYpjSKy58oMHuV-435" vertex="1">
          <mxGeometry y="66" width="200" height="8" as="geometry" />
        </mxCell>
        <mxCell id="CLw23MSYpjSKy58oMHuV-438" value="+&amp;nbsp;" style="text;strokeColor=none;fillColor=none;align=left;verticalAlign=top;spacingLeft=4;spacingRight=4;overflow=hidden;rotatable=0;points=[[0,0.5],[1,0.5]];portConstraint=eastwest;whiteSpace=wrap;html=1;" parent="CLw23MSYpjSKy58oMHuV-435" vertex="1">
          <mxGeometry y="74" width="200" height="26" as="geometry" />
        </mxCell>
        <mxCell id="CLw23MSYpjSKy58oMHuV-439" value="1" style="endArrow=openThin;html=1;endSize=12;startArrow=diamondThin;startSize=14;startFill=1;edgeStyle=orthogonalEdgeStyle;align=left;verticalAlign=bottom;rounded=0;endFill=0;entryX=0;entryY=0.5;entryDx=0;entryDy=0;fontSize=13;exitX=1;exitY=0.5;exitDx=0;exitDy=0;" parent="1" source="CLw23MSYpjSKy58oMHuV-417" target="CLw23MSYpjSKy58oMHuV-435" edge="1">
          <mxGeometry x="-1" y="-22" relative="1" as="geometry">
            <mxPoint x="538" y="-107" as="sourcePoint" />
            <mxPoint x="493" y="-24" as="targetPoint" />
            <mxPoint as="offset" />
          </mxGeometry>
        </mxCell>
        <mxCell id="CLw23MSYpjSKy58oMHuV-440" value="TargetStreamer" style="edgeLabel;html=1;align=center;verticalAlign=middle;resizable=0;points=[];fontSize=13;" parent="CLw23MSYpjSKy58oMHuV-439" vertex="1" connectable="0">
          <mxGeometry x="-0.1844" y="-1" relative="1" as="geometry">
            <mxPoint x="-7" y="-26" as="offset" />
          </mxGeometry>
        </mxCell>
        <mxCell id="CLw23MSYpjSKy58oMHuV-441" value="X+AsmBackend" style="swimlane;fontStyle=1;align=center;verticalAlign=middle;childLayout=stackLayout;horizontal=1;startSize=30;horizontalStack=0;resizeParent=1;resizeParentMax=0;resizeLast=0;collapsible=1;marginBottom=0;whiteSpace=wrap;html=1;fillColor=#ffcccc;strokeColor=#36393d;fontSize=13;" parent="1" vertex="1" collapsed="1">
          <mxGeometry x="1030" y="-145.25" width="160" height="30" as="geometry">
            <mxRectangle x="390" y="220" width="160" height="56" as="alternateBounds" />
          </mxGeometry>
        </mxCell>
        <mxCell id="CLw23MSYpjSKy58oMHuV-442" value="+&amp;nbsp;&amp;nbsp;initAsmInfo()" style="text;strokeColor=none;fillColor=none;align=left;verticalAlign=top;spacingLeft=4;spacingRight=4;overflow=hidden;rotatable=0;points=[[0,0.5],[1,0.5]];portConstraint=eastwest;whiteSpace=wrap;html=1;" parent="CLw23MSYpjSKy58oMHuV-441" vertex="1">
          <mxGeometry y="30" width="160" height="26" as="geometry" />
        </mxCell>
        <mxCell id="CLw23MSYpjSKy58oMHuV-443" value="" style="endArrow=block;endSize=12;endFill=0;html=1;rounded=0;fontSize=13;" parent="1" source="CLw23MSYpjSKy58oMHuV-441" target="CLw23MSYpjSKy58oMHuV-444" edge="1">
          <mxGeometry width="160" relative="1" as="geometry">
            <mxPoint x="846" y="-330.25" as="sourcePoint" />
            <mxPoint x="805" y="-330.25" as="targetPoint" />
          </mxGeometry>
        </mxCell>
        <mxCell id="CLw23MSYpjSKy58oMHuV-444" value="MCAsmBackend" style="swimlane;fontStyle=1;align=center;verticalAlign=middle;childLayout=stackLayout;horizontal=1;startSize=40;horizontalStack=0;resizeParent=1;resizeParentMax=0;resizeLast=0;collapsible=1;marginBottom=0;whiteSpace=wrap;html=1;fillColor=#d5e8d4;strokeColor=#82b366;fontSize=13;" parent="1" vertex="1" collapsed="1">
          <mxGeometry x="1030" y="-219.25" width="160" height="30" as="geometry">
            <mxRectangle x="50" y="60" width="200" height="100" as="alternateBounds" />
          </mxGeometry>
        </mxCell>
        <mxCell id="CLw23MSYpjSKy58oMHuV-445" value="+&amp;nbsp;" style="text;strokeColor=none;fillColor=none;align=left;verticalAlign=top;spacingLeft=4;spacingRight=4;overflow=hidden;rotatable=0;points=[[0,0.5],[1,0.5]];portConstraint=eastwest;whiteSpace=wrap;html=1;" parent="CLw23MSYpjSKy58oMHuV-444" vertex="1">
          <mxGeometry y="40" width="200" height="26" as="geometry" />
        </mxCell>
        <mxCell id="CLw23MSYpjSKy58oMHuV-446" value="" style="line;strokeWidth=1;fillColor=none;align=left;verticalAlign=middle;spacingTop=-1;spacingLeft=3;spacingRight=3;rotatable=0;labelPosition=right;points=[];portConstraint=eastwest;strokeColor=inherit;" parent="CLw23MSYpjSKy58oMHuV-444" vertex="1">
          <mxGeometry y="66" width="200" height="8" as="geometry" />
        </mxCell>
        <mxCell id="CLw23MSYpjSKy58oMHuV-447" value="+&amp;nbsp;" style="text;strokeColor=none;fillColor=none;align=left;verticalAlign=top;spacingLeft=4;spacingRight=4;overflow=hidden;rotatable=0;points=[[0,0.5],[1,0.5]];portConstraint=eastwest;whiteSpace=wrap;html=1;" parent="CLw23MSYpjSKy58oMHuV-444" vertex="1">
          <mxGeometry y="74" width="200" height="26" as="geometry" />
        </mxCell>
        <mxCell id="CLw23MSYpjSKy58oMHuV-448" value="X+&lt;span style=&quot;background-color: rgb(0, 255, 0);&quot;&gt;&lt;font color=&quot;#ff0000&quot;&gt;ELF&lt;/font&gt;&lt;/span&gt;ObjectWriter" style="swimlane;fontStyle=1;align=center;verticalAlign=middle;childLayout=stackLayout;horizontal=1;startSize=30;horizontalStack=0;resizeParent=1;resizeParentMax=0;resizeLast=0;collapsible=1;marginBottom=0;whiteSpace=wrap;html=1;fillColor=#ffcccc;strokeColor=#36393d;fontSize=13;" parent="1" vertex="1" collapsed="1">
          <mxGeometry x="1241" y="-451" width="160" height="30" as="geometry">
            <mxRectangle x="390" y="220" width="160" height="56" as="alternateBounds" />
          </mxGeometry>
        </mxCell>
        <mxCell id="CLw23MSYpjSKy58oMHuV-449" value="+&amp;nbsp;&amp;nbsp;initAsmInfo()" style="text;strokeColor=none;fillColor=none;align=left;verticalAlign=top;spacingLeft=4;spacingRight=4;overflow=hidden;rotatable=0;points=[[0,0.5],[1,0.5]];portConstraint=eastwest;whiteSpace=wrap;html=1;" parent="CLw23MSYpjSKy58oMHuV-448" vertex="1">
          <mxGeometry y="30" width="160" height="26" as="geometry" />
        </mxCell>
        <mxCell id="CLw23MSYpjSKy58oMHuV-450" value="" style="endArrow=block;endSize=12;endFill=0;html=1;rounded=0;fontSize=13;" parent="1" source="CLw23MSYpjSKy58oMHuV-448" target="CLw23MSYpjSKy58oMHuV-451" edge="1">
          <mxGeometry width="160" relative="1" as="geometry">
            <mxPoint x="1057" y="-500" as="sourcePoint" />
            <mxPoint x="1321" y="-398" as="targetPoint" />
          </mxGeometry>
        </mxCell>
        <mxCell id="CLw23MSYpjSKy58oMHuV-451" value="MC&lt;span style=&quot;background-color: rgb(0, 255, 0);&quot;&gt;&lt;font color=&quot;#ff0000&quot;&gt;ELF&lt;/font&gt;&lt;/span&gt;ObjectTargetWriter" style="swimlane;fontStyle=1;align=right;verticalAlign=middle;childLayout=stackLayout;horizontal=1;startSize=40;horizontalStack=0;resizeParent=1;resizeParentMax=0;resizeLast=0;collapsible=1;marginBottom=0;whiteSpace=wrap;html=1;fillColor=#d5e8d4;strokeColor=#82b366;fontSize=13;" parent="1" vertex="1" collapsed="1">
          <mxGeometry x="1229" y="-391.75" width="184" height="30" as="geometry">
            <mxRectangle x="50" y="60" width="200" height="100" as="alternateBounds" />
          </mxGeometry>
        </mxCell>
        <mxCell id="CLw23MSYpjSKy58oMHuV-452" value="+&amp;nbsp;" style="text;strokeColor=none;fillColor=none;align=left;verticalAlign=top;spacingLeft=4;spacingRight=4;overflow=hidden;rotatable=0;points=[[0,0.5],[1,0.5]];portConstraint=eastwest;whiteSpace=wrap;html=1;" parent="CLw23MSYpjSKy58oMHuV-451" vertex="1">
          <mxGeometry y="40" width="200" height="26" as="geometry" />
        </mxCell>
        <mxCell id="CLw23MSYpjSKy58oMHuV-453" value="" style="line;strokeWidth=1;fillColor=none;align=left;verticalAlign=middle;spacingTop=-1;spacingLeft=3;spacingRight=3;rotatable=0;labelPosition=right;points=[];portConstraint=eastwest;strokeColor=inherit;" parent="CLw23MSYpjSKy58oMHuV-451" vertex="1">
          <mxGeometry y="66" width="200" height="8" as="geometry" />
        </mxCell>
        <mxCell id="CLw23MSYpjSKy58oMHuV-454" value="+&amp;nbsp;" style="text;strokeColor=none;fillColor=none;align=left;verticalAlign=top;spacingLeft=4;spacingRight=4;overflow=hidden;rotatable=0;points=[[0,0.5],[1,0.5]];portConstraint=eastwest;whiteSpace=wrap;html=1;" parent="CLw23MSYpjSKy58oMHuV-451" vertex="1">
          <mxGeometry y="74" width="200" height="26" as="geometry" />
        </mxCell>
        <mxCell id="CLw23MSYpjSKy58oMHuV-455" value="MCObjectTargetWriter" style="swimlane;fontStyle=1;align=right;verticalAlign=middle;childLayout=stackLayout;horizontal=1;startSize=40;horizontalStack=0;resizeParent=1;resizeParentMax=0;resizeLast=0;collapsible=1;marginBottom=0;whiteSpace=wrap;html=1;fillColor=#d5e8d4;strokeColor=#82b366;fontSize=13;" parent="1" vertex="1" collapsed="1">
          <mxGeometry x="1241" y="-330" width="160" height="30" as="geometry">
            <mxRectangle x="50" y="60" width="200" height="100" as="alternateBounds" />
          </mxGeometry>
        </mxCell>
        <mxCell id="CLw23MSYpjSKy58oMHuV-456" value="+&amp;nbsp;" style="text;strokeColor=none;fillColor=none;align=left;verticalAlign=top;spacingLeft=4;spacingRight=4;overflow=hidden;rotatable=0;points=[[0,0.5],[1,0.5]];portConstraint=eastwest;whiteSpace=wrap;html=1;" parent="CLw23MSYpjSKy58oMHuV-455" vertex="1">
          <mxGeometry y="40" width="200" height="26" as="geometry" />
        </mxCell>
        <mxCell id="CLw23MSYpjSKy58oMHuV-457" value="" style="line;strokeWidth=1;fillColor=none;align=left;verticalAlign=middle;spacingTop=-1;spacingLeft=3;spacingRight=3;rotatable=0;labelPosition=right;points=[];portConstraint=eastwest;strokeColor=inherit;" parent="CLw23MSYpjSKy58oMHuV-455" vertex="1">
          <mxGeometry y="66" width="200" height="8" as="geometry" />
        </mxCell>
        <mxCell id="CLw23MSYpjSKy58oMHuV-458" value="+&amp;nbsp;" style="text;strokeColor=none;fillColor=none;align=left;verticalAlign=top;spacingLeft=4;spacingRight=4;overflow=hidden;rotatable=0;points=[[0,0.5],[1,0.5]];portConstraint=eastwest;whiteSpace=wrap;html=1;" parent="CLw23MSYpjSKy58oMHuV-455" vertex="1">
          <mxGeometry y="74" width="200" height="26" as="geometry" />
        </mxCell>
        <mxCell id="CLw23MSYpjSKy58oMHuV-459" value="" style="endArrow=block;endSize=12;endFill=0;html=1;rounded=0;fontSize=13;" parent="1" target="CLw23MSYpjSKy58oMHuV-455" edge="1">
          <mxGeometry width="160" relative="1" as="geometry">
            <mxPoint x="1321" y="-368" as="sourcePoint" />
            <mxPoint x="1341" y="-379" as="targetPoint" />
          </mxGeometry>
        </mxCell>
        <mxCell id="CLw23MSYpjSKy58oMHuV-460" value="&lt;font style=&quot;background-color: rgb(0, 255, 0);&quot; color=&quot;#ff0000&quot;&gt;ELF&lt;/font&gt;ObjectWriter" style="swimlane;fontStyle=1;align=center;verticalAlign=middle;childLayout=stackLayout;horizontal=1;startSize=30;horizontalStack=0;resizeParent=1;resizeParentMax=0;resizeLast=0;collapsible=1;marginBottom=0;whiteSpace=wrap;html=1;fillColor=#d5e8d4;strokeColor=#82b366;fontSize=13;" parent="1" vertex="1" collapsed="1">
          <mxGeometry x="1030" y="-392.5" width="160" height="30" as="geometry">
            <mxRectangle x="390" y="220" width="160" height="56" as="alternateBounds" />
          </mxGeometry>
        </mxCell>
        <mxCell id="CLw23MSYpjSKy58oMHuV-461" value="+&amp;nbsp;&amp;nbsp;initAsmInfo()" style="text;strokeColor=none;fillColor=none;align=left;verticalAlign=top;spacingLeft=4;spacingRight=4;overflow=hidden;rotatable=0;points=[[0,0.5],[1,0.5]];portConstraint=eastwest;whiteSpace=wrap;html=1;" parent="CLw23MSYpjSKy58oMHuV-460" vertex="1">
          <mxGeometry y="30" width="160" height="26" as="geometry" />
        </mxCell>
        <mxCell id="CLw23MSYpjSKy58oMHuV-462" value="" style="endArrow=block;endSize=12;endFill=0;html=1;rounded=0;fontSize=13;" parent="1" source="CLw23MSYpjSKy58oMHuV-460" target="CLw23MSYpjSKy58oMHuV-463" edge="1">
          <mxGeometry width="160" relative="1" as="geometry">
            <mxPoint x="846" y="-430.5" as="sourcePoint" />
            <mxPoint x="805" y="-430.5" as="targetPoint" />
          </mxGeometry>
        </mxCell>
        <mxCell id="CLw23MSYpjSKy58oMHuV-463" value="MCObjectWriter" style="swimlane;fontStyle=1;align=center;verticalAlign=middle;childLayout=stackLayout;horizontal=1;startSize=40;horizontalStack=0;resizeParent=1;resizeParentMax=0;resizeLast=0;collapsible=1;marginBottom=0;whiteSpace=wrap;html=1;fillColor=#d5e8d4;strokeColor=#82b366;fontSize=13;" parent="1" vertex="1" collapsed="1">
          <mxGeometry x="1030" y="-327.5" width="160" height="30" as="geometry">
            <mxRectangle x="50" y="60" width="200" height="100" as="alternateBounds" />
          </mxGeometry>
        </mxCell>
        <mxCell id="CLw23MSYpjSKy58oMHuV-464" value="+&amp;nbsp;" style="text;strokeColor=none;fillColor=none;align=left;verticalAlign=top;spacingLeft=4;spacingRight=4;overflow=hidden;rotatable=0;points=[[0,0.5],[1,0.5]];portConstraint=eastwest;whiteSpace=wrap;html=1;" parent="CLw23MSYpjSKy58oMHuV-463" vertex="1">
          <mxGeometry y="40" width="200" height="26" as="geometry" />
        </mxCell>
        <mxCell id="CLw23MSYpjSKy58oMHuV-465" value="" style="line;strokeWidth=1;fillColor=none;align=left;verticalAlign=middle;spacingTop=-1;spacingLeft=3;spacingRight=3;rotatable=0;labelPosition=right;points=[];portConstraint=eastwest;strokeColor=inherit;" parent="CLw23MSYpjSKy58oMHuV-463" vertex="1">
          <mxGeometry y="66" width="200" height="8" as="geometry" />
        </mxCell>
        <mxCell id="CLw23MSYpjSKy58oMHuV-466" value="+&amp;nbsp;" style="text;strokeColor=none;fillColor=none;align=left;verticalAlign=top;spacingLeft=4;spacingRight=4;overflow=hidden;rotatable=0;points=[[0,0.5],[1,0.5]];portConstraint=eastwest;whiteSpace=wrap;html=1;" parent="CLw23MSYpjSKy58oMHuV-463" vertex="1">
          <mxGeometry y="74" width="200" height="26" as="geometry" />
        </mxCell>
        <mxCell id="CLw23MSYpjSKy58oMHuV-467" value="" style="endArrow=open;html=1;endSize=12;startArrow=diamondThin;startSize=14;startFill=1;align=left;verticalAlign=bottom;rounded=0;fontSize=13;edgeStyle=orthogonalEdgeStyle;exitX=1;exitY=0.5;exitDx=0;exitDy=0;" parent="1" source="CLw23MSYpjSKy58oMHuV-460" target="CLw23MSYpjSKy58oMHuV-451" edge="1">
          <mxGeometry relative="1" as="geometry">
            <mxPoint x="590" y="-400.5" as="sourcePoint" />
            <mxPoint x="1252" y="-370" as="targetPoint" />
          </mxGeometry>
        </mxCell>
        <mxCell id="CLw23MSYpjSKy58oMHuV-468" value="MC&lt;span style=&quot;background-color: rgb(0, 255, 0);&quot;&gt;&lt;font color=&quot;#ff0000&quot;&gt;ELF&lt;/font&gt;&lt;/span&gt;Streamer" style="swimlane;fontStyle=1;align=center;verticalAlign=middle;childLayout=stackLayout;horizontal=1;startSize=30;horizontalStack=0;resizeParent=1;resizeParentMax=0;resizeLast=0;collapsible=1;marginBottom=0;whiteSpace=wrap;html=1;fillColor=#d5e8d4;strokeColor=#82b366;fontSize=13;" parent="1" vertex="1" collapsed="1">
          <mxGeometry x="459" y="-126" width="160" height="30" as="geometry">
            <mxRectangle x="390" y="220" width="160" height="56" as="alternateBounds" />
          </mxGeometry>
        </mxCell>
        <mxCell id="CLw23MSYpjSKy58oMHuV-469" value="+&amp;nbsp;&amp;nbsp;initAsmInfo()" style="text;strokeColor=none;fillColor=none;align=left;verticalAlign=top;spacingLeft=4;spacingRight=4;overflow=hidden;rotatable=0;points=[[0,0.5],[1,0.5]];portConstraint=eastwest;whiteSpace=wrap;html=1;" parent="CLw23MSYpjSKy58oMHuV-468" vertex="1">
          <mxGeometry y="30" width="160" height="26" as="geometry" />
        </mxCell>
        <mxCell id="CLw23MSYpjSKy58oMHuV-470" value="X+MC&lt;font style=&quot;border-color: var(--border-color);&quot; color=&quot;#ff0000&quot;&gt;ELF&lt;/font&gt;Streamer" style="swimlane;fontStyle=1;align=center;verticalAlign=middle;childLayout=stackLayout;horizontal=1;startSize=30;horizontalStack=0;resizeParent=1;resizeParentMax=0;resizeLast=0;collapsible=1;marginBottom=0;whiteSpace=wrap;html=1;fillColor=#ffcccc;strokeColor=#36393d;fontSize=13;" parent="1" vertex="1" collapsed="1">
          <mxGeometry x="459" y="-66" width="160" height="30" as="geometry">
            <mxRectangle x="390" y="220" width="160" height="56" as="alternateBounds" />
          </mxGeometry>
        </mxCell>
        <mxCell id="CLw23MSYpjSKy58oMHuV-471" value="+&amp;nbsp;&amp;nbsp;initAsmInfo()" style="text;strokeColor=none;fillColor=none;align=left;verticalAlign=top;spacingLeft=4;spacingRight=4;overflow=hidden;rotatable=0;points=[[0,0.5],[1,0.5]];portConstraint=eastwest;whiteSpace=wrap;html=1;" parent="CLw23MSYpjSKy58oMHuV-470" vertex="1">
          <mxGeometry y="30" width="160" height="26" as="geometry" />
        </mxCell>
        <mxCell id="CLw23MSYpjSKy58oMHuV-472" value="MCObjectStreamer" style="swimlane;fontStyle=1;align=center;verticalAlign=middle;childLayout=stackLayout;horizontal=1;startSize=30;horizontalStack=0;resizeParent=1;resizeParentMax=0;resizeLast=0;collapsible=1;marginBottom=0;whiteSpace=wrap;html=1;fillColor=#d5e8d4;strokeColor=#82b366;fontSize=13;" parent="1" vertex="1" collapsed="1">
          <mxGeometry x="459" y="-187" width="160" height="30" as="geometry">
            <mxRectangle x="390" y="220" width="160" height="56" as="alternateBounds" />
          </mxGeometry>
        </mxCell>
        <mxCell id="CLw23MSYpjSKy58oMHuV-473" value="+&amp;nbsp;&amp;nbsp;initAsmInfo()" style="text;strokeColor=none;fillColor=none;align=left;verticalAlign=top;spacingLeft=4;spacingRight=4;overflow=hidden;rotatable=0;points=[[0,0.5],[1,0.5]];portConstraint=eastwest;whiteSpace=wrap;html=1;" parent="CLw23MSYpjSKy58oMHuV-472" vertex="1">
          <mxGeometry y="30" width="160" height="26" as="geometry" />
        </mxCell>
        <mxCell id="CLw23MSYpjSKy58oMHuV-474" value="" style="endArrow=block;endSize=12;endFill=0;html=1;rounded=0;fontSize=13;entryX=0.5;entryY=1;entryDx=0;entryDy=0;" parent="1" source="CLw23MSYpjSKy58oMHuV-472" target="CLw23MSYpjSKy58oMHuV-417" edge="1">
          <mxGeometry width="160" relative="1" as="geometry">
            <mxPoint x="424" y="-172" as="sourcePoint" />
            <mxPoint x="383" y="-172" as="targetPoint" />
          </mxGeometry>
        </mxCell>
        <mxCell id="CLw23MSYpjSKy58oMHuV-475" value="" style="endArrow=block;endSize=12;endFill=0;html=1;rounded=0;fontSize=13;entryX=0.5;entryY=1;entryDx=0;entryDy=0;exitX=0.5;exitY=0;exitDx=0;exitDy=0;" parent="1" source="CLw23MSYpjSKy58oMHuV-468" target="CLw23MSYpjSKy58oMHuV-472" edge="1">
          <mxGeometry width="160" relative="1" as="geometry">
            <mxPoint x="549" y="-176" as="sourcePoint" />
            <mxPoint x="549" y="-207" as="targetPoint" />
          </mxGeometry>
        </mxCell>
        <mxCell id="CLw23MSYpjSKy58oMHuV-476" value="" style="endArrow=block;endSize=12;endFill=0;html=1;rounded=0;fontSize=13;entryX=0.5;entryY=1;entryDx=0;entryDy=0;exitX=0.5;exitY=0;exitDx=0;exitDy=0;" parent="1" source="CLw23MSYpjSKy58oMHuV-470" target="CLw23MSYpjSKy58oMHuV-468" edge="1">
          <mxGeometry width="160" relative="1" as="geometry">
            <mxPoint x="549" y="-176" as="sourcePoint" />
            <mxPoint x="549" y="-207" as="targetPoint" />
          </mxGeometry>
        </mxCell>
        <mxCell id="CLw23MSYpjSKy58oMHuV-477" value="&lt;span style=&quot;background-color: rgb(0, 255, 0);&quot;&gt;&lt;font color=&quot;#ff0000&quot;&gt;ELF&lt;/font&gt;&lt;/span&gt;SingleObjectWriter" style="swimlane;fontStyle=1;align=right;verticalAlign=middle;childLayout=stackLayout;horizontal=1;startSize=30;horizontalStack=0;resizeParent=1;resizeParentMax=0;resizeLast=0;collapsible=1;marginBottom=0;whiteSpace=wrap;html=1;fillColor=#d5e8d4;strokeColor=#82b366;fontSize=13;" parent="1" vertex="1" collapsed="1">
          <mxGeometry x="1030" y="-450.5" width="160" height="30" as="geometry">
            <mxRectangle x="390" y="220" width="160" height="56" as="alternateBounds" />
          </mxGeometry>
        </mxCell>
        <mxCell id="CLw23MSYpjSKy58oMHuV-478" value="+&amp;nbsp;&amp;nbsp;initAsmInfo()" style="text;strokeColor=none;fillColor=none;align=left;verticalAlign=top;spacingLeft=4;spacingRight=4;overflow=hidden;rotatable=0;points=[[0,0.5],[1,0.5]];portConstraint=eastwest;whiteSpace=wrap;html=1;" parent="CLw23MSYpjSKy58oMHuV-477" vertex="1">
          <mxGeometry y="30" width="160" height="26" as="geometry" />
        </mxCell>
        <mxCell id="CLw23MSYpjSKy58oMHuV-479" value="" style="endArrow=block;endSize=12;endFill=0;html=1;rounded=0;fontSize=13;exitX=0.5;exitY=1;exitDx=0;exitDy=0;" parent="1" source="CLw23MSYpjSKy58oMHuV-477" target="CLw23MSYpjSKy58oMHuV-460" edge="1">
          <mxGeometry width="160" relative="1" as="geometry">
            <mxPoint x="1120" y="-352.5" as="sourcePoint" />
            <mxPoint x="1120" y="-309.5" as="targetPoint" />
          </mxGeometry>
        </mxCell>
        <mxCell id="CLw23MSYpjSKy58oMHuV-480" value="MCAssembler" style="swimlane;fontStyle=1;align=center;verticalAlign=middle;childLayout=stackLayout;horizontal=1;startSize=40;horizontalStack=0;resizeParent=1;resizeParentMax=0;resizeLast=0;collapsible=1;marginBottom=0;whiteSpace=wrap;html=1;fillColor=#d5e8d4;strokeColor=#82b366;fontSize=13;" parent="1" vertex="1" collapsed="1">
          <mxGeometry x="883" y="-279" width="160" height="30" as="geometry">
            <mxRectangle x="50" y="60" width="200" height="100" as="alternateBounds" />
          </mxGeometry>
        </mxCell>
        <mxCell id="CLw23MSYpjSKy58oMHuV-481" value="+&amp;nbsp;" style="text;strokeColor=none;fillColor=none;align=left;verticalAlign=top;spacingLeft=4;spacingRight=4;overflow=hidden;rotatable=0;points=[[0,0.5],[1,0.5]];portConstraint=eastwest;whiteSpace=wrap;html=1;" parent="CLw23MSYpjSKy58oMHuV-480" vertex="1">
          <mxGeometry y="40" width="200" height="26" as="geometry" />
        </mxCell>
        <mxCell id="CLw23MSYpjSKy58oMHuV-482" value="" style="line;strokeWidth=1;fillColor=none;align=left;verticalAlign=middle;spacingTop=-1;spacingLeft=3;spacingRight=3;rotatable=0;labelPosition=right;points=[];portConstraint=eastwest;strokeColor=inherit;" parent="CLw23MSYpjSKy58oMHuV-480" vertex="1">
          <mxGeometry y="66" width="200" height="8" as="geometry" />
        </mxCell>
        <mxCell id="CLw23MSYpjSKy58oMHuV-483" value="+&amp;nbsp;" style="text;strokeColor=none;fillColor=none;align=left;verticalAlign=top;spacingLeft=4;spacingRight=4;overflow=hidden;rotatable=0;points=[[0,0.5],[1,0.5]];portConstraint=eastwest;whiteSpace=wrap;html=1;" parent="CLw23MSYpjSKy58oMHuV-480" vertex="1">
          <mxGeometry y="74" width="200" height="26" as="geometry" />
        </mxCell>
        <mxCell id="CLw23MSYpjSKy58oMHuV-484" value="1" style="endArrow=openThin;html=1;endSize=12;startArrow=diamondThin;startSize=14;startFill=1;edgeStyle=orthogonalEdgeStyle;align=left;verticalAlign=bottom;rounded=0;endFill=0;entryX=0.5;entryY=1;entryDx=0;entryDy=0;fontSize=13;" parent="1" source="CLw23MSYpjSKy58oMHuV-472" target="CLw23MSYpjSKy58oMHuV-480" edge="1">
          <mxGeometry x="-0.9151" y="-17" relative="1" as="geometry">
            <mxPoint x="636" y="-206" as="sourcePoint" />
            <mxPoint x="490" y="36" as="targetPoint" />
            <Array as="points">
              <mxPoint x="963" y="-168" />
            </Array>
            <mxPoint as="offset" />
          </mxGeometry>
        </mxCell>
        <mxCell id="CLw23MSYpjSKy58oMHuV-485" value="Assembler" style="edgeLabel;html=1;align=center;verticalAlign=middle;resizable=0;points=[];fontSize=13;" parent="CLw23MSYpjSKy58oMHuV-484" vertex="1" connectable="0">
          <mxGeometry x="-0.1844" y="-1" relative="1" as="geometry">
            <mxPoint x="131" y="-23" as="offset" />
          </mxGeometry>
        </mxCell>
        <mxCell id="CLw23MSYpjSKy58oMHuV-493" value="" style="endArrow=openThin;html=1;endSize=12;startArrow=diamondThin;startSize=14;startFill=1;edgeStyle=orthogonalEdgeStyle;align=left;verticalAlign=bottom;rounded=0;endFill=0;fontSize=13;exitX=1;exitY=0.5;exitDx=0;exitDy=0;entryX=0.5;entryY=1;entryDx=0;entryDy=0;" parent="1" edge="1">
          <mxGeometry relative="1" as="geometry">
            <mxPoint x="1042" y="-263" as="sourcePoint" />
            <mxPoint x="1111" y="-297.5" as="targetPoint" />
            <Array as="points">
              <mxPoint x="1111" y="-263" />
            </Array>
          </mxGeometry>
        </mxCell>
        <mxCell id="CLw23MSYpjSKy58oMHuV-494" value="Backend" style="edgeLabel;html=1;align=center;verticalAlign=middle;resizable=0;points=[];fontSize=13;" parent="CLw23MSYpjSKy58oMHuV-493" vertex="1" connectable="0">
          <mxGeometry x="-0.1844" y="-1" relative="1" as="geometry">
            <mxPoint x="73" y="19" as="offset" />
          </mxGeometry>
        </mxCell>
        <mxCell id="CLw23MSYpjSKy58oMHuV-495" value="" style="endArrow=openThin;html=1;endSize=12;startArrow=diamondThin;startSize=14;startFill=1;edgeStyle=orthogonalEdgeStyle;align=left;verticalAlign=bottom;rounded=0;endFill=0;fontSize=13;exitX=1;exitY=0.5;exitDx=0;exitDy=0;" parent="1" edge="1">
          <mxGeometry relative="1" as="geometry">
            <mxPoint x="1041" y="-263" as="sourcePoint" />
            <mxPoint x="1111" y="-222" as="targetPoint" />
          </mxGeometry>
        </mxCell>
        <mxCell id="CLw23MSYpjSKy58oMHuV-496" value="Writer" style="edgeLabel;html=1;align=center;verticalAlign=middle;resizable=0;points=[];fontSize=13;" parent="CLw23MSYpjSKy58oMHuV-495" vertex="1" connectable="0">
          <mxGeometry x="-0.1844" y="-1" relative="1" as="geometry">
            <mxPoint x="61" y="-18" as="offset" />
          </mxGeometry>
        </mxCell>
        <mxCell id="CLw23MSYpjSKy58oMHuV-497" value="" style="endArrow=openThin;html=1;endSize=12;startArrow=diamondThin;startSize=14;startFill=1;edgeStyle=orthogonalEdgeStyle;align=left;verticalAlign=bottom;rounded=0;endFill=0;fontSize=13;exitX=1;exitY=0.5;exitDx=0;exitDy=0;entryX=0.5;entryY=0;entryDx=0;entryDy=0;" parent="1" target="CLw23MSYpjSKy58oMHuV-422" edge="1">
          <mxGeometry relative="1" as="geometry">
            <mxPoint x="1041" y="-263" as="sourcePoint" />
            <mxPoint x="1359.9999999999995" y="-221.25" as="targetPoint" />
          </mxGeometry>
        </mxCell>
        <mxCell id="CLw23MSYpjSKy58oMHuV-498" value="Emitter" style="edgeLabel;html=1;align=center;verticalAlign=middle;resizable=0;points=[];fontSize=13;" parent="CLw23MSYpjSKy58oMHuV-497" vertex="1" connectable="0">
          <mxGeometry x="-0.1844" y="-1" relative="1" as="geometry">
            <mxPoint x="173" y="19" as="offset" />
          </mxGeometry>
        </mxCell>
        <mxCell id="CLw23MSYpjSKy58oMHuV-499" value="X+AsmPrinter" style="swimlane;fontStyle=1;align=center;verticalAlign=middle;childLayout=stackLayout;horizontal=1;startSize=30;horizontalStack=0;resizeParent=1;resizeParentMax=0;resizeLast=0;collapsible=1;marginBottom=0;whiteSpace=wrap;html=1;fillColor=#ffcccc;strokeColor=#36393d;fontSize=13;" parent="1" vertex="1" collapsed="1">
          <mxGeometry x="243.5" y="-208" width="160" height="30" as="geometry">
            <mxRectangle x="390" y="220" width="160" height="56" as="alternateBounds" />
          </mxGeometry>
        </mxCell>
        <mxCell id="CLw23MSYpjSKy58oMHuV-500" value="+&amp;nbsp;&amp;nbsp;initAsmInfo()" style="text;strokeColor=none;fillColor=none;align=left;verticalAlign=top;spacingLeft=4;spacingRight=4;overflow=hidden;rotatable=0;points=[[0,0.5],[1,0.5]];portConstraint=eastwest;whiteSpace=wrap;html=1;" parent="CLw23MSYpjSKy58oMHuV-499" vertex="1">
          <mxGeometry y="30" width="160" height="26" as="geometry" />
        </mxCell>
        <mxCell id="CLw23MSYpjSKy58oMHuV-501" value="" style="endArrow=block;endSize=12;endFill=0;html=1;rounded=0;fontSize=13;exitX=0.5;exitY=0;exitDx=0;exitDy=0;" parent="1" source="CLw23MSYpjSKy58oMHuV-499" target="CLw23MSYpjSKy58oMHuV-407" edge="1">
          <mxGeometry width="160" relative="1" as="geometry">
            <mxPoint x="456" y="-474" as="sourcePoint" />
            <mxPoint x="324" y="-255" as="targetPoint" />
          </mxGeometry>
        </mxCell>
        <mxCell id="CLw23MSYpjSKy58oMHuV-502" value="X+InstPrinter" style="swimlane;fontStyle=1;align=center;verticalAlign=middle;childLayout=stackLayout;horizontal=1;startSize=30;horizontalStack=0;resizeParent=1;resizeParentMax=0;resizeLast=0;collapsible=1;marginBottom=0;whiteSpace=wrap;html=1;fillColor=#ffcccc;strokeColor=#36393d;fontSize=13;" parent="1" vertex="1" collapsed="1">
          <mxGeometry x="459" y="-568" width="160" height="30" as="geometry">
            <mxRectangle x="390" y="220" width="160" height="56" as="alternateBounds" />
          </mxGeometry>
        </mxCell>
        <mxCell id="CLw23MSYpjSKy58oMHuV-503" value="+&amp;nbsp;&amp;nbsp;initAsmInfo()" style="text;strokeColor=none;fillColor=none;align=left;verticalAlign=top;spacingLeft=4;spacingRight=4;overflow=hidden;rotatable=0;points=[[0,0.5],[1,0.5]];portConstraint=eastwest;whiteSpace=wrap;html=1;" parent="CLw23MSYpjSKy58oMHuV-502" vertex="1">
          <mxGeometry y="30" width="160" height="26" as="geometry" />
        </mxCell>
        <mxCell id="CLw23MSYpjSKy58oMHuV-504" value="" style="endArrow=block;endSize=12;endFill=0;html=1;rounded=0;fontSize=13;" parent="1" source="CLw23MSYpjSKy58oMHuV-502" target="CLw23MSYpjSKy58oMHuV-505" edge="1">
          <mxGeometry width="160" relative="1" as="geometry">
            <mxPoint x="275" y="-604.51" as="sourcePoint" />
            <mxPoint x="234" y="-604.51" as="targetPoint" />
          </mxGeometry>
        </mxCell>
        <mxCell id="CLw23MSYpjSKy58oMHuV-505" value="MCInstPrinter" style="swimlane;fontStyle=1;align=center;verticalAlign=middle;childLayout=stackLayout;horizontal=1;startSize=40;horizontalStack=0;resizeParent=1;resizeParentMax=0;resizeLast=0;collapsible=1;marginBottom=0;whiteSpace=wrap;html=1;fillColor=#d5e8d4;strokeColor=#82b366;fontSize=13;" parent="1" vertex="1" collapsed="1">
          <mxGeometry x="459" y="-493.51" width="160" height="30" as="geometry">
            <mxRectangle x="50" y="60" width="200" height="100" as="alternateBounds" />
          </mxGeometry>
        </mxCell>
        <mxCell id="CLw23MSYpjSKy58oMHuV-506" value="+&amp;nbsp;" style="text;strokeColor=none;fillColor=none;align=left;verticalAlign=top;spacingLeft=4;spacingRight=4;overflow=hidden;rotatable=0;points=[[0,0.5],[1,0.5]];portConstraint=eastwest;whiteSpace=wrap;html=1;" parent="CLw23MSYpjSKy58oMHuV-505" vertex="1">
          <mxGeometry y="40" width="200" height="26" as="geometry" />
        </mxCell>
        <mxCell id="CLw23MSYpjSKy58oMHuV-507" value="" style="line;strokeWidth=1;fillColor=none;align=left;verticalAlign=middle;spacingTop=-1;spacingLeft=3;spacingRight=3;rotatable=0;labelPosition=right;points=[];portConstraint=eastwest;strokeColor=inherit;" parent="CLw23MSYpjSKy58oMHuV-505" vertex="1">
          <mxGeometry y="66" width="200" height="8" as="geometry" />
        </mxCell>
        <mxCell id="CLw23MSYpjSKy58oMHuV-508" value="+&amp;nbsp;" style="text;strokeColor=none;fillColor=none;align=left;verticalAlign=top;spacingLeft=4;spacingRight=4;overflow=hidden;rotatable=0;points=[[0,0.5],[1,0.5]];portConstraint=eastwest;whiteSpace=wrap;html=1;" parent="CLw23MSYpjSKy58oMHuV-505" vertex="1">
          <mxGeometry y="74" width="200" height="26" as="geometry" />
        </mxCell>
        <mxCell id="CLw23MSYpjSKy58oMHuV-510" value="MCAsmStreamer" style="swimlane;fontStyle=1;align=center;verticalAlign=middle;childLayout=stackLayout;horizontal=1;startSize=40;horizontalStack=0;resizeParent=1;resizeParentMax=0;resizeLast=0;collapsible=1;marginBottom=0;whiteSpace=wrap;html=1;fillColor=#d5e8d4;strokeColor=#82b366;fontSize=13;" parent="1" vertex="1" collapsed="1">
          <mxGeometry x="459" y="-384" width="160" height="30" as="geometry">
            <mxRectangle x="50" y="60" width="200" height="100" as="alternateBounds" />
          </mxGeometry>
        </mxCell>
        <mxCell id="CLw23MSYpjSKy58oMHuV-511" value="+&amp;nbsp;" style="text;strokeColor=none;fillColor=none;align=left;verticalAlign=top;spacingLeft=4;spacingRight=4;overflow=hidden;rotatable=0;points=[[0,0.5],[1,0.5]];portConstraint=eastwest;whiteSpace=wrap;html=1;" parent="CLw23MSYpjSKy58oMHuV-510" vertex="1">
          <mxGeometry y="40" width="200" height="26" as="geometry" />
        </mxCell>
        <mxCell id="CLw23MSYpjSKy58oMHuV-512" value="" style="line;strokeWidth=1;fillColor=none;align=left;verticalAlign=middle;spacingTop=-1;spacingLeft=3;spacingRight=3;rotatable=0;labelPosition=right;points=[];portConstraint=eastwest;strokeColor=inherit;" parent="CLw23MSYpjSKy58oMHuV-510" vertex="1">
          <mxGeometry y="66" width="200" height="8" as="geometry" />
        </mxCell>
        <mxCell id="CLw23MSYpjSKy58oMHuV-513" value="+&amp;nbsp;" style="text;strokeColor=none;fillColor=none;align=left;verticalAlign=top;spacingLeft=4;spacingRight=4;overflow=hidden;rotatable=0;points=[[0,0.5],[1,0.5]];portConstraint=eastwest;whiteSpace=wrap;html=1;" parent="CLw23MSYpjSKy58oMHuV-510" vertex="1">
          <mxGeometry y="74" width="200" height="26" as="geometry" />
        </mxCell>
        <mxCell id="CLw23MSYpjSKy58oMHuV-514" value="" style="endArrow=block;endSize=12;endFill=0;html=1;rounded=0;fontSize=13;entryX=0.5;entryY=0;entryDx=0;entryDy=0;exitX=0.5;exitY=1;exitDx=0;exitDy=0;" parent="1" source="CLw23MSYpjSKy58oMHuV-510" target="CLw23MSYpjSKy58oMHuV-417" edge="1">
          <mxGeometry width="160" relative="1" as="geometry">
            <mxPoint x="549" y="-211" as="sourcePoint" />
            <mxPoint x="549" y="-241" as="targetPoint" />
          </mxGeometry>
        </mxCell>
        <mxCell id="CLw23MSYpjSKy58oMHuV-517" value="1" style="endArrow=openThin;html=1;endSize=12;startArrow=diamondThin;startSize=14;startFill=1;edgeStyle=orthogonalEdgeStyle;align=left;verticalAlign=bottom;rounded=0;endFill=0;entryX=0.5;entryY=1;entryDx=0;entryDy=0;fontSize=13;exitX=0.5;exitY=0;exitDx=0;exitDy=0;" parent="1" source="CLw23MSYpjSKy58oMHuV-510" target="CLw23MSYpjSKy58oMHuV-505" edge="1">
          <mxGeometry x="-1" y="-22" relative="1" as="geometry">
            <mxPoint x="701" y="-460" as="sourcePoint" />
            <mxPoint x="701" y="-286" as="targetPoint" />
            <mxPoint as="offset" />
          </mxGeometry>
        </mxCell>
        <mxCell id="CLw23MSYpjSKy58oMHuV-518" value="InstPrinter" style="edgeLabel;html=1;align=center;verticalAlign=middle;resizable=0;points=[];fontSize=13;" parent="CLw23MSYpjSKy58oMHuV-517" vertex="1" connectable="0">
          <mxGeometry x="-0.1844" y="-1" relative="1" as="geometry">
            <mxPoint x="7" y="-9" as="offset" />
          </mxGeometry>
        </mxCell>
        <mxCell id="CLw23MSYpjSKy58oMHuV-519" value="MCAsmInfo" style="swimlane;fontStyle=1;align=center;verticalAlign=middle;childLayout=stackLayout;horizontal=1;startSize=40;horizontalStack=0;resizeParent=1;resizeParentMax=0;resizeLast=0;collapsible=1;marginBottom=0;whiteSpace=wrap;html=1;fillColor=#d5e8d4;strokeColor=#82b366;fontSize=13;" parent="1" vertex="1" collapsed="1">
          <mxGeometry x="654" y="-491" width="160" height="30" as="geometry">
            <mxRectangle x="50" y="60" width="200" height="100" as="alternateBounds" />
          </mxGeometry>
        </mxCell>
        <mxCell id="CLw23MSYpjSKy58oMHuV-520" value="+&amp;nbsp;" style="text;strokeColor=none;fillColor=none;align=left;verticalAlign=top;spacingLeft=4;spacingRight=4;overflow=hidden;rotatable=0;points=[[0,0.5],[1,0.5]];portConstraint=eastwest;whiteSpace=wrap;html=1;" parent="CLw23MSYpjSKy58oMHuV-519" vertex="1">
          <mxGeometry y="40" width="200" height="26" as="geometry" />
        </mxCell>
        <mxCell id="CLw23MSYpjSKy58oMHuV-521" value="" style="line;strokeWidth=1;fillColor=none;align=left;verticalAlign=middle;spacingTop=-1;spacingLeft=3;spacingRight=3;rotatable=0;labelPosition=right;points=[];portConstraint=eastwest;strokeColor=inherit;" parent="CLw23MSYpjSKy58oMHuV-519" vertex="1">
          <mxGeometry y="66" width="200" height="8" as="geometry" />
        </mxCell>
        <mxCell id="CLw23MSYpjSKy58oMHuV-522" value="+&amp;nbsp;" style="text;strokeColor=none;fillColor=none;align=left;verticalAlign=top;spacingLeft=4;spacingRight=4;overflow=hidden;rotatable=0;points=[[0,0.5],[1,0.5]];portConstraint=eastwest;whiteSpace=wrap;html=1;" parent="CLw23MSYpjSKy58oMHuV-519" vertex="1">
          <mxGeometry y="74" width="200" height="26" as="geometry" />
        </mxCell>
        <mxCell id="CLw23MSYpjSKy58oMHuV-524" value="1" style="endArrow=openThin;html=1;endSize=12;startArrow=diamondThin;startSize=14;startFill=1;edgeStyle=orthogonalEdgeStyle;align=left;verticalAlign=bottom;rounded=0;endFill=0;entryX=0.5;entryY=1;entryDx=0;entryDy=0;fontSize=13;exitX=0.75;exitY=0;exitDx=0;exitDy=0;" parent="1" source="CLw23MSYpjSKy58oMHuV-510" target="CLw23MSYpjSKy58oMHuV-519" edge="1">
          <mxGeometry x="-1" y="-22" relative="1" as="geometry">
            <mxPoint x="559" y="-374" as="sourcePoint" />
            <mxPoint x="559" y="-454" as="targetPoint" />
            <mxPoint as="offset" />
          </mxGeometry>
        </mxCell>
        <mxCell id="CLw23MSYpjSKy58oMHuV-525" value="&amp;nbsp;ref* MAI" style="edgeLabel;html=1;align=center;verticalAlign=middle;resizable=0;points=[];fontSize=13;" parent="CLw23MSYpjSKy58oMHuV-524" vertex="1" connectable="0">
          <mxGeometry x="-0.1844" y="-1" relative="1" as="geometry">
            <mxPoint x="6" y="-13" as="offset" />
          </mxGeometry>
        </mxCell>
        <mxCell id="CLw23MSYpjSKy58oMHuV-526" value="1" style="endArrow=openThin;html=1;endSize=12;startArrow=diamondThin;startSize=14;startFill=1;edgeStyle=orthogonalEdgeStyle;align=left;verticalAlign=bottom;rounded=0;endFill=0;entryX=0.5;entryY=0;entryDx=0;entryDy=0;fontSize=13;exitX=1;exitY=0.5;exitDx=0;exitDy=0;" parent="1" source="CLw23MSYpjSKy58oMHuV-510" target="CLw23MSYpjSKy58oMHuV-480" edge="1">
          <mxGeometry x="-0.9543" y="-26" relative="1" as="geometry">
            <mxPoint x="639" y="-196" as="sourcePoint" />
            <mxPoint x="973" y="-239" as="targetPoint" />
            <mxPoint as="offset" />
          </mxGeometry>
        </mxCell>
        <mxCell id="CLw23MSYpjSKy58oMHuV-527" value="Assembler" style="edgeLabel;html=1;align=center;verticalAlign=middle;resizable=0;points=[];fontSize=13;" parent="CLw23MSYpjSKy58oMHuV-526" vertex="1" connectable="0">
          <mxGeometry x="-0.1844" y="-1" relative="1" as="geometry">
            <mxPoint x="124" y="26" as="offset" />
          </mxGeometry>
        </mxCell>
        <mxCell id="CLw23MSYpjSKy58oMHuV-528" value="X+TargetAsmStreamer" style="swimlane;fontStyle=1;align=right;verticalAlign=middle;childLayout=stackLayout;horizontal=1;startSize=30;horizontalStack=0;resizeParent=1;resizeParentMax=0;resizeLast=0;collapsible=1;marginBottom=0;whiteSpace=wrap;html=1;fillColor=#ffcccc;strokeColor=#36393d;fontSize=13;" parent="1" vertex="1" collapsed="1">
          <mxGeometry x="698" y="-363.5" width="160" height="30" as="geometry">
            <mxRectangle x="390" y="220" width="160" height="56" as="alternateBounds" />
          </mxGeometry>
        </mxCell>
        <mxCell id="CLw23MSYpjSKy58oMHuV-529" value="+&amp;nbsp;&amp;nbsp;initAsmInfo()" style="text;strokeColor=none;fillColor=none;align=left;verticalAlign=top;spacingLeft=4;spacingRight=4;overflow=hidden;rotatable=0;points=[[0,0.5],[1,0.5]];portConstraint=eastwest;whiteSpace=wrap;html=1;" parent="CLw23MSYpjSKy58oMHuV-528" vertex="1">
          <mxGeometry y="30" width="160" height="26" as="geometry" />
        </mxCell>
        <mxCell id="CLw23MSYpjSKy58oMHuV-530" value="" style="endArrow=block;endSize=12;endFill=0;html=1;rounded=0;fontSize=13;exitX=0.5;exitY=1;exitDx=0;exitDy=0;" parent="1" source="CLw23MSYpjSKy58oMHuV-528" target="CLw23MSYpjSKy58oMHuV-435" edge="1">
          <mxGeometry width="160" relative="1" as="geometry">
            <mxPoint x="559" y="-314" as="sourcePoint" />
            <mxPoint x="559" y="-271" as="targetPoint" />
          </mxGeometry>
        </mxCell>
        <mxCell id="CLw23MSYpjSKy58oMHuV-531" value="X+Target&lt;span style=&quot;background-color: rgb(0, 255, 0);&quot;&gt;&lt;font color=&quot;#ff0000&quot;&gt;ELF&lt;/font&gt;&lt;/span&gt;Streamer" style="swimlane;fontStyle=1;align=right;verticalAlign=middle;childLayout=stackLayout;horizontal=1;startSize=30;horizontalStack=0;resizeParent=1;resizeParentMax=0;resizeLast=0;collapsible=1;marginBottom=0;whiteSpace=wrap;html=1;fillColor=#ffcccc;strokeColor=#36393d;fontSize=13;" parent="1" vertex="1" collapsed="1">
          <mxGeometry x="698" y="-204" width="160" height="30" as="geometry">
            <mxRectangle x="390" y="220" width="160" height="56" as="alternateBounds" />
          </mxGeometry>
        </mxCell>
        <mxCell id="CLw23MSYpjSKy58oMHuV-532" value="+&amp;nbsp;&amp;nbsp;initAsmInfo()" style="text;strokeColor=none;fillColor=none;align=left;verticalAlign=top;spacingLeft=4;spacingRight=4;overflow=hidden;rotatable=0;points=[[0,0.5],[1,0.5]];portConstraint=eastwest;whiteSpace=wrap;html=1;" parent="CLw23MSYpjSKy58oMHuV-531" vertex="1">
          <mxGeometry y="30" width="160" height="26" as="geometry" />
        </mxCell>
        <mxCell id="CLw23MSYpjSKy58oMHuV-533" value="" style="endArrow=block;endSize=12;endFill=0;html=1;rounded=0;fontSize=13;entryX=0.5;entryY=1;entryDx=0;entryDy=0;" parent="1" source="CLw23MSYpjSKy58oMHuV-531" target="CLw23MSYpjSKy58oMHuV-435" edge="1">
          <mxGeometry width="160" relative="1" as="geometry">
            <mxPoint x="788" y="-323" as="sourcePoint" />
            <mxPoint x="788" y="-271" as="targetPoint" />
          </mxGeometry>
        </mxCell>
        <mxCell id="CLw23MSYpjSKy58oMHuV-536" value="X+TargetStreamer" style="text;html=1;strokeColor=none;fillColor=none;align=center;verticalAlign=middle;whiteSpace=wrap;rounded=0;rotation=0;" parent="1" vertex="1">
          <mxGeometry x="783" y="-254" width="131" height="30" as="geometry" />
        </mxCell>
        <mxCell id="jq3bAAN9FsQ__k8qv7md-3" value="SelectionDAGTargetInfo" style="swimlane;fontStyle=1;align=right;verticalAlign=middle;childLayout=stackLayout;horizontal=1;startSize=30;horizontalStack=0;resizeParent=1;resizeParentMax=0;resizeLast=0;collapsible=1;marginBottom=0;whiteSpace=wrap;html=1;fillColor=#d5e8d4;strokeColor=#82b366;fontSize=13;" vertex="1" collapsed="1" parent="1">
          <mxGeometry x="653" y="494" width="173" height="30" as="geometry">
            <mxRectangle x="390" y="220" width="160" height="56" as="alternateBounds" />
          </mxGeometry>
        </mxCell>
        <mxCell id="jq3bAAN9FsQ__k8qv7md-4" value="+&amp;nbsp;&amp;nbsp;initAsmInfo()" style="text;strokeColor=none;fillColor=none;align=left;verticalAlign=top;spacingLeft=4;spacingRight=4;overflow=hidden;rotatable=0;points=[[0,0.5],[1,0.5]];portConstraint=eastwest;whiteSpace=wrap;html=1;" vertex="1" parent="jq3bAAN9FsQ__k8qv7md-3">
          <mxGeometry y="30" width="160" height="26" as="geometry" />
        </mxCell>
        <mxCell id="jq3bAAN9FsQ__k8qv7md-5" value="" style="endArrow=openThin;html=1;endSize=12;startArrow=diamondThin;startSize=14;startFill=1;edgeStyle=orthogonalEdgeStyle;align=left;verticalAlign=bottom;rounded=0;endFill=0;fontSize=13;exitX=0.796;exitY=0.036;exitDx=0;exitDy=0;entryX=0;entryY=0.5;entryDx=0;entryDy=0;exitPerimeter=0;" edge="1" parent="1" source="CLw23MSYpjSKy58oMHuV-38" target="jq3bAAN9FsQ__k8qv7md-3">
          <mxGeometry relative="1" as="geometry">
            <mxPoint x="635" y="564" as="sourcePoint" />
            <mxPoint x="919" y="589" as="targetPoint" />
            <Array as="points">
              <mxPoint x="592" y="509" />
            </Array>
          </mxGeometry>
        </mxCell>
        <mxCell id="jq3bAAN9FsQ__k8qv7md-6" value="TSInfo" style="edgeLabel;html=1;align=center;verticalAlign=middle;resizable=0;points=[];fontSize=13;" vertex="1" connectable="0" parent="jq3bAAN9FsQ__k8qv7md-5">
          <mxGeometry x="-0.1844" y="-1" relative="1" as="geometry">
            <mxPoint x="15" y="-14" as="offset" />
          </mxGeometry>
        </mxCell>
        <mxCell id="jq3bAAN9FsQ__k8qv7md-7" value="createXXX hooks" style="swimlane;fontStyle=1;align=center;verticalAlign=middle;childLayout=stackLayout;horizontal=1;startSize=30;horizontalStack=0;resizeParent=1;resizeParentMax=0;resizeLast=0;collapsible=1;marginBottom=0;whiteSpace=wrap;html=1;fillColor=#fff2cc;strokeColor=#d6b656;fontSize=13;" vertex="1" collapsed="1" parent="1">
          <mxGeometry x="106" y="207" width="160" height="30" as="geometry">
            <mxRectangle x="390" y="220" width="160" height="56" as="alternateBounds" />
          </mxGeometry>
        </mxCell>
        <mxCell id="jq3bAAN9FsQ__k8qv7md-8" value="+&amp;nbsp;&amp;nbsp;initAsmInfo()" style="text;strokeColor=none;fillColor=none;align=left;verticalAlign=top;spacingLeft=4;spacingRight=4;overflow=hidden;rotatable=0;points=[[0,0.5],[1,0.5]];portConstraint=eastwest;whiteSpace=wrap;html=1;" vertex="1" parent="jq3bAAN9FsQ__k8qv7md-7">
          <mxGeometry y="30" width="160" height="26" as="geometry" />
        </mxCell>
        <mxCell id="jq3bAAN9FsQ__k8qv7md-9" value="N" style="endArrow=openThin;html=1;endSize=12;startArrow=diamondThin;startSize=14;startFill=1;edgeStyle=orthogonalEdgeStyle;align=left;verticalAlign=bottom;rounded=0;endFill=0;fontSize=13;entryX=0.5;entryY=1;entryDx=0;entryDy=0;" edge="1" parent="1" source="CLw23MSYpjSKy58oMHuV-54" target="jq3bAAN9FsQ__k8qv7md-7">
          <mxGeometry x="-1" y="20" relative="1" as="geometry">
            <mxPoint x="36" y="348" as="sourcePoint" />
            <mxPoint x="136" y="270" as="targetPoint" />
            <mxPoint as="offset" />
          </mxGeometry>
        </mxCell>
        <mxCell id="jq3bAAN9FsQ__k8qv7md-10" value="Targets" style="edgeLabel;html=1;align=center;verticalAlign=middle;resizable=0;points=[];fontSize=13;" vertex="1" connectable="0" parent="jq3bAAN9FsQ__k8qv7md-9">
          <mxGeometry x="0.0184" y="-1" relative="1" as="geometry">
            <mxPoint x="29" y="1" as="offset" />
          </mxGeometry>
        </mxCell>
        <mxCell id="jq3bAAN9FsQ__k8qv7md-11" value="X+CMInstLower" style="swimlane;fontStyle=1;align=center;verticalAlign=middle;childLayout=stackLayout;horizontal=1;startSize=30;horizontalStack=0;resizeParent=1;resizeParentMax=0;resizeLast=0;collapsible=1;marginBottom=0;whiteSpace=wrap;html=1;fillColor=#ffcccc;strokeColor=#36393d;fontSize=13;" vertex="1" collapsed="1" parent="1">
          <mxGeometry x="266" y="-115.25" width="160" height="30" as="geometry">
            <mxRectangle x="390" y="220" width="160" height="56" as="alternateBounds" />
          </mxGeometry>
        </mxCell>
        <mxCell id="jq3bAAN9FsQ__k8qv7md-12" value="+&amp;nbsp;&amp;nbsp;initAsmInfo()" style="text;strokeColor=none;fillColor=none;align=left;verticalAlign=top;spacingLeft=4;spacingRight=4;overflow=hidden;rotatable=0;points=[[0,0.5],[1,0.5]];portConstraint=eastwest;whiteSpace=wrap;html=1;" vertex="1" parent="jq3bAAN9FsQ__k8qv7md-11">
          <mxGeometry y="30" width="160" height="26" as="geometry" />
        </mxCell>
        <mxCell id="jq3bAAN9FsQ__k8qv7md-13" value="1" style="endArrow=openThin;html=1;endSize=12;startArrow=diamondThin;startSize=14;startFill=1;edgeStyle=orthogonalEdgeStyle;align=left;verticalAlign=bottom;rounded=0;endFill=0;exitX=0.5;exitY=1;exitDx=0;exitDy=0;fontSize=13;entryX=0.5;entryY=0;entryDx=0;entryDy=0;" edge="1" parent="1" source="CLw23MSYpjSKy58oMHuV-499" target="jq3bAAN9FsQ__k8qv7md-11">
          <mxGeometry x="0.1707" y="4" relative="1" as="geometry">
            <mxPoint x="208" y="16" as="sourcePoint" />
            <mxPoint x="288" y="-11" as="targetPoint" />
            <mxPoint as="offset" />
          </mxGeometry>
        </mxCell>
        <mxCell id="jq3bAAN9FsQ__k8qv7md-14" value="MCInstLower" style="edgeLabel;html=1;align=center;verticalAlign=middle;resizable=0;points=[];fontSize=13;" vertex="1" connectable="0" parent="jq3bAAN9FsQ__k8qv7md-13">
          <mxGeometry x="0.0184" y="-1" relative="1" as="geometry">
            <mxPoint x="55" y="9" as="offset" />
          </mxGeometry>
        </mxCell>
      </root>
    </mxGraphModel>
  </diagram>
</mxfile>
